<?xml version="1.0" standalone="no"?>
<!DOCTYPE svg PUBLIC "-//W3C//DTD SVG 1.1//EN" "http://www.w3.org/Graphics/SVG/1.1/DTD/svg11.dtd" >
<svg xmlns="http://www.w3.org/2000/svg">
<metadata></metadata>
<defs>
<font id="elektra_medium_proitalic" horiz-adv-x="588" >
<font-face units-per-em="1000" ascent="800" descent="-200" />
<missing-glyph horiz-adv-x="266" />
<glyph unicode="ff" horiz-adv-x="687" d="M588 536l-5 -27h165l-23 -108h-165l-85 -401h-124l85 401h-187l-85 -401h-124l85 401h-85l23 108h85l6 30q40 185 241 185q98 0 166 -29q48 29 127 29q74 0 137 -22l-49 -98q-38 14 -89 14q-81 0 -99 -82zM277 532l-5 -23h187l7 34q9 41 21 61q-45 14 -91 14 q-53 0 -81 -18t-38 -68z" />
<glyph unicode="fi" horiz-adv-x="594" d="M583 509l-108 -509h-124l85 401h-187l-85 -401h-124l85 401h-85l23 108h85l6 30q22 105 92 145t186 40q103 0 183 -31l-50 -97q-61 22 -139 22q-66 0 -102 -18t-47 -68l-5 -23h311z" />
<glyph unicode="fl" horiz-adv-x="599" d="M622 693l-117 -550q-16 -74 13 -120q-20 -7 -59.5 -23t-59.5 -23q-41 59 -19 161l100 469q-42 11 -84 11q-50 0 -79 -18t-40 -68l-5 -23h135l-23 -108h-135l-85 -401h-124l85 401h-85l23 108h85l6 30q12 55 36 92.5t60 57t76.5 27.5t93.5 8q105 0 202 -31z" />
<glyph unicode="ffi" horiz-adv-x="905" d="M894 509l-108 -509h-124l85 401h-187l-85 -401h-124l85 401h-187l-85 -401h-124l85 401h-85l23 108h85l6 30q22 104 85.5 144.5t157.5 40.5q84 0 171 -34q64 34 175 34q103 0 183 -31l-50 -97q-60 22 -139 22q-66 0 -102 -18t-47 -68l-5 -23h311zM277 532l-5 -23h187 l6 30q7 37 24 64q-43 15 -93 15q-53 0 -81 -18t-38 -68z" />
<glyph unicode="ffl" horiz-adv-x="911" d="M933 693l-117 -550q-16 -74 13 -120q-20 -8 -59.5 -23t-59.5 -23q-41 59 -19 161l100 469q-42 11 -84 11q-50 0 -79.5 -18.5t-39.5 -67.5l-5 -23h135l-23 -108h-135l-85 -401h-124l85 401h-187l-85 -401h-124l85 401h-85l23 108h85l6 30q22 104 85.5 144.5t157.5 40.5 t169 -33q61 33 165 33q105 0 202 -31zM465 539q10 42 24 64q-48 15 -93 15q-56 0 -83 -21t-39 -75l-2 -13h187z" />
<glyph unicode="Th" horiz-adv-x="1083" d="M1030 293l-62 -293h-124l60 283q16 77 -2.5 103t-73.5 26q-40 0 -71 -12t-35 -33l-78 -367h-124l123 583h-199l-123 -583h-133l123 583h-235l25 114h691l-45 -208q74 35 148 35q48 0 77 -9.5t50 -35t20.5 -70.5t-12.5 -116z" />
<glyph unicode="ffk" horiz-adv-x="1194" d="M1145 0h-147q-121 252 -155 269l-57 -269h-124l129 607q-42 11 -84 11q-50 0 -79.5 -18.5t-39.5 -67.5l-5 -23h135l-23 -108h-135l-85 -401h-124l85 401h-187l-85 -401h-124l85 401h-85l23 108h85l6 30q15 72 54 114.5t83.5 56t104.5 13.5q100 0 170 -32q61 33 165 33 q114 0 202 -31l-90 -424q56 39 248 240h146q-175 -185 -243 -231q18 -13 58.5 -85.5t92.5 -192.5zM465 539q10 42 24 64q-48 15 -93 15q-55 0 -81.5 -15.5t-35.5 -60.5l-7 -33h187z" />
<glyph unicode="fk" horiz-adv-x="883" d="M475 0h-124l129 607q-42 11 -84 11q-50 0 -79.5 -18.5t-39.5 -67.5l-5 -23h135l-23 -108h-135l-85 -401h-124l85 401h-85l23 108h85l6 30q12 55 36 92.5t60 57t76.5 27.5t93.5 8q114 0 202 -31l-90 -424zM834 0h-147q-121 252 -155 269q56 39 248 240h146 q-175 -185 -243 -231q18 -13 58.5 -85.5t92.5 -192.5z" />
<glyph unicode="fj" horiz-adv-x="594" d="M436 401h-187l-85 -401h-124l85 401h-85l23 108h85l6 30q22 105 92 145t186 40q103 0 183 -31l-50 -97q-61 22 -139 22q-66 0 -102 -18t-47 -68l-5 -23h311l-111 -520q-23 -109 -81.5 -150.5t-167.5 -41.5l22 103q44 0 68.5 18.5t33.5 67.5z" />
<glyph unicode=" "  horiz-adv-x="266" />
<glyph unicode="&#x09;" horiz-adv-x="266" />
<glyph unicode="&#xa0;" horiz-adv-x="266" />
<glyph unicode="!" horiz-adv-x="332" d="M187 697h153l-132 -474h-91zM146 143q47 0 60.5 -13t4.5 -57q-10 -48 -30 -63t-67 -15q-45 0 -58 15t-3 63q9 44 28 57t65 13z" />
<glyph unicode="&#x22;" horiz-adv-x="370" d="M143 697h112l-70 -240h-82zM314 697h109l-70 -240h-81z" />
<glyph unicode="#" horiz-adv-x="712" d="M82 435l28 100h129l45 162h116l-46 -162h138l46 162h115l-45 -162h137l-28 -100h-137l-44 -159h139l-28 -99h-138l-49 -177h-115l48 177h-138l-48 -177h-116l49 177h-128l28 99h127l44 159h-129zM327 435l-45 -159h138l45 159h-138z" />
<glyph unicode="$" horiz-adv-x="622" d="M391 825h88l-29 -138q110 -2 183 -27l-53 -110q-47 21 -155 23l-36 -171q100 -14 140.5 -60.5t22.5 -131.5q-21 -96 -80.5 -143.5t-166.5 -58.5l-31 -145h-88l31 142q-119 2 -190 26l53 111q53 -20 161 -24l38 180q-100 12 -142 53t-25 123q21 96 82 146t166 62zM238 488 q-7 -34 6.5 -50.5t58.5 -23.5l33 155q-84 -14 -98 -81zM428 203q7 36 -6 54.5t-58 27.5l-35 -163q84 14 99 81z" />
<glyph unicode="%" horiz-adv-x="959" d="M731 697h117l-577 -697h-116zM318 714q100 0 131 -47t4 -176q-28 -131 -80 -181t-151 -50t-130 50t-3 181q27 129 78 176t151 47zM241 349q43 0 63.5 27.5t38.5 113.5q17 88 8.5 112t-51.5 24t-63.5 -25.5t-38.5 -110.5q-18 -87 -8.5 -114t51.5 -27zM785 439 q100 0 131 -47t4 -175q-28 -131 -80 -181t-151 -50t-130 50t-3 181q27 128 78 175t151 47zM707 74q43 0 63.5 28t38.5 114q17 88 8.5 111.5t-51.5 23.5t-63.5 -25t-38.5 -110q-17 -88 -8 -115t51 -27z" />
<glyph unicode="&#x26;" horiz-adv-x="796" d="M795 396q-28 -130 -147 -242q18 -31 76 -154h-150q-22 52 -34 75q-73 -47 -136.5 -68t-143.5 -21q-144 0 -194.5 43t-27.5 153q38 172 225 180q-58 5 -85.5 27t-28 57t8.5 82q13 63 42 102.5t88 61.5t151 22q134 0 179.5 -41t25.5 -134q-15 -75 -60 -117t-135 -49 q69 -6 140 -126q55 68 73 149h133zM282 94q63 0 109 15.5t100 54.5q-39 76 -76 113t-80 37q-67 0 -103.5 -26.5t-49.5 -86.5q-13 -61 8 -84t92 -23zM370 417q116 0 136 97q10 51 -10 70.5t-80 19.5t-88.5 -19t-39.5 -70q-11 -53 7.5 -75.5t74.5 -22.5z" />
<glyph unicode="'" horiz-adv-x="202" d="M143 697h112l-70 -240h-82z" />
<glyph unicode="(" horiz-adv-x="303" d="M70 249q90 418 330 517l38 -93q-162 -70 -237 -424q-74 -353 56 -424l-76 -93q-200 98 -111 517z" />
<glyph unicode=")" horiz-adv-x="303" d="M237 249q-88 -418 -328 -517l-39 93q160 70 235 424q22 102 27 178.5t-5.5 125t-29 76.5t-47.5 44l77 93q200 -98 110 -517z" />
<glyph unicode="*" horiz-adv-x="494" d="M81 479l22 100h129l-41 113l99 50l40 -112l88 112l79 -50l-90 -113h130l-22 -100h-130l41 -113l-98 -49l-41 110l-87 -110l-78 50l88 112h-129z" />
<glyph unicode="+" horiz-adv-x="582" d="M62 303l25 118h183l39 184h119l-39 -184h184l-25 -118h-184l-39 -184h-119l39 184h-183z" />
<glyph unicode="," horiz-adv-x="285" d="M207 103l-170 -262h-110l132 262h148z" />
<glyph unicode="-" horiz-adv-x="304" d="M26 222l25 118h246l-25 -118h-246z" />
<glyph unicode="." horiz-adv-x="285" d="M121 143q48 0 61 -13t4 -57q-10 -48 -30 -63t-67 -15q-45 0 -57.5 15t-2.5 63q9 44 27.5 57t64.5 13z" />
<glyph unicode="/" horiz-adv-x="467" d="M469 697h134l-504 -697h-134z" />
<glyph unicode="0" horiz-adv-x="626" d="M414 714q54 0 92 -10t65.5 -34t39.5 -64.5t10 -102t-20 -145.5q-44 -207 -124.5 -289.5t-216.5 -82.5q-67 0 -110 18t-69 61t-25.5 114.5t21.5 178.5q22 105 53 174.5t73.5 109.5t92.5 56t118 16zM285 105q54 0 85 20t54 73t46 160q14 65 18.5 106.5t2 69t-16 40.5 t-33 18t-52.5 5q-55 0 -83.5 -16t-51.5 -66.5t-45 -156.5q-32 -158 -17 -205.5t93 -47.5z" />
<glyph unicode="1" horiz-adv-x="626" d="M360 0h-129l118 556l-171 -67l-14 108l350 129z" />
<glyph unicode="2" horiz-adv-x="626" d="M172 568l-4 114q110 32 229 32q136 0 188 -44.5t27 -160.5q-12 -56 -30.5 -94t-66 -83.5t-117.5 -93t-198 -124.5h327l-24 -114h-506l22 106q132 87 201 134t123 87t75.5 66.5t32.5 48t18 56.5q13 56 -11.5 76.5t-96.5 20.5q-110 0 -189 -27z" />
<glyph unicode="3" horiz-adv-x="626" d="M208 310l24 112h96q65 0 95.5 19.5t40.5 69.5q11 49 -15.5 67t-116.5 18q-105 0 -179 -22l-2 114q126 26 231 26q147 0 197 -41t29 -137q-16 -77 -56 -118t-128 -49q92 -4 117.5 -49.5t6.5 -131.5q-24 -112 -97.5 -157t-224.5 -45q-117 0 -224 25l49 114q66 -20 174 -20 q98 0 135 21.5t49 79.5q13 59 -10.5 81.5t-91.5 22.5h-99z" />
<glyph unicode="4" horiz-adv-x="622" d="M353 179h-348l8 41q226 293 400 477h176l-87 -409h93l-23 -109h-93l-38 -179h-126zM376 288l62 295q-126 -130 -250 -295h188z" />
<glyph unicode="5" horiz-adv-x="626" d="M194 697h432l-25 -114h-307l-33 -155q54 4 84 4q145 0 190 -49t20 -168q-27 -131 -98.5 -180t-223.5 -49q-119 0 -217 25l50 114q62 -20 167 -20q95 0 129.5 20.5t48.5 82.5q14 67 -9 89.5t-117 22.5q-99 0 -174 -14z" />
<glyph unicode="6" horiz-adv-x="626" d="M658 687l-54 -116q-56 23 -159 23q-88 0 -137 -35t-74 -138q64 11 134 11q145 0 191 -49t21 -168q-27 -131 -95.5 -180t-214.5 -49q-151 0 -193 77t2 291q23 107 54.5 176.5t79.5 110.5t108.5 57t148.5 16q102 0 188 -27zM295 105q74 0 104 22t42 81q13 62 -6.5 87 t-94.5 25q-64 0 -132 -10q-13 -65 -13.5 -105.5t12 -62.5t33 -29.5t55.5 -7.5z" />
<glyph unicode="7" horiz-adv-x="626" d="M700 697l-9 -40q-93 -111 -227.5 -311t-213.5 -346h-149q93 161 206 328.5t193 254.5h-360l25 114h535z" />
<glyph unicode="8" horiz-adv-x="626" d="M282 94q72 0 103.5 23.5t44.5 83.5q13 61 -9.5 87t-91.5 26t-102 -26t-46 -87t8.5 -84t92.5 -23zM351 417q60 0 91.5 22.5t42.5 75.5q11 51 -10 70t-84 19q-64 0 -93 -19t-40 -70q-11 -53 11 -75.5t82 -22.5zM260 -14q-143 0 -193 45.5t-27 156.5q19 87 63.5 132 t138.5 49q-86 8 -107.5 49t-5.5 118q20 95 82 136.5t203 41.5t185 -41.5t24 -136.5q-16 -77 -55 -118t-128 -49q93 -4 118 -49.5t6 -131.5q-23 -111 -91.5 -156.5t-212.5 -45.5z" />
<glyph unicode="9" horiz-adv-x="626" d="M121 0q200 159 283 273q-42 -5 -89 -5q-146 0 -192 46t-21 164q28 132 97.5 184t214.5 52q157 0 201 -50t14 -191q-29 -137 -117.5 -249.5t-226.5 -223.5h-164zM353 380q62 0 110 7q17 35 24 72q19 87 -1.5 112t-96.5 25q-74 0 -104.5 -25t-43.5 -87q-14 -65 7 -84.5 t105 -19.5z" />
<glyph unicode=":" horiz-adv-x="285" d="M121 143q48 0 61 -13t4 -57q-10 -48 -30 -63t-67 -15q-45 0 -57.5 15t-2.5 63q9 44 27.5 57t64.5 13zM200 515q48 0 61 -13t4 -58q-10 -48 -29.5 -62.5t-66.5 -14.5q-45 0 -58 14.5t-3 62.5q9 45 27.5 58t64.5 13z" />
<glyph unicode=";" horiz-adv-x="285" d="M207 103l-170 -262h-110l132 262h148zM200 515q48 0 61 -13t4 -58q-10 -48 -29.5 -62.5t-66.5 -14.5q-45 0 -58 14.5t-3 62.5q9 45 27.5 58t64.5 13z" />
<glyph unicode="&#x3c;" horiz-adv-x="582" d="M589 587l-316 -225l220 -227l-84 -90l-305 285l13 61l424 284z" />
<glyph unicode="=" horiz-adv-x="582" d="M33 168l25 118h486l-25 -118h-486zM90 435l25 118h486l-25 -118h-486z" />
<glyph unicode="&#x3e;" horiz-adv-x="582" d="M63 134l316 225l-220 228l84 89l305 -285l-13 -61l-425 -284z" />
<glyph unicode="?" horiz-adv-x="493" d="M215 143q48 0 61 -13t4 -57q-10 -48 -29.5 -62.5t-66.5 -14.5q-45 0 -58 14.5t-3 62.5q9 44 27.5 57t64.5 13zM295 215h-130q96 84 144.5 149t65.5 143q10 44 -12.5 65.5t-89.5 21.5q-90 0 -148 -21l-2 116q86 25 186 25q137 0 187.5 -49.5t28.5 -152.5q-17 -80 -73 -149 t-157 -148z" />
<glyph unicode="@" horiz-adv-x="939" d="M491 528q-80 0 -127.5 -9t-86 -37.5t-61 -78.5t-40.5 -135q-15 -69 -15.5 -114t11.5 -77t45 -49t80 -24t121 -7q179 0 254.5 62t113.5 242q28 125 18 187h113q6 -68 -20 -191q-48 -228 -162.5 -316t-337.5 -88q-75 0 -130.5 7t-100 24t-71 45t-40.5 69.5t-12.5 97.5 t17.5 130q23 107 62.5 179.5t98.5 112.5t127 56.5t161 16.5q59 0 96 -6t66 -23t40 -48.5t10 -80t-16 -120.5q-18 -85 -38.5 -134.5t-54.5 -78t-74.5 -37t-109.5 -8.5q-117 0 -153 35t-15 134q22 101 69 133.5t152 32.5q78 0 123 -10q13 63 -10.5 85.5t-102.5 22.5zM493 342 q-57 0 -79.5 -13.5t-32.5 -60.5t6.5 -62.5t74.5 -15.5q53 0 77.5 20t36.5 78l10 47q-35 7 -93 7z" />
<glyph unicode="A" horiz-adv-x="682" d="M505 0q-17 87 -31 174h-305q-32 -60 -90 -174h-138q185 353 400 697h207q41 -403 103 -697h-146zM427 585h-27q-81 -134 -171 -298h232q-19 132 -34 298z" />
<glyph unicode="B" horiz-adv-x="712" d="M193 111h220q68 0 88 98q22 103 -49 103h-216zM294 585l-35 -166h214q59 0 77 84q10 42 0.5 62t-42.5 20h-214zM517 369q93 -4 116.5 -48t5.5 -130q-40 -191 -220 -191h-381l148 697h375q98 0 125.5 -41.5t9.5 -125.5q-16 -77 -53 -115t-126 -46z" />
<glyph unicode="C" horiz-adv-x="592" d="M78 355q23 106 57 176t85 110.5t112.5 56.5t148.5 16q107 0 195 -26l-54 -116q-56 22 -143 22q-63 0 -99.5 -7.5t-69.5 -32.5t-53.5 -72.5t-37.5 -127.5q-14 -65 -15.5 -108t6.5 -71t31.5 -42.5t54 -20t79.5 -5.5q87 0 153 22l4 -118q-95 -25 -205 -25q-86 0 -140.5 17.5 t-89 60.5t-37 113.5t17.5 177.5z" />
<glyph unicode="D" horiz-adv-x="736" d="M186 697h266q69 0 117 -10t85 -34t52 -63.5t18 -98.5t-17 -140q-41 -196 -136 -273.5t-267 -77.5h-266zM566 350q13 63 15 103.5t-5 67t-30 39.5t-52.5 18t-79.5 5h-121l-99 -469h121q61 0 99 9t68 35.5t49 71.5t35 120z" />
<glyph unicode="E" horiz-adv-x="620" d="M186 697h506l-25 -114h-374l-34 -161h267l-24 -113h-267l-41 -195h374l-24 -114h-506z" />
<glyph unicode="F" horiz-adv-x="584" d="M186 697h496l-25 -114h-364l-41 -197h267l-24 -113h-267l-58 -273h-132z" />
<glyph unicode="G" horiz-adv-x="700" d="M467 116l38 180h-152l24 111h287l-83 -391q-102 -30 -254 -30q-86 0 -140.5 17.5t-89 60.5t-37 113.5t17.5 177.5q23 106 59 176.5t90.5 110.5t119 56t153.5 16q117 0 205 -26l-52 -115q-24 9 -76.5 15t-91.5 6q-65 0 -103 -7.5t-71.5 -32.5t-54 -72.5t-37.5 -127.5 q-14 -65 -15.5 -108.5t6.5 -71.5t31.5 -42.5t54 -20t79.5 -5.5q48 0 92 10z" />
<glyph unicode="H" horiz-adv-x="736" d="M235 309l-65 -309h-132l148 697h132l-57 -266h298l57 266h130l-148 -697h-130l65 309h-298z" />
<glyph unicode="I" horiz-adv-x="308" d="M186 697h132l-148 -697h-132z" />
<glyph unicode="J" horiz-adv-x="461" d="M473 697l-107 -505q-43 -206 -255 -206q-84 0 -153 27l51 118q50 -21 115 -21q91 0 112 99l104 488h133z" />
<glyph unicode="K" horiz-adv-x="662" d="M318 697l-148 -697h-132l148 697h132zM625 0h-162q-63 159 -123 256.5t-91 111.5q42 27 136.5 115.5t205.5 213.5h160q-114 -123 -204 -208.5t-127 -111.5q28 -23 86.5 -122.5t118.5 -254.5z" />
<glyph unicode="L" horiz-adv-x="551" d="M186 697h132l-124 -582h329l-24 -115h-461z" />
<glyph unicode="M" horiz-adv-x="916" d="M467 251q130 221 288 446h171l-148 -697h-129l110 519q-120 -179 -291 -455h-103q-60 331 -90 455l-110 -519h-127l148 697h180q57 -209 101 -446z" />
<glyph unicode="N" horiz-adv-x="774" d="M783 697l-148 -697h-161q-91 272 -196 525l-111 -525h-129l148 697h173q100 -238 186 -503l107 503h131z" />
<glyph unicode="O" horiz-adv-x="770" d="M486 714q57 0 100 -7t77.5 -23t55.5 -43t31.5 -67t8 -94.5t-17.5 -124.5q-23 -107 -58 -179t-87 -113.5t-115 -59t-149 -17.5q-69 0 -118 10.5t-85 36t-52.5 68t-16.5 105.5t18 149q22 105 57 175.5t87 110.5t114.5 56.5t149.5 16.5zM357 105q61 0 97 9t65 37t47 74.5 t35 127.5q14 65 17 106.5t-2.5 69.5t-26.5 42t-50 19t-78 5t-80 -5t-58 -19t-44.5 -42t-31.5 -69.5t-28 -106.5q-17 -81 -19.5 -127.5t14.5 -74.5t49.5 -37t93.5 -9z" />
<glyph unicode="P" horiz-adv-x="673" d="M242 340h194q85 0 111 119q27 126 -56 126h-197zM170 0h-132l148 697h363q194 0 143 -239q-21 -98 -83 -163t-157 -65h-234z" />
<glyph unicode="Q" horiz-adv-x="783" d="M492 714q69 0 117.5 -10t85.5 -34.5t52.5 -65.5t18 -103t-17.5 -146q-34 -162 -99 -241.5t-168 -98.5q67 -20 163 -207h-154q-37 84 -78 129t-76 49q-86 0 -141 17.5t-90 60t-37.5 113.5t17.5 178q29 139 84 219t131 110t192 30zM363 105q61 0 97.5 9t65.5 37t47 74.5 t35 127.5q14 65 17 106.5t-2.5 69.5t-27 42t-50.5 19t-78 5q-61 0 -96.5 -8t-64.5 -34.5t-46 -72.5t-34 -127q-14 -65 -17.5 -106.5t2 -71t25.5 -44t49.5 -20.5t77.5 -6z" />
<glyph unicode="R" horiz-adv-x="706" d="M294 585l-45 -210h197q80 0 103 102q22 108 -55 108h-200zM476 303q33 -13 71.5 -81.5t97.5 -221.5h-163q-51 141 -90 203.5t-73 62.5h-93l-56 -266h-132l148 697h363q193 0 151 -203q-41 -184 -224 -191z" />
<glyph unicode="S" horiz-adv-x="622" d="M654 683l-54 -114q-64 25 -178 25q-84 0 -125 -20.5t-52 -70.5q-9 -42 17.5 -61t116.5 -28q120 -13 165.5 -62t24.5 -147q-26 -120 -108.5 -169.5t-238.5 -49.5q-126 0 -211 31l53 114q73 -25 181 -25q86 0 127.5 20t53.5 72q9 43 -18.5 66t-120.5 31q-117 12 -161 55 t-24 137q26 120 110.5 173.5t234.5 53.5q119 0 207 -31z" />
<glyph unicode="T" horiz-adv-x="609" d="M321 0h-133l123 583h-235l25 114h603l-25 -114h-235z" />
<glyph unicode="U" horiz-adv-x="742" d="M761 697l-103 -486q-28 -129 -110 -177t-230 -48q-48 0 -84 4t-69 13.5t-53 26t-34 41.5t-13.5 59.5t7.5 80.5l104 486h133l-99 -466q-15 -70 14.5 -97t118.5 -27q88 0 130.5 26.5t57.5 97.5l99 466h131z" />
<glyph unicode="V" horiz-adv-x="648" d="M79 697h146q57 -288 79 -563q150 243 312 563h139q-186 -356 -403 -697h-169q-42 423 -104 697z" />
<glyph unicode="W" horiz-adv-x="975" d="M544 478q-76 -181 -229 -478h-167q-19 459 -52 697h144q30 -252 36 -533q171 330 254 533h122q25 -377 23 -533q136 256 259 533h136q-171 -370 -350 -697h-168q5 213 -8 478z" />
<glyph unicode="X" horiz-adv-x="674" d="M267 697q49 -87 126 -230q125 135 209 230h162q-116 -130 -314 -342q119 -233 177 -355h-164q-52 108 -119 241q-210 -215 -236 -241h-162q129 128 340 352q-109 209 -188 345h169z" />
<glyph unicode="Y" horiz-adv-x="638" d="M232 697q67 -116 137 -266q139 145 241 266h160q-185 -209 -366 -396l-63 -301h-132l63 300q-126 255 -212 397h172z" />
<glyph unicode="Z" horiz-adv-x="621" d="M-33 0l6 32q245 258 499 551h-360l25 114h565l-7 -30q-106 -128 -254 -292.5t-245 -260.5h375l-24 -114h-580z" />
<glyph unicode="[" horiz-adv-x="341" d="M200 755h270l-23 -108h-141l-170 -800h141l-23 -107h-270z" />
<glyph unicode="\" horiz-adv-x="467" d="M69 697h134l208 -697h-134z" />
<glyph unicode="]" horiz-adv-x="341" d="M91 755h270l-216 -1015h-269l23 107h140l170 800h-141z" />
<glyph unicode="^" horiz-adv-x="531" d="M396 296l-64 266l-176 -266h-131l278 401h119l108 -401h-134z" />
<glyph unicode="_" horiz-adv-x="470" d="M-56 -166l24 118h412l-25 -118h-411z" />
<glyph unicode="`" horiz-adv-x="481" d="M417 568h-110l-116 129h132z" />
<glyph unicode="a" d="M377 156l53 249q-42 17 -95 17q-69 0 -99.5 -32t-52.5 -136q-12 -52 -12 -84q0 -42 21.5 -58.5t70.5 -16.5q43 0 75.5 16.5t38.5 44.5zM366 46q-60 -58 -154 -58q-87 0 -129 33.5t-42 116.5q0 46 14 114q31 152 101 212t200 60q132 0 215 -38l-71 -330q-5 -23 -5 -40 q0 -40 30 -73l-106 -61q-20 7 -34.5 25.5t-18.5 38.5z" />
<glyph unicode="b" d="M221 367l-56 -263q38 -16 95 -16q69 0 100 31.5t53 136.5q19 94 2 126.5t-83 32.5q-43 0 -75 -13t-36 -35zM23 23l149 699h124l-49 -232q62 34 139 34q110 0 148 -58.5t6 -207.5q-32 -153 -101.5 -212.5t-199.5 -59.5t-216 37z" />
<glyph unicode="c" horiz-adv-x="470" d="M405 118l5 -106q-70 -26 -160 -26q-124 0 -175 61t-20 210q31 148 108 207.5t201 59.5q90 0 150 -24l-51 -106q-53 22 -113 22q-73 0 -109.5 -30.5t-57.5 -130.5q-21 -96 2.5 -128.5t95.5 -32.5q59 0 124 24z" />
<glyph unicode="d" d="M366 107l56 263q5 22 -20.5 35.5t-68.5 13.5q-66 0 -98 -34t-52 -128q-20 -104 -3 -134.5t85 -30.5q54 0 101 15zM621 722l-149 -699q-99 -37 -229 -37q-131 0 -176 58.5t-12 210.5q31 147 100 208t178 61q70 0 116 -29l48 227h124z" />
<glyph unicode="e" horiz-adv-x="552" d="M429 112l-1 -98q-89 -28 -183 -28q-119 0 -170 61.5t-20 209.5q31 146 103.5 206.5t190.5 60.5q64 0 102 -12.5t60 -46t20.5 -92.5t-24.5 -151h-329q-16 -78 8.5 -104.5t95.5 -26.5q74 0 147 21zM335 426q-59 0 -88 -23t-48 -86h214q11 66 -6 87.5t-72 21.5z" />
<glyph unicode="f" horiz-adv-x="376" d="M277 536l-5 -27h165l-23 -108h-165l-85 -401h-124l85 401h-85l23 108h85l7 34q21 102 79 141.5t144 39.5q73 0 136 -22l-49 -98q-38 14 -89 14q-40 0 -64.5 -18t-34.5 -64z" />
<glyph unicode="g" d="M374 143l56 262q-42 17 -95 17q-69 0 -100 -31.5t-53 -136.5q-19 -95 -2 -127t83 -32q43 0 74.5 13t36.5 35zM348 21q-62 -33 -136 -33q-111 0 -150.5 58t-7.5 207q32 152 102.5 211.5t200.5 59.5q131 0 214 -38l-95 -447q-30 -139 -110 -191t-214 -52q-101 0 -172 30 l46 100q73 -25 147 -25q75 0 118 26.5t57 93.5z" />
<glyph unicode="h" horiz-adv-x="583" d="M394 524q48 0 77 -9.5t50 -35t20.5 -70.5t-12.5 -116l-62 -293h-124l60 283q14 66 -1.5 97.5t-73.5 31.5q-41 0 -72 -12t-35 -33l-78 -367h-124l153 722h124l-50 -233q76 35 148 35z" />
<glyph unicode="i" horiz-adv-x="262" d="M251 509l-108 -509h-124l108 509h124zM235 721q42 0 54 -11.5t4 -49.5q-9 -43 -26.5 -56t-59.5 -13q-43 0 -54.5 13t-2.5 56q8 38 25 49.5t60 11.5z" />
<glyph unicode="j" horiz-adv-x="262" d="M-109 -203l22 103q44 0 68.5 18.5t33.5 67.5l112 523h124l-111 -520q-23 -109 -81.5 -150.5t-167.5 -41.5zM235 721q42 0 54 -11.5t4 -49.5q-9 -43 -26.5 -56t-59.5 -13q-43 0 -54.5 13t-2.5 56q8 38 25 49.5t60 11.5z" />
<glyph unicode="k" horiz-adv-x="551" d="M502 0h-146q-121 252 -156 269l-57 -269h-124l153 722h124l-96 -453q56 39 248 240h147q-177 -186 -244 -231q18 -13 59 -86t92 -192z" />
<glyph unicode="l" horiz-adv-x="268" d="M296 722l-123 -579q-15 -68 13 -120l-119 -47q-41 62 -19 162l124 584h124z" />
<glyph unicode="m" horiz-adv-x="881" d="M228 400l-85 -400h-124l102 480q123 44 244 44q86 0 123 -34q100 34 188 34q109 0 143.5 -52.5t5.5 -187.5l-60 -284h-124l57 271q18 85 3.5 113t-75.5 28q-53 0 -102 -14q5 -47 -10 -114l-60 -284h-124l57 271q18 85 3.5 113t-75.5 28q-42 0 -87 -12z" />
<glyph unicode="n" horiz-adv-x="583" d="M228 400l-85 -400h-124l102 480q123 44 250 44q110 0 147.5 -53t8.5 -187l-60 -284h-124l57 271q18 85 2.5 113t-81.5 28q-47 0 -93 -12z" />
<glyph unicode="o" d="M240 -14q-127 0 -172 59.5t-13 211.5q32 150 102.5 208.5t196.5 58.5q128 0 173.5 -58t13.5 -209q-32 -152 -102.5 -211.5t-198.5 -59.5zM333 424q-68 0 -97.5 -31.5t-52.5 -137.5q-21 -106 -5 -137.5t83 -31.5q68 0 99 33t53 136q21 109 5 139t-85 30z" />
<glyph unicode="p" d="M228 402l-56 -262q-4 -22 22 -35.5t68 -13.5q66 0 98 33.5t52 127.5q20 105 3.5 135t-85.5 30q-60 0 -102 -15zM-22 -192l144 678q99 38 231 38q130 0 174.5 -58.5t12.5 -210.5q-31 -148 -100 -208.5t-178 -60.5q-64 0 -116 29l-44 -207h-124z" />
<glyph unicode="q" d="M374 143l56 262q-42 17 -95 17q-69 0 -100 -31.5t-53 -136.5q-19 -95 -2 -127t83 -32q43 0 74.5 13t36.5 35zM571 486l-144 -678h-124l45 212q-64 -34 -139 -34q-110 0 -148.5 58.5t-6.5 208.5q32 152 102.5 211.5t200.5 59.5q131 0 214 -38z" />
<glyph unicode="r" horiz-adv-x="379" d="M19 0l108 509h124l-8 -38q45 53 141 53q26 0 51 -3l-25 -118q-30 7 -63 7q-49 0 -86.5 -15t-42.5 -42l-75 -353h-124z" />
<glyph unicode="s" horiz-adv-x="491" d="M489 496l-48 -97q-68 24 -143 24q-51 0 -73.5 -11t-30.5 -48q-6 -26 13 -37.5t80 -17.5q92 -10 126 -44t19 -109q-20 -94 -84 -132t-170 -38t-177 27l47 98q63 -24 146 -24q55 0 80 12t33 50q6 28 -13.5 41.5t-82.5 19.5q-88 7 -122.5 38.5t-18.5 106.5q20 93 84.5 131 t169.5 38q88 0 165 -28z" />
<glyph unicode="t" horiz-adv-x="415" d="M423 401h-169l-47 -219q-10 -49 2 -69t56 -20q45 0 90 14l1 -98q-67 -23 -144 -23q-91 0 -122.5 38.5t-8.5 146.5l49 230h-85l23 108h85l18 86l135 51l-29 -137h169z" />
<glyph unicode="u" horiz-adv-x="583" d="M363 110l85 399h124l-102 -480q-125 -44 -251 -44q-110 0 -147.5 53t-8.5 187l61 284h124l-58 -271q-18 -85 -2.5 -113t80.5 -28q49 0 95 13z" />
<glyph unicode="v" horiz-adv-x="511" d="M231 125q133 225 208 384h126q-118 -232 -291 -509h-153q-22 300 -63 509h129q32 -180 44 -384z" />
<glyph unicode="w" horiz-adv-x="830" d="M437 341q-76 -172 -170 -341h-153q-20 292 -56 509h131q28 -172 34 -382q103 184 192 382h121q21 -173 21 -382q130 227 200 382h126q-129 -262 -282 -509h-154q2 204 -10 341z" />
<glyph unicode="x" horiz-adv-x="521" d="M466 0h-140q-24 60 -73 161q-74 -78 -159 -161h-138q95 89 251 254q-76 152 -142 255h148q38 -63 84 -156q53 57 138 156h138q-94 -107 -229 -251q64 -128 122 -258z" />
<glyph unicode="y" horiz-adv-x="511" d="M124 -25q-18 288 -66 534h129q30 -162 44 -386q132 223 208 386h126q-123 -243 -306 -530q-58 -92 -115 -171h-138q44 58 118 167z" />
<glyph unicode="z" horiz-adv-x="497" d="M93 509h439l-6 -25q-71 -85 -173.5 -198t-168.5 -178h255l-22 -108h-449l5 25q200 200 346 376h-249z" />
<glyph unicode="{" horiz-adv-x="338" d="M23 198l-1 -1l22 103q110 0 153 201q45 210 221 266l39 -93q-58 -19 -92.5 -63.5t-56.5 -149.5t-59 -153.5t-74 -58.5q14 -4 25 -15t21 -36.5t9 -64t-12 -98.5q-18 -72 -13 -116.5t21 -64t50 -32.5l-79 -92q-152 55 -107 267q43 201 -67 201z" />
<glyph unicode="|" horiz-adv-x="371" d="M230 755h131l-215 -1011h-131z" />
<glyph unicode="}" horiz-adv-x="338" d="M315 274l-16 -76q-110 0 -153 -201q-45 -210 -220 -266q-4 10 -12 29t-14.5 34.5t-12.5 29.5q57 19 91 63.5t56 149.5q23 104 60 153t73 59q-13 4 -24 16t-20.5 35t-9.5 65t12 98q18 72 13 116t-21 64t-50 32q14 15 39.5 46t39.5 46q152 -55 107 -266q-43 -201 67 -201z " />
<glyph unicode="~" horiz-adv-x="582" d="M510 445l67 -63q-30 -51 -77 -83t-101 -32q-40 0 -105.5 43t-94.5 43q-38 0 -77 -60l-58 69q79 97 158 97q29 0 60 -13t53 -28.5t47.5 -28.5t44.5 -13q23 0 42 15t41 54z" />
<glyph unicode="&#xa1;" horiz-adv-x="332" d="M156 -178h-154l132 474h90zM195 376q-47 0 -60 13t-4 57q10 48 29.5 63t66.5 15q45 0 58 -15t3 -63q-9 -44 -28 -57t-65 -13z" />
<glyph unicode="&#xa2;" horiz-adv-x="458" d="M353 751h98l-22 -104q63 -6 103 -21l-49 -98q-28 14 -76 16l-70 -328q48 3 83 18l8 -96q-45 -18 -112 -24l-26 -121h-98l26 121q-92 13 -128 75.5t-8 193.5q27 129 89.5 190t159.5 72zM200 380q-14 -72 -4 -105.5t46 -44.5l64 301q-40 -10 -65 -44t-41 -107z" />
<glyph unicode="&#xa3;" horiz-adv-x="610" d="M48 293l22 105h59l17 79q25 119 104.5 177.5t224.5 58.5q124 0 206 -31l-53 -113q-66 24 -178 24q-82 0 -120 -25t-50 -83l-19 -87h197l-22 -105h-197l-38 -179h339l-24 -114h-471l62 293h-59z" />
<glyph unicode="&#xa4;" horiz-adv-x="674" d="M309 83q-65 0 -100 17l-101 -100l-89 75l102 103q-21 61 4 177q24 110 67 168l-56 102l130 72l50 -93q42 17 107 17t99 -15l81 91l99 -71l-89 -97q21 -61 -2 -174q-25 -115 -73 -177l52 -103l-127 -75l-50 98q-45 -15 -104 -15zM401 515q-36 0 -57 -5t-40 -21.5t-32 -49 t-25 -87.5q-11 -53 -11.5 -84.5t11 -49.5t31 -23.5t54.5 -5.5q70 0 102 31t53 132q10 44 11.5 73.5t-2 47.5t-17.5 27t-31.5 12t-46.5 3z" />
<glyph unicode="&#xa5;" horiz-adv-x="638" d="M90 278l19 92h128q-97 195 -177 327h172q67 -116 137 -266q139 145 241 266h160q-147 -167 -300 -327h120l-19 -92h-171l-17 -78h171l-20 -92h-171l-22 -108h-132l22 108h-178l20 92h178l17 78h-178z" />
<glyph unicode="&#xa6;" horiz-adv-x="371" d="M230 755h131l-78 -367h-131zM93 111h131l-78 -367h-131z" />
<glyph unicode="&#xa7;" horiz-adv-x="622" d="M646 684l-50 -108q-63 24 -171 24q-80 0 -120.5 -20.5t-50.5 -67.5q-8 -38 18 -55.5t113 -25.5q118 -12 167.5 -57t31.5 -134q-14 -63 -72 -119q28 -38 13 -108q-45 -216 -340 -216q-116 0 -196 30l50 108q58 -24 171 -24q80 0 120 20.5t50 66.5q8 39 -17.5 56.5 t-111.5 25.5q-118 12 -168 57t-31 133q15 68 69 122q-25 37 -11 105q46 217 340 217q116 0 196 -30zM215 334q-22 -24 -30 -57q-8 -40 22 -58t128 -27q49 -3 84 -16q23 23 30 57q9 40 -21 58.5t-129 26.5q-57 5 -84 16z" />
<glyph unicode="&#xa8;" horiz-adv-x="462" d="M213 681q35 0 45.5 -10t3.5 -45q-9 -38 -24 -50t-50 -12t-44.5 11.5t-0.5 50.5q7 35 21 45t49 10zM427 681q35 0 45 -10t3 -45q-9 -38 -24 -50t-49 -12q-36 0 -45.5 11.5t-0.5 50.5q7 35 21 45t50 10z" />
<glyph unicode="&#xa9;" horiz-adv-x="837" d="M519 714q61 0 107.5 -7t84.5 -23t61 -43t35.5 -67t11 -94.5t-16.5 -124.5q-44 -208 -147 -288.5t-290 -80.5q-61 0 -107.5 7.5t-84 24.5t-60.5 45t-35 68.5t-10 96t17 127.5q43 204 145 281.5t289 77.5zM384 78q74 0 120 10t84 40.5t61.5 84t42.5 141.5q15 70 16 117 t-9 77.5t-38 46t-64.5 21.5t-96.5 6q-74 0 -119 -9t-83 -38t-61.5 -81.5t-41.5 -139.5q-15 -71 -16.5 -118.5t8.5 -79t37 -48.5t64 -23.5t96 -6.5zM550 246l4 -89q-64 -22 -135 -22q-112 0 -150.5 46t-11.5 172t84.5 170.5t169.5 44.5q74 0 126 -19l-42 -90q-38 16 -98 16 q-59 0 -85 -23t-43 -100q-15 -74 1.5 -99t74.5 -25t105 18z" />
<glyph unicode="&#xaa;" horiz-adv-x="435" d="M447 577l-46 -215q-79 -28 -171 -28q-86 0 -112.5 25t-11.5 95q15 71 54.5 94.5t110.5 23.5q45 0 86 -10q10 47 -4.5 62t-68.5 15q-60 0 -111 -16v72q80 19 146 19q82 0 113.5 -30t14.5 -107zM325 413l19 89q-25 7 -68 7q-35 0 -53 -10t-24 -41q-7 -33 4 -45t49 -12 q37 0 73 12z" />
<glyph unicode="&#xab;" horiz-adv-x="668" d="M428 518l-220 -204l132 -208l-86 -75l-211 281l329 279zM701 518l-220 -204l132 -208l-86 -75l-211 281l329 279z" />
<glyph unicode="&#xac;" horiz-adv-x="519" d="M436 0h-131l66 311h-326l24 117h457z" />
<glyph unicode="&#xae;" horiz-adv-x="571" d="M469 512q-9 -44 -30 -62t-55 -18q40 -21 40 -98h-85q1 27 -8 51.5t-20 24.5h-19l-17 -76h-78l57 266h163q36 0 48.5 -25t3.5 -63zM387 508q7 28 -15 28h-54l-12 -58h54q22 0 27 30zM573 466q-30 -139 -98 -194t-194 -55t-170.5 55t-14.5 194q30 140 97 193.5t193 53.5 q127 0 172 -53.5t15 -193.5zM491 466q22 109 -3 141.5t-117 32.5q-90 0 -130 -33t-62 -141q-22 -103 4 -138.5t114 -35.5q90 0 131 35.5t63 138.5z" />
<glyph unicode="&#xaf;" horiz-adv-x="520" d="M195 576l19 90h278l-19 -90h-278z" />
<glyph unicode="&#xb0;" horiz-adv-x="434" d="M318 714q100 0 131 -47t4 -176q-28 -131 -80 -181t-151 -50t-130 50t-3 181q27 129 78 176t151 47zM241 349q43 0 63.5 27.5t38.5 113.5q17 88 8.5 112t-51.5 24t-63.5 -25.5t-38.5 -110.5q-18 -87 -8.5 -114t51.5 -27z" />
<glyph unicode="&#xb1;" horiz-adv-x="582" d="M78 380l25 118h183l39 184h119l-39 -184h184l-25 -118h-184l-39 -184h-119l39 184h-183zM2 19l25 118h486l-25 -118h-486z" />
<glyph unicode="&#xb2;" horiz-adv-x="429" d="M144 601l3 93q64 19 145 19q95 0 132.5 -30.5t22.5 -102.5q-23 -104 -120 -136q-92 -30 -113 -45q-19 -15 -27 -36h215l-19 -89h-339q27 97 69.5 143.5t120.5 76.5q48 17 72.5 34.5t30.5 43.5q5 26 -11 36t-62 10q-69 0 -120 -17z" />
<glyph unicode="&#xb3;" horiz-adv-x="423" d="M177 454l18 83h50q41 0 57 10t22 37q5 25 -9 33.5t-64 8.5q-66 0 -110 -14l2 85q71 16 143 16q94 0 131 -25.5t25 -84.5q-10 -49 -36 -74.5t-82 -29.5q57 -3 75 -30.5t7 -81.5q-15 -68 -67.5 -96.5t-148.5 -28.5q-74 0 -139 17l34 85q45 -14 108 -14q53 0 73.5 11 t27.5 41q7 32 -6.5 42t-58.5 10h-52z" />
<glyph unicode="&#xb4;" horiz-adv-x="481" d="M272 568h-109l149 129h133z" />
<glyph unicode="&#xb6;" horiz-adv-x="673" d="M534 0h-116l48 230h-86l-48 -230h-117l48 230h-46q-95 0 -129 65t-13 163q51 239 244 239h363z" />
<glyph unicode="&#xb7;" horiz-adv-x="297" d="M177 379q51 0 65.5 -14.5t4.5 -61.5q-11 -52 -32 -68t-72 -16q-48 0 -62 16t-3 68q10 47 30.5 61.5t68.5 14.5z" />
<glyph unicode="&#xb8;" horiz-adv-x="641" d="M280 0h49l-9 -42q60 0 81.5 -17t11.5 -61q-10 -47 -44.5 -65t-110.5 -18q-62 0 -94 16l33 54q23 -12 69 -12q23 0 33 5.5t13 20.5q4 19 -14.5 24t-73.5 2z" />
<glyph unicode="&#xb9;" horiz-adv-x="377" d="M272 278h-104l65 306l-104 -41l-8 88l246 94z" />
<glyph unicode="&#xba;" horiz-adv-x="460" d="M247 324q-88 0 -121 44.5t-11 151.5t74.5 150.5t140.5 43.5q90 0 123.5 -43.5t11.5 -150.5t-75 -151.5t-143 -44.5zM313 635q-46 0 -66 -22t-35 -94q-14 -71 -3.5 -93.5t55.5 -22.5q46 0 67.5 23t36.5 93q14 74 3 95t-58 21z" />
<glyph unicode="&#xbb;" horiz-adv-x="668" d="M272 105l220 204l-132 209l85 74l213 -280l-330 -280zM-1 105l220 204l-132 209l85 74l213 -280l-330 -280z" />
<glyph unicode="&#xbc;" horiz-adv-x="860" d="M637 697h122l-578 -697h-122zM626 98h-228l9 43q119 148 256 291h137l-51 -243h57l-20 -91h-57l-20 -98h-103zM646 189l34 161q-85 -84 -144 -161h110zM258 278h-105l65 306l-103 -41l-9 88l247 94z" />
<glyph unicode="&#xbd;" horiz-adv-x="860" d="M542 327l3 93q64 19 145 19q94 0 132 -30.5t23 -102.5q-23 -104 -120 -136q-92 -30 -113 -45q-20 -14 -28 -36h215l-18 -89h-339q27 97 69.5 143.5t119.5 76.5q48 17 73 34.5t31 43.5q5 26 -11 36t-62 10q-69 0 -120 -17zM633 697h122l-578 -697h-122zM254 278h-105 l65 306l-103 -41l-9 88l247 94z" />
<glyph unicode="&#xbe;" horiz-adv-x="860" d="M701 697h122l-579 -697h-122zM640 98h-228l9 43q132 162 257 291h136l-51 -243h58l-20 -91h-58l-20 -98h-103zM660 189l34 161q-84 -84 -144 -161h110zM159 454l18 83h50q41 0 57 10t22 37q5 25 -9 33.5t-64 8.5q-66 0 -110 -14l2 85q71 16 143 16q94 0 131 -25.5 t25 -84.5q-10 -49 -36 -74.5t-82 -29.5q57 -3 75 -30.5t7 -81.5q-15 -68 -67.5 -96.5t-148.5 -28.5q-74 0 -139 17l34 85q45 -14 108 -14q53 0 73.5 11t27.5 41q7 32 -6.5 42t-58.5 10h-52z" />
<glyph unicode="&#xbf;" horiz-adv-x="493" d="M289 377q-48 0 -61 13t-4 57q10 48 29.5 62.5t66.5 14.5q45 0 58 -14.5t3 -62.5q-9 -44 -27.5 -57t-64.5 -13zM208 305h130q-96 -84 -145 -149.5t-65 -142.5q-9 -44 13.5 -65.5t89.5 -21.5q89 0 147 21l3 -116q-86 -25 -187 -25q-137 0 -187.5 49.5t-28.5 152.5 q17 80 73 149t157 148z" />
<glyph unicode="&#xc0;" horiz-adv-x="682" d="M505 0q-17 87 -31 174h-305q-32 -60 -90 -174h-138q185 353 400 697h207q41 -403 103 -697h-146zM427 585h-27q-81 -134 -171 -298h232q-19 132 -34 298zM544 747h-114l-130 129h137z" />
<glyph unicode="&#xc1;" horiz-adv-x="682" d="M505 0q-17 87 -31 174h-305q-32 -60 -90 -174h-138q185 353 400 697h207q41 -403 103 -697h-146zM427 585h-27q-81 -134 -171 -298h232q-19 132 -34 298zM464 747h-108l157 129h137z" />
<glyph unicode="&#xc2;" horiz-adv-x="682" d="M505 0q-17 87 -31 174h-305q-32 -60 -90 -174h-138q185 353 400 697h207q41 -403 103 -697h-146zM427 585h-27q-81 -134 -171 -298h232q-19 132 -34 298zM520 747l-55 78l-87 -78h-112l150 129h122l98 -129h-116z" />
<glyph unicode="&#xc3;" horiz-adv-x="682" d="M505 0q-17 87 -31 174h-305q-32 -60 -90 -174h-138q185 353 400 697h207q41 -403 103 -697h-146zM427 585h-27q-81 -134 -171 -298h232q-19 132 -34 298zM598 879l51 -50q-24 -41 -61 -67t-79 -26q-31 0 -70.5 27t-61.5 27q-31 0 -61 -50l-45 55q62 79 124 79 q37 0 77 -26t60 -26q34 0 66 57z" />
<glyph unicode="&#xc4;" horiz-adv-x="682" d="M505 0q-17 87 -31 174h-305q-32 -60 -90 -174h-138q185 353 400 697h207q41 -403 103 -697h-146zM427 585h-27q-81 -134 -171 -298h232q-19 132 -34 298zM366 864q35 0 44.5 -10.5t2.5 -45.5q-8 -38 -22.5 -49.5t-49.5 -11.5t-45 11.5t-2 49.5q7 35 22 45.5t50 10.5z M579 864q35 0 44.5 -10.5t2.5 -45.5q-8 -38 -22.5 -49.5t-49.5 -11.5q-36 0 -45.5 11.5t-1.5 49.5q7 35 21.5 45.5t50.5 10.5z" />
<glyph unicode="&#xc5;" horiz-adv-x="682" d="M484 890q61 0 85 -22.5t13 -75.5q-17 -83 -98 -95h64q41 -403 103 -697h-146q-17 87 -31 174h-305q-32 -60 -90 -174h-138q185 353 400 697h60q-75 12 -58 95q11 53 44 75.5t97 22.5zM427 585h-27q-81 -134 -171 -298h232q-19 132 -34 298zM472 834q-29 0 -41.5 -10 t-17.5 -33q-6 -23 2.5 -33t37.5 -10t41.5 10t18.5 33q5 24 -3 33.5t-38 9.5z" />
<glyph unicode="&#xc6;" horiz-adv-x="969" d="M443 697h597l-25 -114h-374l-34 -161h222l-24 -112h-222l-41 -196h374l-24 -114h-505l36 174h-311q-76 -87 -148 -174h-158q326 377 637 697zM511 585h-28q-158 -169 -272 -298h237z" />
<glyph unicode="&#xc7;" horiz-adv-x="592" d="M78 355q23 106 57 176t85 110.5t112.5 56.5t148.5 16q107 0 195 -26l-54 -116q-56 22 -143 22q-63 0 -99.5 -7.5t-69.5 -32.5t-53.5 -72.5t-37.5 -127.5q-14 -65 -15.5 -108t6.5 -71t31.5 -42.5t54 -20t79.5 -5.5q87 0 153 22l4 -118q-92 -23 -199 -25l-6 -28 q60 0 81.5 -17t11.5 -61q-10 -47 -44.5 -65t-110.5 -18q-62 0 -94 16l33 54q22 -12 69 -12q23 0 33 5.5t13 20.5q4 19 -14.5 24t-73.5 2l48 81q-144 9 -193 92t-8 275z" />
<glyph unicode="&#xc8;" horiz-adv-x="620" d="M186 697h506l-25 -114h-374l-34 -161h267l-24 -113h-267l-41 -195h374l-24 -114h-506zM581 747h-114l-130 129h137z" />
<glyph unicode="&#xc9;" horiz-adv-x="620" d="M186 697h506l-25 -114h-374l-34 -161h267l-24 -113h-267l-41 -195h374l-24 -114h-506zM468 747h-108l157 129h137z" />
<glyph unicode="&#xca;" horiz-adv-x="620" d="M186 697h506l-25 -114h-374l-34 -161h267l-24 -113h-267l-41 -195h374l-24 -114h-506zM527 747l-55 78l-87 -78h-112l150 129h122l98 -129h-116z" />
<glyph unicode="&#xcb;" horiz-adv-x="620" d="M186 697h506l-25 -114h-374l-34 -161h267l-24 -113h-267l-41 -195h374l-24 -114h-506zM374 864q35 0 44.5 -10.5t2.5 -45.5q-8 -38 -22.5 -49.5t-49.5 -11.5t-45 11.5t-2 49.5q7 35 22 45.5t50 10.5zM587 864q35 0 44.5 -10.5t2.5 -45.5q-8 -38 -22.5 -49.5t-49.5 -11.5 q-36 0 -45.5 11.5t-1.5 49.5q7 35 21.5 45.5t50.5 10.5z" />
<glyph unicode="&#xcc;" horiz-adv-x="308" d="M186 697h132l-148 -697h-132zM350 747h-114l-130 129h137z" />
<glyph unicode="&#xcd;" horiz-adv-x="308" d="M186 697h132l-148 -697h-132zM286 747h-108l157 129h137z" />
<glyph unicode="&#xce;" horiz-adv-x="308" d="M186 697h132l-148 -697h-132zM332 747l-55 78l-87 -78h-112l150 129h122l98 -129h-116z" />
<glyph unicode="&#xcf;" horiz-adv-x="308" d="M186 697h132l-148 -697h-132zM182 864q35 0 44.5 -10.5t2.5 -45.5q-8 -38 -22.5 -49.5t-49.5 -11.5t-45 11.5t-2 49.5q7 35 22 45.5t50 10.5zM395 864q35 0 44.5 -10.5t2.5 -45.5q-8 -38 -22.5 -49.5t-49.5 -11.5q-36 0 -45.5 11.5t-1.5 49.5q7 35 21.5 45.5t50.5 10.5z " />
<glyph unicode="&#xd0;" horiz-adv-x="736" d="M52 311l19 92h52l63 294h266q69 0 117 -10t85 -34t52 -63.5t18 -98.5t-17 -140q-41 -196 -136 -273.5t-267 -77.5h-266l66 311h-52zM566 350q13 63 15 103.5t-5 66.5t-30 39.5t-52.5 18t-79.5 4.5h-121l-38 -179h159l-19 -92h-159l-42 -197h121q61 0 99 9t68 35.5 t49 71.5t35 120z" />
<glyph unicode="&#xd1;" horiz-adv-x="774" d="M783 697l-148 -697h-161q-91 272 -196 525l-111 -525h-129l148 697h173q100 -238 186 -503l107 503h131zM651 879l51 -50q-24 -41 -61 -67t-79 -26q-31 0 -70.5 27t-61.5 27q-31 0 -61 -50l-45 55q62 79 124 79q37 0 77 -26t60 -26q34 0 66 57z" />
<glyph unicode="&#xd2;" horiz-adv-x="770" d="M486 714q57 0 100 -7t77.5 -23t55.5 -43t31.5 -67t8 -94.5t-17.5 -124.5q-23 -107 -58 -179t-87 -113.5t-115 -59t-149 -17.5q-69 0 -118 10.5t-85 36t-52.5 68t-16.5 105.5t18 149q22 105 57 175.5t87 110.5t114.5 56.5t149.5 16.5zM357 105q61 0 97 9t65 37t47 74.5 t35 127.5q14 65 17 106.5t-2.5 69.5t-26.5 42t-50 19t-78 5t-80 -5t-58 -19t-44.5 -42t-31.5 -69.5t-28 -106.5q-17 -81 -19.5 -127.5t14.5 -74.5t49.5 -37t93.5 -9zM592 747h-114l-130 129h137z" />
<glyph unicode="&#xd3;" horiz-adv-x="770" d="M486 714q57 0 100 -7t77.5 -23t55.5 -43t31.5 -67t8 -94.5t-17.5 -124.5q-23 -107 -58 -179t-87 -113.5t-115 -59t-149 -17.5q-69 0 -118 10.5t-85 36t-52.5 68t-16.5 105.5t18 149q22 105 57 175.5t87 110.5t114.5 56.5t149.5 16.5zM357 105q61 0 97 9t65 37t47 74.5 t35 127.5q14 65 17 106.5t-2.5 69.5t-26.5 42t-50 19t-78 5t-80 -5t-58 -19t-44.5 -42t-31.5 -69.5t-28 -106.5q-17 -81 -19.5 -127.5t14.5 -74.5t49.5 -37t93.5 -9zM468 747h-108l157 129h137z" />
<glyph unicode="&#xd4;" horiz-adv-x="770" d="M486 714q57 0 100 -7t77.5 -23t55.5 -43t31.5 -67t8 -94.5t-17.5 -124.5q-23 -107 -58 -179t-87 -113.5t-115 -59t-149 -17.5q-69 0 -118 10.5t-85 36t-52.5 68t-16.5 105.5t18 149q22 105 57 175.5t87 110.5t114.5 56.5t149.5 16.5zM357 105q61 0 97 9t65 37t47 74.5 t35 127.5q14 65 17 106.5t-2.5 69.5t-26.5 42t-50 19t-78 5t-80 -5t-58 -19t-44.5 -42t-31.5 -69.5t-28 -106.5q-17 -81 -19.5 -127.5t14.5 -74.5t49.5 -37t93.5 -9zM561 747l-55 78l-87 -78h-112l150 129h122l98 -129h-116z" />
<glyph unicode="&#xd5;" horiz-adv-x="770" d="M486 714q57 0 100 -7t77.5 -23t55.5 -43t31.5 -67t8 -94.5t-17.5 -124.5q-23 -107 -58 -179t-87 -113.5t-115 -59t-149 -17.5q-69 0 -118 10.5t-85 36t-52.5 68t-16.5 105.5t18 149q22 105 57 175.5t87 110.5t114.5 56.5t149.5 16.5zM357 105q61 0 97 9t65 37t47 74.5 t35 127.5q14 65 17 106.5t-2.5 69.5t-26.5 42t-50 19t-78 5t-80 -5t-58 -19t-44.5 -42t-31.5 -69.5t-28 -106.5q-17 -81 -19.5 -127.5t14.5 -74.5t49.5 -37t93.5 -9zM643 879l51 -50q-24 -41 -61 -67t-79 -26q-31 0 -70.5 27t-61.5 27q-31 0 -61 -50l-45 55q62 79 124 79 q37 0 77 -26t60 -26q34 0 66 57z" />
<glyph unicode="&#xd6;" horiz-adv-x="770" d="M486 714q57 0 100 -7t77.5 -23t55.5 -43t31.5 -67t8 -94.5t-17.5 -124.5q-23 -107 -58 -179t-87 -113.5t-115 -59t-149 -17.5q-69 0 -118 10.5t-85 36t-52.5 68t-16.5 105.5t18 149q22 105 57 175.5t87 110.5t114.5 56.5t149.5 16.5zM357 105q61 0 97 9t65 37t47 74.5 t35 127.5q14 65 17 106.5t-2.5 69.5t-26.5 42t-50 19t-78 5t-80 -5t-58 -19t-44.5 -42t-31.5 -69.5t-28 -106.5q-17 -81 -19.5 -127.5t14.5 -74.5t49.5 -37t93.5 -9zM410 864q35 0 44.5 -10.5t2.5 -45.5q-8 -38 -22.5 -49.5t-49.5 -11.5t-45 11.5t-2 49.5q7 35 22 45.5 t50 10.5zM623 864q35 0 44.5 -10.5t2.5 -45.5q-8 -38 -22.5 -49.5t-49.5 -11.5q-36 0 -45.5 11.5t-1.5 49.5q7 35 21.5 45.5t50.5 10.5z" />
<glyph unicode="&#xd7;" horiz-adv-x="582" d="M142 149l-66 84l157 130l-103 129l102 84l102 -130l158 131l66 -85l-158 -130l103 -130l-102 -83l-102 130z" />
<glyph unicode="&#xd8;" horiz-adv-x="770" d="M718 697h135l-110 -101q32 -83 -2 -241q-23 -107 -58 -179t-87 -113.5t-115 -59t-149 -17.5q-136 0 -198 45l-33 -31h-134l109 101q-34 83 2 254q22 105 57 175.5t87 110.5t114.5 56.5t149.5 16.5q139 0 200 -47zM461 595q-112 0 -160 -40t-75 -169q-23 -107 -22 -168 l375 351q-30 26 -118 26zM357 105q111 0 160 42t78 173q20 98 19 157l-372 -346q30 -26 115 -26z" />
<glyph unicode="&#xd9;" horiz-adv-x="742" d="M761 697l-103 -486q-28 -129 -110 -177t-230 -48q-48 0 -84 4t-69 13.5t-53 26t-34 41.5t-13.5 59.5t7.5 80.5l104 486h133l-99 -466q-15 -70 14.5 -97t118.5 -27q88 0 130.5 26.5t57.5 97.5l99 466h131zM594 747h-114l-130 129h137z" />
<glyph unicode="&#xda;" horiz-adv-x="742" d="M761 697l-103 -486q-28 -129 -110 -177t-230 -48q-48 0 -84 4t-69 13.5t-53 26t-34 41.5t-13.5 59.5t7.5 80.5l104 486h133l-99 -466q-15 -70 14.5 -97t118.5 -27q88 0 130.5 26.5t57.5 97.5l99 466h131zM480 747h-108l157 129h137z" />
<glyph unicode="&#xdb;" horiz-adv-x="742" d="M761 697l-103 -486q-28 -129 -110 -177t-230 -48q-48 0 -84 4t-69 13.5t-53 26t-34 41.5t-13.5 59.5t7.5 80.5l104 486h133l-99 -466q-15 -70 14.5 -97t118.5 -27q88 0 130.5 26.5t57.5 97.5l99 466h131zM546 747l-55 78l-87 -78h-112l150 129h122l98 -129h-116z" />
<glyph unicode="&#xdc;" horiz-adv-x="742" d="M761 697l-103 -486q-28 -129 -110 -177t-230 -48q-48 0 -84 4t-69 13.5t-53 26t-34 41.5t-13.5 59.5t7.5 80.5l104 486h133l-99 -466q-15 -70 14.5 -97t118.5 -27q88 0 130.5 26.5t57.5 97.5l99 466h131zM395 864q35 0 44.5 -10.5t2.5 -45.5q-8 -38 -22.5 -49.5 t-49.5 -11.5t-45 11.5t-2 49.5q7 35 22 45.5t50 10.5zM608 864q35 0 44.5 -10.5t2.5 -45.5q-8 -38 -22.5 -49.5t-49.5 -11.5q-36 0 -45.5 11.5t-1.5 49.5q7 35 21.5 45.5t50.5 10.5z" />
<glyph unicode="&#xdd;" horiz-adv-x="638" d="M232 697q67 -116 137 -266q139 145 241 266h160q-185 -209 -366 -396l-63 -301h-132l63 300q-126 255 -212 397h172zM442 747h-108l157 129h137z" />
<glyph unicode="&#xde;" horiz-adv-x="673" d="M186 697h132l-22 -103h231q194 0 143 -239q-21 -98 -83 -163t-157 -65h-234l-26 -127h-132zM220 237h194q85 0 111 119q26 125 -56 125h-197z" />
<glyph unicode="&#xdf;" horiz-adv-x="654" d="M425 714q137 0 191 -42t34 -136q-16 -77 -55 -118t-127 -49q92 -4 117.5 -49.5t6.5 -131.5q-24 -112 -97.5 -157t-224.5 -45q-36 0 -69 3l37 108q32 -4 59 -4q80 0 114 24t46 84q13 63 -10 88t-93 25h-38l22 103h35q67 0 98 23.5t42 74.5q10 49 -14 68.5t-97 19.5 q-131 0 -150 -93l-108 -510h-125l112 527q40 187 294 187z" />
<glyph unicode="&#xe0;" d="M377 156l53 249q-42 17 -95 17q-69 0 -99.5 -32t-52.5 -136q-12 -52 -12 -84q0 -42 21.5 -58.5t70.5 -16.5q43 0 75.5 16.5t38.5 44.5zM366 46q-60 -58 -154 -58q-87 0 -129 33.5t-42 116.5q0 46 14 114q31 152 101 212t200 60q132 0 215 -38l-71 -330q-5 -23 -5 -40 q0 -40 30 -73l-106 -61q-20 7 -34.5 25.5t-18.5 38.5zM439 568h-110l-116 129h132z" />
<glyph unicode="&#xe1;" d="M377 156l53 249q-42 17 -95 17q-69 0 -99.5 -32t-52.5 -136q-12 -52 -12 -84q0 -42 21.5 -58.5t70.5 -16.5q43 0 75.5 16.5t38.5 44.5zM366 46q-60 -58 -154 -58q-87 0 -129 33.5t-42 116.5q0 46 14 114q31 152 101 212t200 60q132 0 215 -38l-71 -330q-5 -23 -5 -40 q0 -40 30 -73l-106 -61q-20 7 -34.5 25.5t-18.5 38.5zM388 568h-109l149 129h133z" />
<glyph unicode="&#xe2;" d="M377 156l53 249q-42 17 -95 17q-69 0 -99.5 -32t-52.5 -136q-12 -52 -12 -84q0 -42 21.5 -58.5t70.5 -16.5q43 0 75.5 16.5t38.5 44.5zM366 46q-60 -58 -154 -58q-87 0 -129 33.5t-42 116.5q0 46 14 114q31 152 101 212t200 60q132 0 215 -38l-71 -330q-5 -23 -5 -40 q0 -40 30 -73l-106 -61q-20 7 -34.5 25.5t-18.5 38.5zM557 568h-117l-55 76l-85 -76h-113l150 129h122z" />
<glyph unicode="&#xe3;" d="M377 156l53 249q-42 17 -95 17q-69 0 -99.5 -32t-52.5 -136q-12 -52 -12 -84q0 -42 21.5 -58.5t70.5 -16.5q43 0 75.5 16.5t38.5 44.5zM366 46q-60 -58 -154 -58q-87 0 -129 33.5t-42 116.5q0 46 14 114q31 152 101 212t200 60q132 0 215 -38l-71 -330q-5 -23 -5 -40 q0 -40 30 -73l-106 -61q-20 7 -34.5 25.5t-18.5 38.5zM493 702l51 -50q-52 -93 -137 -93q-31 0 -68.5 26.5t-60.5 26.5q-32 0 -63 -51l-45 55q64 81 127 81q37 0 73 -26.5t57 -26.5q18 0 32.5 12.5t33.5 45.5z" />
<glyph unicode="&#xe4;" d="M377 156l53 249q-42 17 -95 17q-69 0 -99.5 -32t-52.5 -136q-12 -52 -12 -84q0 -42 21.5 -58.5t70.5 -16.5q43 0 75.5 16.5t38.5 44.5zM366 46q-60 -58 -154 -58q-87 0 -129 33.5t-42 116.5q0 46 14 114q31 152 101 212t200 60q132 0 215 -38l-71 -330q-5 -23 -5 -40 q0 -40 30 -73l-106 -61q-20 7 -34.5 25.5t-18.5 38.5zM282 681q35 0 45.5 -10t3.5 -45q-9 -38 -24 -50t-50 -12t-44.5 11.5t-0.5 50.5q7 35 21 45t49 10zM496 681q35 0 45 -10t3 -45q-9 -38 -24 -50t-49 -12q-36 0 -45.5 11.5t-0.5 50.5q7 35 21 45t50 10z" />
<glyph unicode="&#xe5;" d="M377 156l53 249q-42 17 -95 17q-69 0 -99.5 -32t-52.5 -136q-12 -52 -12 -84q0 -42 21.5 -58.5t70.5 -16.5q43 0 75.5 16.5t38.5 44.5zM366 46q-60 -58 -154 -58q-87 0 -129 33.5t-42 116.5q0 46 14 114q31 152 101 212t200 60q132 0 215 -38l-71 -330q-5 -23 -5 -40 q0 -40 30 -73l-106 -61q-20 7 -34.5 25.5t-18.5 38.5zM388 741q61 0 85 -22.5t13 -75.5t-44.5 -75.5t-95.5 -22.5t-86 22.5t-13 75.5t44 75.5t97 22.5zM376 684q-30 0 -42 -9.5t-17 -33.5q-5 -23 3.5 -33t37.5 -10t41.5 10t17.5 33q5 24 -3 33.5t-38 9.5z" />
<glyph unicode="&#xe6;" horiz-adv-x="868" d="M745 112l-1 -98q-89 -28 -183 -28q-96 0 -141 36q-83 -36 -209 -36q-122 0 -161 36t-18 134q21 100 77.5 133.5t157.5 33.5q59 0 123 -14q14 68 -5 88.5t-99 20.5q-88 0 -159 -23l-1 102q108 27 209 27q128 0 156 -61q57 61 174 61q64 0 102 -12.5t60 -46t20.5 -92.5 t-24.5 -151h-329q-16 -78 8.5 -104.5t95.5 -26.5q74 0 147 21zM365 105q-10 51 5 120q-38 9 -96 9q-56 0 -78 -13t-32 -60q-11 -49 3 -64.5t74 -15.5q74 0 124 24zM651 426q-58 0 -87.5 -22.5t-48.5 -86.5h214q11 66 -6 87.5t-72 21.5z" />
<glyph unicode="&#xe7;" horiz-adv-x="470" d="M405 118l5 -106q-66 -24 -154 -26l-6 -28q60 0 81.5 -17t11.5 -61q-10 -47 -44.5 -65t-110.5 -18q-62 0 -94 16l33 54q23 -12 69 -12q23 0 33 5.5t13 20.5q4 19 -14.5 24t-73.5 2l49 82q-99 10 -138 72t-10 196q31 148 108 207.5t201 59.5q90 0 150 -24l-51 -106 q-53 22 -113 22q-73 0 -109.5 -30.5t-57.5 -130.5q-21 -96 2.5 -128.5t95.5 -32.5q59 0 124 24z" />
<glyph unicode="&#xe8;" horiz-adv-x="552" d="M429 112l-1 -98q-89 -28 -183 -28q-119 0 -170 61.5t-20 209.5q31 146 103.5 206.5t190.5 60.5q64 0 102 -12.5t60 -46t20.5 -92.5t-24.5 -151h-329q-16 -78 8.5 -104.5t95.5 -26.5q74 0 147 21zM335 426q-59 0 -88 -23t-48 -86h214q11 66 -6 87.5t-72 21.5zM460 568 h-110l-116 129h132z" />
<glyph unicode="&#xe9;" horiz-adv-x="552" d="M429 112l-1 -98q-89 -28 -183 -28q-119 0 -170 61.5t-20 209.5q31 146 103.5 206.5t190.5 60.5q64 0 102 -12.5t60 -46t20.5 -92.5t-24.5 -151h-329q-16 -78 8.5 -104.5t95.5 -26.5q74 0 147 21zM335 426q-59 0 -88 -23t-48 -86h214q11 66 -6 87.5t-72 21.5zM380 568 h-109l149 129h133z" />
<glyph unicode="&#xea;" horiz-adv-x="552" d="M429 112l-1 -98q-89 -28 -183 -28q-119 0 -170 61.5t-20 209.5q31 146 103.5 206.5t190.5 60.5q64 0 102 -12.5t60 -46t20.5 -92.5t-24.5 -151h-329q-16 -78 8.5 -104.5t95.5 -26.5q74 0 147 21zM335 426q-59 0 -88 -23t-48 -86h214q11 66 -6 87.5t-72 21.5zM551 568 h-117l-55 76l-85 -76h-113l150 129h122z" />
<glyph unicode="&#xeb;" horiz-adv-x="552" d="M429 112l-1 -98q-89 -28 -183 -28q-119 0 -170 61.5t-20 209.5q31 146 103.5 206.5t190.5 60.5q64 0 102 -12.5t60 -46t20.5 -92.5t-24.5 -151h-329q-16 -78 8.5 -104.5t95.5 -26.5q74 0 147 21zM335 426q-59 0 -88 -23t-48 -86h214q11 66 -6 87.5t-72 21.5zM280 681 q35 0 45.5 -10t3.5 -45q-9 -38 -24 -50t-50 -12t-44.5 11.5t-0.5 50.5q7 35 21 45t49 10zM494 681q35 0 45 -10t3 -45q-9 -38 -24 -50t-49 -12q-36 0 -45.5 11.5t-0.5 50.5q7 35 21 45t50 10z" />
<glyph unicode="&#xec;" horiz-adv-x="262" d="M251 509l-108 -509h-124l108 509h124zM284 568h-110l-116 129h132z" />
<glyph unicode="&#xed;" horiz-adv-x="262" d="M251 509l-108 -509h-124l108 509h124zM223 568h-109l149 129h133z" />
<glyph unicode="&#xee;" horiz-adv-x="262" d="M251 509l-108 -509h-124l108 509h124zM387 568h-117l-55 76l-85 -76h-113l150 129h122z" />
<glyph unicode="&#xef;" horiz-adv-x="262" d="M251 509l-108 -509h-124l108 509h124zM119 681q35 0 45.5 -10t3.5 -45q-9 -38 -24 -50t-50 -12t-44.5 11.5t-0.5 50.5q7 35 21 45t49 10zM333 681q35 0 45 -10t3 -45q-9 -38 -24 -50t-49 -12q-36 0 -45.5 11.5t-0.5 50.5q7 35 21 45t50 10z" />
<glyph unicode="&#xf0;" horiz-adv-x="626" d="M307 480l-36 65l80 44q-13 20 -82 108h164q8 -10 37 -45l69 38l34 -65l-62 -35q106 -176 65 -366q-30 -142 -95 -191.5t-222 -49.5q-145 0 -192.5 52t-19.5 183q25 118 90.5 164t211.5 46q48 0 86 -5q-15 51 -47 102zM340 317q-84 0 -113 -20t-43 -85q-13 -62 6.5 -86.5 t93.5 -24.5q76 0 106.5 24.5t49.5 112.5q9 43 6 72q-45 7 -106 7z" />
<glyph unicode="&#xf1;" horiz-adv-x="583" d="M228 400l-85 -400h-124l102 480q123 44 250 44q110 0 147.5 -53t8.5 -187l-60 -284h-124l57 271q18 85 2.5 113t-81.5 28q-47 0 -93 -12zM510 702l51 -50q-52 -93 -137 -93q-31 0 -68.5 26.5t-60.5 26.5q-32 0 -63 -51l-45 55q64 81 127 81q37 0 73 -26.5t57 -26.5 q18 0 32.5 12.5t33.5 45.5z" />
<glyph unicode="&#xf2;" d="M240 -14q-127 0 -172 59.5t-13 211.5q32 150 102.5 208.5t196.5 58.5q128 0 173.5 -58t13.5 -209q-32 -152 -102.5 -211.5t-198.5 -59.5zM333 424q-68 0 -97.5 -31.5t-52.5 -137.5q-21 -106 -5 -137.5t83 -31.5q68 0 99 33t53 136q21 109 5 139t-85 30zM467 568h-110 l-116 129h132z" />
<glyph unicode="&#xf3;" d="M240 -14q-127 0 -172 59.5t-13 211.5q32 150 102.5 208.5t196.5 58.5q128 0 173.5 -58t13.5 -209q-32 -152 -102.5 -211.5t-198.5 -59.5zM333 424q-68 0 -97.5 -31.5t-52.5 -137.5q-21 -106 -5 -137.5t83 -31.5q68 0 99 33t53 136q21 109 5 139t-85 30zM377 568h-109 l149 129h133z" />
<glyph unicode="&#xf4;" d="M240 -14q-127 0 -172 59.5t-13 211.5q32 150 102.5 208.5t196.5 58.5q128 0 173.5 -58t13.5 -209q-32 -152 -102.5 -211.5t-198.5 -59.5zM333 424q-68 0 -97.5 -31.5t-52.5 -137.5q-21 -106 -5 -137.5t83 -31.5q68 0 99 33t53 136q21 109 5 139t-85 30zM547 568h-117 l-55 76l-85 -76h-113l150 129h122z" />
<glyph unicode="&#xf5;" d="M240 -14q-127 0 -172 59.5t-13 211.5q32 150 102.5 208.5t196.5 58.5q128 0 173.5 -58t13.5 -209q-32 -152 -102.5 -211.5t-198.5 -59.5zM333 424q-68 0 -97.5 -31.5t-52.5 -137.5q-21 -106 -5 -137.5t83 -31.5q68 0 99 33t53 136q21 109 5 139t-85 30zM512 702l51 -50 q-52 -93 -137 -93q-31 0 -68.5 26.5t-60.5 26.5q-32 0 -63 -51l-45 55q64 81 127 81q37 0 73 -26.5t57 -26.5q18 0 32.5 12.5t33.5 45.5z" />
<glyph unicode="&#xf6;" d="M240 -14q-127 0 -172 59.5t-13 211.5q32 150 102.5 208.5t196.5 58.5q128 0 173.5 -58t13.5 -209q-32 -152 -102.5 -211.5t-198.5 -59.5zM333 424q-68 0 -97.5 -31.5t-52.5 -137.5q-21 -106 -5 -137.5t83 -31.5q68 0 99 33t53 136q21 109 5 139t-85 30zM280 681 q35 0 45.5 -10t3.5 -45q-9 -38 -24 -50t-50 -12t-44.5 11.5t-0.5 50.5q7 35 21 45t49 10zM494 681q35 0 45 -10t3 -45q-9 -38 -24 -50t-49 -12q-36 0 -45.5 11.5t-0.5 50.5q7 35 21 45t50 10z" />
<glyph unicode="&#xf7;" horiz-adv-x="582" d="M62 303l25 118h486l-25 -118h-486zM286 224q47 0 60.5 -13.5t4.5 -57.5q-10 -48 -29.5 -62.5t-66.5 -14.5q-45 0 -58 14.5t-3 62.5q9 44 28 57.5t64 13.5zM376 645q48 0 61 -13t4 -57q-10 -48 -29.5 -62.5t-67.5 -14.5q-45 0 -57.5 14.5t-2.5 62.5q9 44 27.5 57t64.5 13z " />
<glyph unicode="&#xf8;" d="M515 509h116l-86 -79q19 -61 -4 -173q-32 -152 -102.5 -211.5t-198.5 -59.5q-92 0 -141 31l-18 -17h-115l85 79q-21 62 4 178q32 150 102.5 208.5t196.5 58.5q97 0 142 -31zM332 423q-65 0 -94.5 -27t-49.5 -117q-11 -53 -11 -86l227 214q-20 16 -72 16zM261 87 q67 0 98 33.5t49 120.5q9 48 10 73l-226 -212q17 -15 69 -15z" />
<glyph unicode="&#xf9;" horiz-adv-x="583" d="M363 110l85 399h124l-102 -480q-125 -44 -251 -44q-110 0 -147.5 53t-8.5 187l61 284h124l-58 -271q-18 -85 -2.5 -113t80.5 -28q49 0 95 13zM460 568h-110l-116 129h132z" />
<glyph unicode="&#xfa;" horiz-adv-x="583" d="M363 110l85 399h124l-102 -480q-125 -44 -251 -44q-110 0 -147.5 53t-8.5 187l61 284h124l-58 -271q-18 -85 -2.5 -113t80.5 -28q49 0 95 13zM379 568h-109l149 129h133z" />
<glyph unicode="&#xfb;" horiz-adv-x="583" d="M363 110l85 399h124l-102 -480q-125 -44 -251 -44q-110 0 -147.5 53t-8.5 187l61 284h124l-58 -271q-18 -85 -2.5 -113t80.5 -28q49 0 95 13zM552 568h-117l-55 76l-85 -76h-113l150 129h122z" />
<glyph unicode="&#xfc;" horiz-adv-x="583" d="M363 110l85 399h124l-102 -480q-125 -44 -251 -44q-110 0 -147.5 53t-8.5 187l61 284h124l-58 -271q-18 -85 -2.5 -113t80.5 -28q49 0 95 13zM281 681q35 0 45.5 -10t3.5 -45q-9 -38 -24 -50t-50 -12t-44.5 11.5t-0.5 50.5q7 35 21 45t49 10zM495 681q35 0 45 -10t3 -45 q-9 -38 -24 -50t-49 -12q-36 0 -45.5 11.5t-0.5 50.5q7 35 21 45t50 10z" />
<glyph unicode="&#xfd;" horiz-adv-x="511" d="M124 -25q-18 288 -66 534h129q30 -162 44 -386q132 223 208 386h126q-123 -243 -306 -530q-58 -92 -115 -171h-138q44 58 118 167zM358 568h-109l149 129h133z" />
<glyph unicode="&#xfe;" d="M-22 -192l191 901h124l-41 -195q57 10 101 10q130 0 174.5 -58.5t12.5 -210.5q-31 -148 -100 -208.5t-178 -60.5q-64 0 -116 29l-44 -207h-124zM228 402l-56 -262q-4 -22 22 -35.5t68 -13.5q66 0 98 33.5t52 127.5q20 105 3.5 135t-85.5 30q-60 0 -102 -15z" />
<glyph unicode="&#xff;" horiz-adv-x="511" d="M124 -25q-18 288 -66 534h129q30 -162 44 -386q132 223 208 386h126q-123 -243 -306 -530q-58 -92 -115 -171h-138q44 58 118 167zM246 681q35 0 45.5 -10t3.5 -45q-9 -38 -24 -50t-50 -12t-44.5 11.5t-0.5 50.5q7 35 21 45t49 10zM460 681q35 0 45 -10t3 -45 q-9 -38 -24 -50t-49 -12q-36 0 -45.5 11.5t-0.5 50.5q7 35 21 45t50 10z" />
<glyph unicode="&#x100;" horiz-adv-x="682" d="M505 0q-17 87 -31 174h-305q-32 -60 -90 -174h-138q185 353 400 697h207q41 -403 103 -697h-146zM427 585h-27q-81 -134 -171 -298h232q-19 132 -34 298zM312 753l19 92h278l-19 -92h-278z" />
<glyph unicode="&#x101;" d="M377 156l53 249q-42 17 -95 17q-69 0 -99.5 -32t-52.5 -136q-12 -52 -12 -84q0 -42 21.5 -58.5t70.5 -16.5q43 0 75.5 16.5t38.5 44.5zM366 46q-60 -58 -154 -58q-87 0 -129 33.5t-42 116.5q0 46 14 114q31 152 101 212t200 60q132 0 215 -38l-71 -330q-5 -23 -5 -40 q0 -40 30 -73l-106 -61q-20 7 -34.5 25.5t-18.5 38.5zM210 576l19 90h278l-19 -90h-278z" />
<glyph unicode="&#x102;" horiz-adv-x="682" d="M505 0q-17 87 -31 174h-305q-32 -60 -90 -174h-138q185 353 400 697h207q41 -403 103 -697h-146zM427 585h-27q-81 -134 -171 -298h232q-19 132 -34 298zM325 871h85q-7 -34 5.5 -46t47.5 -12t54 12.5t26 45.5h80q-30 -137 -179 -137t-119 137z" />
<glyph unicode="&#x103;" d="M377 156l53 249q-42 17 -95 17q-69 0 -99.5 -32t-52.5 -136q-12 -52 -12 -84q0 -42 21.5 -58.5t70.5 -16.5q43 0 75.5 16.5t38.5 44.5zM366 46q-60 -58 -154 -58q-87 0 -129 33.5t-42 116.5q0 46 14 114q31 152 101 212t200 60q132 0 215 -38l-71 -330q-5 -23 -5 -40 q0 -40 30 -73l-106 -61q-20 7 -34.5 25.5t-18.5 38.5zM246 697h85q-7 -34 5.5 -46t47.5 -12t54 12.5t26 45.5h80q-30 -137 -179 -137t-119 137z" />
<glyph unicode="&#x104;" horiz-adv-x="682" d="M505 0q-17 87 -31 174h-305q-32 -60 -90 -174h-138q185 353 400 697h207q41 -403 103 -697h-52q-44 -25 -61 -45t-23 -47q-5 -22 5.5 -31t45.5 -9q52 0 89 27l22 -63q-54 -35 -139 -35q-74 0 -98 21.5t-15 67.5q17 76 119 114h-39zM427 585h-27q-81 -134 -171 -298h232 q-19 132 -34 298z" />
<glyph unicode="&#x105;" d="M432 12h39q-57 -30 -78.5 -52t-27.5 -52q-5 -22 5.5 -31t45.5 -9q52 0 89 27l22 -63q-54 -35 -139 -35q-74 0 -98 21.5t-15 67.5q17 75 117 114q-21 18 -26 46q-60 -58 -154 -58q-87 0 -129 33.5t-42 116.5q0 46 14 114q31 152 101 212t200 60q132 0 215 -38l-71 -330 q-5 -23 -5 -40q0 -40 30 -73l-54 -31l-44 -25l-8 -5q-15 6 -27 18q20 7 40 12zM377 156l53 249q-42 17 -95 17q-69 0 -99.5 -32t-52.5 -136q-12 -52 -12 -84q0 -42 21.5 -58.5t70.5 -16.5q43 0 75.5 16.5t38.5 44.5z" />
<glyph unicode="&#x106;" horiz-adv-x="592" d="M78 355q23 106 57 176t85 110.5t112.5 56.5t148.5 16q107 0 195 -26l-54 -116q-56 22 -143 22q-63 0 -99.5 -7.5t-69.5 -32.5t-53.5 -72.5t-37.5 -127.5q-14 -65 -15.5 -108t6.5 -71t31.5 -42.5t54 -20t79.5 -5.5q87 0 153 22l4 -118q-95 -25 -205 -25q-86 0 -140.5 17.5 t-89 60.5t-37 113.5t17.5 177.5zM461 747h-108l157 129h137z" />
<glyph unicode="&#x107;" horiz-adv-x="470" d="M405 118l5 -106q-70 -26 -160 -26q-124 0 -175 61t-20 210q31 148 108 207.5t201 59.5q90 0 150 -24l-51 -106q-53 22 -113 22q-73 0 -109.5 -30.5t-57.5 -130.5q-21 -96 2.5 -128.5t95.5 -32.5q59 0 124 24zM367 568h-109l149 129h133z" />
<glyph unicode="&#x108;" horiz-adv-x="592" d="M78 355q23 106 57 176t85 110.5t112.5 56.5t148.5 16q107 0 195 -26l-54 -116q-56 22 -143 22q-63 0 -99.5 -7.5t-69.5 -32.5t-53.5 -72.5t-37.5 -127.5q-14 -65 -15.5 -108t6.5 -71t31.5 -42.5t54 -20t79.5 -5.5q87 0 153 22l4 -118q-95 -25 -205 -25q-86 0 -140.5 17.5 t-89 60.5t-37 113.5t17.5 177.5zM552 747l-55 78l-87 -78h-112l150 129h122l98 -129h-116z" />
<glyph unicode="&#x109;" horiz-adv-x="470" d="M405 118l5 -106q-70 -26 -160 -26q-124 0 -175 61t-20 210q31 148 108 207.5t201 59.5q90 0 150 -24l-51 -106q-53 22 -113 22q-73 0 -109.5 -30.5t-57.5 -130.5q-21 -96 2.5 -128.5t95.5 -32.5q59 0 124 24zM547 568h-117l-55 76l-85 -76h-113l150 129h122z" />
<glyph unicode="&#x10a;" horiz-adv-x="592" d="M78 355q23 106 57 176t85 110.5t112.5 56.5t148.5 16q107 0 195 -26l-54 -116q-56 22 -143 22q-63 0 -99.5 -7.5t-69.5 -32.5t-53.5 -72.5t-37.5 -127.5q-14 -65 -15.5 -108t6.5 -71t31.5 -42.5t54 -20t79.5 -5.5q87 0 153 22l4 -118q-95 -25 -205 -25q-86 0 -140.5 17.5 t-89 60.5t-37 113.5t17.5 177.5zM509 867q35 0 45 -10.5t3 -45.5q-8 -38 -23 -49.5t-50 -11.5t-44.5 11.5t-1.5 49.5q7 35 21.5 45.5t49.5 10.5z" />
<glyph unicode="&#x10b;" horiz-adv-x="470" d="M405 118l5 -106q-70 -26 -160 -26q-124 0 -175 61t-20 210q31 148 108 207.5t201 59.5q90 0 150 -24l-51 -106q-53 22 -113 22q-73 0 -109.5 -30.5t-57.5 -130.5q-21 -96 2.5 -128.5t95.5 -32.5q59 0 124 24zM388 681q35 0 45.5 -10t3.5 -45q-9 -38 -24 -50t-50 -12 t-44.5 11.5t-0.5 50.5q7 35 21 45t49 10z" />
<glyph unicode="&#x10c;" horiz-adv-x="592" d="M78 355q23 106 57 176t85 110.5t112.5 56.5t148.5 16q107 0 195 -26l-54 -116q-56 22 -143 22q-63 0 -99.5 -7.5t-69.5 -32.5t-53.5 -72.5t-37.5 -127.5q-14 -65 -15.5 -108t6.5 -71t31.5 -42.5t54 -20t79.5 -5.5q87 0 153 22l4 -118q-95 -25 -205 -25q-86 0 -140.5 17.5 t-89 60.5t-37 113.5t17.5 177.5zM428 876l56 -78l87 78h112l-150 -129h-122l-98 129h115z" />
<glyph unicode="&#x10d;" horiz-adv-x="470" d="M405 118l5 -106q-70 -26 -160 -26q-124 0 -175 61t-20 210q31 148 108 207.5t201 59.5q90 0 150 -24l-51 -106q-53 22 -113 22q-73 0 -109.5 -30.5t-57.5 -130.5q-21 -96 2.5 -128.5t95.5 -32.5q59 0 124 24zM204 697h117l54 -76l86 76h113l-150 -129h-122z" />
<glyph unicode="&#x10e;" horiz-adv-x="736" d="M186 697h266q69 0 117 -10t85 -34t52 -63.5t18 -98.5t-17 -140q-41 -196 -136 -273.5t-267 -77.5h-266zM566 350q13 63 15 103.5t-5 67t-30 39.5t-52.5 18t-79.5 5h-121l-99 -469h121q61 0 99 9t68 35.5t49 71.5t35 120zM407 876l56 -78l87 78h112l-150 -129h-122 l-98 129h115z" />
<glyph unicode="&#x10f;" d="M366 107l56 263q5 22 -20.5 35.5t-68.5 13.5q-66 0 -98 -34t-52 -128q-20 -104 -3 -134.5t85 -30.5q54 0 101 15zM621 722l-149 -699q-99 -37 -229 -37q-131 0 -176 58.5t-12 210.5q31 147 100 208t178 61q70 0 116 -29l48 227h124zM677 722h110l-98 -192h-73z" />
<glyph unicode="&#x110;" horiz-adv-x="736" d="M186 697h266q69 0 117 -10t85 -34t52 -63.5t18 -98.5t-17 -140q-41 -196 -136 -273.5t-267 -77.5h-266zM566 350q13 63 15 103.5t-5 67t-30 39.5t-52.5 18t-79.5 5h-121l-99 -469h121q61 0 99 9t68 35.5t49 71.5t35 120zM322 753l19 92h278l-19 -92h-278z" />
<glyph unicode="&#x111;" d="M377 577l19 89h89l12 56h124l-12 -56h49l-19 -89h-49l-118 -554q-99 -37 -229 -37q-131 0 -176 58.5t-12 210.5q31 147 100 208t178 61q70 0 116 -29l17 82h-89zM366 107l56 263q5 22 -20.5 35.5t-68.5 13.5q-66 0 -98 -34t-52 -128q-20 -104 -3 -134.5t85 -30.5 q54 0 101 15z" />
<glyph unicode="&#x112;" horiz-adv-x="620" d="M186 697h506l-25 -114h-374l-34 -161h267l-24 -113h-267l-41 -195h374l-24 -114h-506zM313 753l19 92h278l-19 -92h-278z" />
<glyph unicode="&#x113;" horiz-adv-x="552" d="M429 112l-1 -98q-89 -28 -183 -28q-119 0 -170 61.5t-20 209.5q31 146 103.5 206.5t190.5 60.5q64 0 102 -12.5t60 -46t20.5 -92.5t-24.5 -151h-329q-16 -78 8.5 -104.5t95.5 -26.5q74 0 147 21zM335 426q-59 0 -88 -23t-48 -86h214q11 66 -6 87.5t-72 21.5zM228 576 l19 90h278l-19 -90h-278z" />
<glyph unicode="&#x114;" horiz-adv-x="620" d="M186 697h506l-25 -114h-374l-34 -161h267l-24 -113h-267l-41 -195h374l-24 -114h-506zM337 871h85q-7 -34 5.5 -46t47.5 -12t54 12.5t26 45.5h80q-30 -137 -179 -137t-119 137z" />
<glyph unicode="&#x115;" horiz-adv-x="552" d="M429 112l-1 -98q-89 -28 -183 -28q-119 0 -170 61.5t-20 209.5q31 146 103.5 206.5t190.5 60.5q64 0 102 -12.5t60 -46t20.5 -92.5t-24.5 -151h-329q-16 -78 8.5 -104.5t95.5 -26.5q74 0 147 21zM335 426q-59 0 -88 -23t-48 -86h214q11 66 -6 87.5t-72 21.5zM239 697h85 q-7 -34 5.5 -46t47.5 -12t54 12.5t26 45.5h80q-30 -137 -179 -137t-119 137z" />
<glyph unicode="&#x116;" horiz-adv-x="620" d="M186 697h506l-25 -114h-374l-34 -161h267l-24 -113h-267l-41 -195h374l-24 -114h-506zM496 867q35 0 45 -10.5t3 -45.5q-8 -38 -23 -49.5t-50 -11.5t-44.5 11.5t-1.5 49.5q7 35 21.5 45.5t49.5 10.5z" />
<glyph unicode="&#x117;" horiz-adv-x="552" d="M429 112l-1 -98q-89 -28 -183 -28q-119 0 -170 61.5t-20 209.5q31 146 103.5 206.5t190.5 60.5q64 0 102 -12.5t60 -46t20.5 -92.5t-24.5 -151h-329q-16 -78 8.5 -104.5t95.5 -26.5q74 0 147 21zM335 426q-59 0 -88 -23t-48 -86h214q11 66 -6 87.5t-72 21.5zM385 681 q35 0 45.5 -10t3.5 -45q-9 -38 -24 -50t-50 -12t-44.5 11.5t-0.5 50.5q7 35 21 45t49 10z" />
<glyph unicode="&#x118;" horiz-adv-x="620" d="M186 697h506l-25 -114h-374l-34 -161h267l-24 -113h-267l-41 -195h374l-24 -114h-48q-44 -25 -61 -45t-23 -47q-5 -22 5.5 -31t45.5 -9q52 0 89 27l22 -63q-54 -35 -139 -35q-74 0 -98 21.5t-15 67.5q17 76 119 114h-403z" />
<glyph unicode="&#x119;" horiz-adv-x="552" d="M429 112l-1 -98q-20 -7 -46 -12q-46 -26 -64 -46.5t-23 -47.5q-5 -22 5.5 -31t45.5 -9q52 0 89 27l22 -63q-54 -35 -139 -35q-74 0 -98 21.5t-15 67.5q15 65 93 103q-28 -3 -53 -3q-119 0 -170 61.5t-20 209.5q31 146 103.5 206.5t190.5 60.5q64 0 102 -12.5t60 -46 t20.5 -92.5t-24.5 -151h-329q-16 -78 8.5 -104.5t95.5 -26.5q74 0 147 21zM335 426q-59 0 -88 -23t-48 -86h214q11 66 -6 87.5t-72 21.5z" />
<glyph unicode="&#x11a;" horiz-adv-x="620" d="M186 697h506l-25 -114h-374l-34 -161h267l-24 -113h-267l-41 -195h374l-24 -114h-506zM416 876l56 -78l87 78h112l-150 -129h-122l-98 129h115z" />
<glyph unicode="&#x11b;" horiz-adv-x="552" d="M429 112l-1 -98q-89 -28 -183 -28q-119 0 -170 61.5t-20 209.5q31 146 103.5 206.5t190.5 60.5q64 0 102 -12.5t60 -46t20.5 -92.5t-24.5 -151h-329q-16 -78 8.5 -104.5t95.5 -26.5q74 0 147 21zM335 426q-59 0 -88 -23t-48 -86h214q11 66 -6 87.5t-72 21.5zM203 697h117 l54 -76l86 76h113l-150 -129h-122z" />
<glyph unicode="&#x11c;" horiz-adv-x="700" d="M467 116l38 180h-152l24 111h287l-83 -391q-102 -30 -254 -30q-86 0 -140.5 17.5t-89 60.5t-37 113.5t17.5 177.5q23 106 59 176.5t90.5 110.5t119 56t153.5 16q117 0 205 -26l-52 -115q-24 9 -76.5 15t-91.5 6q-65 0 -103 -7.5t-71.5 -32.5t-54 -72.5t-37.5 -127.5 q-14 -65 -15.5 -108.5t6.5 -71.5t31.5 -42.5t54 -20t79.5 -5.5q48 0 92 10zM561 747l-55 78l-87 -78h-112l150 129h122l98 -129h-116z" />
<glyph unicode="&#x11d;" d="M374 143l56 262q-42 17 -95 17q-69 0 -100 -31.5t-53 -136.5q-19 -95 -2 -127t83 -32q43 0 74.5 13t36.5 35zM348 21q-62 -33 -136 -33q-111 0 -150.5 58t-7.5 207q32 152 102.5 211.5t200.5 59.5q131 0 214 -38l-95 -447q-30 -139 -110 -191t-214 -52q-101 0 -172 30 l46 100q73 -25 147 -25q75 0 118 26.5t57 93.5zM557 568h-117l-55 76l-85 -76h-113l150 129h122z" />
<glyph unicode="&#x11e;" horiz-adv-x="700" d="M467 116l38 180h-152l24 111h287l-83 -391q-102 -30 -254 -30q-86 0 -140.5 17.5t-89 60.5t-37 113.5t17.5 177.5q23 106 59 176.5t90.5 110.5t119 56t153.5 16q117 0 205 -26l-52 -115q-24 9 -76.5 15t-91.5 6q-65 0 -103 -7.5t-71.5 -32.5t-54 -72.5t-37.5 -127.5 q-14 -65 -15.5 -108.5t6.5 -71.5t31.5 -42.5t54 -20t79.5 -5.5q48 0 92 10zM366 871h85q-7 -34 5.5 -46t47.5 -12t54 12.5t26 45.5h80q-30 -137 -179 -137t-119 137z" />
<glyph unicode="&#x11f;" d="M374 143l56 262q-42 17 -95 17q-69 0 -100 -31.5t-53 -136.5q-19 -95 -2 -127t83 -32q43 0 74.5 13t36.5 35zM348 21q-62 -33 -136 -33q-111 0 -150.5 58t-7.5 207q32 152 102.5 211.5t200.5 59.5q131 0 214 -38l-95 -447q-30 -139 -110 -191t-214 -52q-101 0 -172 30 l46 100q73 -25 147 -25q75 0 118 26.5t57 93.5zM249 697h85q-7 -34 5.5 -46t47.5 -12t54 12.5t26 45.5h80q-30 -137 -179 -137t-119 137z" />
<glyph unicode="&#x120;" horiz-adv-x="700" d="M467 116l38 180h-152l24 111h287l-83 -391q-102 -30 -254 -30q-86 0 -140.5 17.5t-89 60.5t-37 113.5t17.5 177.5q23 106 59 176.5t90.5 110.5t119 56t153.5 16q117 0 205 -26l-52 -115q-24 9 -76.5 15t-91.5 6q-65 0 -103 -7.5t-71.5 -32.5t-54 -72.5t-37.5 -127.5 q-14 -65 -15.5 -108.5t6.5 -71.5t31.5 -42.5t54 -20t79.5 -5.5q48 0 92 10zM525 867q35 0 45 -10.5t3 -45.5q-8 -38 -23 -49.5t-50 -11.5t-44.5 11.5t-1.5 49.5q7 35 21.5 45.5t49.5 10.5z" />
<glyph unicode="&#x121;" d="M374 143l56 262q-42 17 -95 17q-69 0 -100 -31.5t-53 -136.5q-19 -95 -2 -127t83 -32q43 0 74.5 13t36.5 35zM348 21q-62 -33 -136 -33q-111 0 -150.5 58t-7.5 207q32 152 102.5 211.5t200.5 59.5q131 0 214 -38l-95 -447q-30 -139 -110 -191t-214 -52q-101 0 -172 30 l46 100q73 -25 147 -25q75 0 118 26.5t57 93.5zM388 681q35 0 45.5 -10t3.5 -45q-9 -38 -24 -50t-50 -12t-44.5 11.5t-0.5 50.5q7 35 21 45t49 10z" />
<glyph unicode="&#x122;" horiz-adv-x="700" d="M467 116l38 180h-152l24 111h287l-83 -391q-87 -25 -227 -29l-6 -29q60 0 81.5 -17t11.5 -61q-10 -47 -44.5 -65t-110.5 -18q-62 0 -94 16l33 54q22 -12 69 -12q23 0 33 5.5t13 20.5q4 19 -14.5 24t-73.5 2l48 80q-156 5 -210 87.5t-12 280.5q23 106 59 176.5t90.5 110.5 t119 56t153.5 16q117 0 205 -26l-52 -115q-24 9 -76.5 15t-91.5 6q-65 0 -103 -7.5t-71.5 -32.5t-54 -72.5t-37.5 -127.5q-14 -65 -15.5 -108.5t6.5 -71.5t31.5 -42.5t54 -20t79.5 -5.5q48 0 92 10z" />
<glyph unicode="&#x123;" d="M374 143l56 262q-42 17 -95 17q-69 0 -100 -31.5t-53 -136.5q-19 -95 -2 -127t83 -32q43 0 74.5 13t36.5 35zM348 21q-62 -33 -136 -33q-111 0 -150.5 58t-7.5 207q32 152 102.5 211.5t200.5 59.5q131 0 214 -38l-95 -447q-30 -139 -110 -191t-214 -52q-101 0 -172 30 l46 100q73 -25 147 -25q75 0 118 26.5t57 93.5zM536 751l-144 -167h-97l107 167h134z" />
<glyph unicode="&#x124;" horiz-adv-x="736" d="M235 309l-65 -309h-132l148 697h132l-57 -266h298l57 266h130l-148 -697h-130l65 309h-298zM542 747l-55 78l-87 -78h-112l150 129h122l98 -129h-116z" />
<glyph unicode="&#x125;" horiz-adv-x="583" d="M394 524q48 0 77 -9.5t50 -35t20.5 -70.5t-12.5 -116l-62 -293h-124l60 283q14 66 -1.5 97.5t-73.5 31.5q-41 0 -72 -12t-35 -33l-78 -367h-124l153 722h124l-50 -233q76 35 148 35zM382 747l-55 78l-87 -78h-112l150 129h122l98 -129h-116z" />
<glyph unicode="&#x126;" horiz-adv-x="736" d="M89 520l22 105h59l16 72h132l-16 -72h298l16 72h130l-16 -72h60l-22 -105h-60l-110 -520h-130l65 309h-298l-65 -309h-132l110 520h-59zM261 431h298l19 89h-298z" />
<glyph unicode="&#x127;" horiz-adv-x="583" d="M91 581l18 87h51l12 54h124l-12 -54h103l-18 -87h-103l-20 -92q76 35 148 35q48 0 77 -9.5t50 -35t20.5 -70.5t-12.5 -116l-62 -293h-124l60 283q16 77 -2.5 103t-72.5 26q-41 0 -72 -12t-35 -33l-78 -367h-124l123 581h-51z" />
<glyph unicode="&#x128;" horiz-adv-x="308" d="M186 697h132l-148 -697h-132zM414 879l51 -50q-24 -41 -61 -67t-79 -26q-31 0 -70.5 27t-61.5 27q-31 0 -61 -50l-45 55q62 79 124 79q37 0 77 -26t60 -26q34 0 66 57z" />
<glyph unicode="&#x129;" horiz-adv-x="262" d="M251 509l-108 -509h-124l108 509h124zM351 702l51 -50q-52 -93 -137 -93q-31 0 -68.5 26.5t-60.5 26.5q-32 0 -63 -51l-45 55q64 81 127 81q37 0 73 -26.5t57 -26.5q18 0 32.5 12.5t33.5 45.5z" />
<glyph unicode="&#x12a;" horiz-adv-x="308" d="M186 697h132l-148 -697h-132zM126 753l19 92h278l-19 -92h-278z" />
<glyph unicode="&#x12b;" horiz-adv-x="262" d="M251 509l-108 -509h-124l108 509h124zM65 576l19 90h278l-19 -90h-278z" />
<glyph unicode="&#x12c;" horiz-adv-x="308" d="M186 697h132l-148 -697h-132zM142 871h85q-7 -34 5.5 -46t47.5 -12t54 12.5t26 45.5h80q-30 -137 -179 -137t-119 137z" />
<glyph unicode="&#x12d;" horiz-adv-x="262" d="M251 509l-108 -509h-124l108 509h124zM81 697h85q-7 -34 5.5 -46t47.5 -12t54 12.5t26 45.5h80q-30 -137 -179 -137t-119 137z" />
<glyph unicode="&#x12e;" horiz-adv-x="308" d="M186 697h132l-148 -697h-48q-44 -25 -61 -45t-23 -47q-5 -22 5.5 -31t45.5 -9q52 0 89 27l22 -63q-54 -35 -139 -35q-74 0 -98 21.5t-15 67.5q18 77 119 114h-29z" />
<glyph unicode="&#x12f;" horiz-adv-x="262" d="M251 509l-108 -509h-35q-44 -25 -61 -45t-23 -47q-5 -22 5.5 -31t45.5 -9q52 0 89 27l22 -63q-54 -35 -139 -35q-74 0 -98 21.5t-15 67.5q18 77 119 114h-34l108 509h124zM235 721q42 0 54 -11.5t4 -49.5q-9 -43 -26.5 -56t-59.5 -13q-43 0 -54.5 13t-2.5 56 q8 38 25 49.5t60 11.5z" />
<glyph unicode="&#x130;" horiz-adv-x="308" d="M186 697h132l-148 -697h-132zM288 867q35 0 45 -10.5t3 -45.5q-8 -38 -23 -49.5t-50 -11.5t-44.5 11.5t-1.5 49.5q7 35 21.5 45.5t49.5 10.5z" />
<glyph unicode="&#x131;" horiz-adv-x="262" d="M251 509l-108 -509h-124l108 509h124z" />
<glyph unicode="&#x132;" horiz-adv-x="768" d="M186 697h132l-148 -697h-132zM780 697l-108 -505q-43 -206 -254 -206q-86 0 -153 27l51 118q48 -21 115 -21q91 0 112 99l104 488h133z" />
<glyph unicode="&#x133;" horiz-adv-x="524" d="M251 509l-108 -509h-124l108 509h124zM235 721q42 0 54 -11.5t4 -49.5q-9 -43 -26.5 -56t-59.5 -13q-43 0 -54.5 13t-2.5 56q8 38 25 49.5t60 11.5zM152 -203l22 103q44 0 68.5 18.5t33.5 67.5l112 523h124l-111 -520q-23 -109 -81.5 -150.5t-167.5 -41.5zM496 721 q42 0 54 -11.5t4 -49.5q-9 -43 -26.5 -56t-59.5 -13q-43 0 -54.5 13t-2.5 56q8 38 25 49.5t60 11.5z" />
<glyph unicode="&#x134;" horiz-adv-x="461" d="M473 697l-107 -505q-43 -206 -255 -206q-84 0 -153 27l51 118q50 -21 115 -21q91 0 112 99l104 488h133zM484 747l-55 78l-87 -78h-112l150 129h122l98 -129h-116z" />
<glyph unicode="&#x135;" horiz-adv-x="262" d="M386 568h-117l-55 76l-85 -76h-113l150 129h122zM-109 -203l22 103q44 0 68.5 18.5t33.5 67.5l112 523h124l-111 -520q-23 -109 -81.5 -150.5t-167.5 -41.5z" />
<glyph unicode="&#x136;" horiz-adv-x="662" d="M318 697l-148 -697h-132l148 697h132zM625 0h-162q-63 159 -123 256.5t-91 111.5q42 27 136.5 115.5t205.5 213.5h160q-114 -123 -204 -208.5t-127 -111.5q28 -23 86.5 -122.5t118.5 -254.5zM357 -51l-144 -167h-97l107 167h134z" />
<glyph unicode="&#x137;" horiz-adv-x="551" d="M502 0h-146q-121 252 -156 269l-57 -269h-124l153 722h124l-96 -453q56 39 248 240h147q-177 -186 -244 -231q18 -13 59 -86t92 -192zM303 -51l-144 -167h-97l107 167h134z" />
<glyph unicode="&#x139;" horiz-adv-x="551" d="M186 697h132l-124 -582h329l-24 -115h-461zM315 747h-108l157 129h137z" />
<glyph unicode="&#x13a;" horiz-adv-x="268" d="M296 722l-123 -579q-15 -68 13 -120l-119 -47q-41 62 -19 162l124 584h124zM274 747h-108l157 129h137z" />
<glyph unicode="&#x13b;" horiz-adv-x="551" d="M186 697h132l-124 -582h329l-24 -115h-461zM334 -51l-144 -167h-97l107 167h134z" />
<glyph unicode="&#x13c;" horiz-adv-x="268" d="M296 722l-123 -579q-15 -68 13 -120l-119 -47q-41 62 -19 162l124 584h124zM181 -51l-144 -167h-97l107 167h134z" />
<glyph unicode="&#x13d;" horiz-adv-x="551" d="M186 697h132l-124 -582h329l-24 -115h-461zM420 722h110l-98 -192h-73z" />
<glyph unicode="&#x13e;" horiz-adv-x="268" d="M296 722l-123 -579q-15 -68 13 -120l-119 -47q-41 62 -19 162l124 584h124zM359 722h110l-98 -192h-73z" />
<glyph unicode="&#x13f;" horiz-adv-x="551" d="M186 697h132l-124 -582h329l-24 -115h-461zM402 463q35 0 45 -10.5t3 -45.5q-8 -38 -23 -49.5t-50 -11.5t-44.5 11.5t-1.5 49.5q7 35 21.5 45.5t49.5 10.5z" />
<glyph unicode="&#x140;" horiz-adv-x="268" d="M296 722l-123 -579q-15 -68 13 -120l-119 -47q-41 62 -19 162l124 584h124zM333 450q35 0 45.5 -10t3.5 -45q-9 -38 -24 -50t-50 -12t-44.5 11.5t-0.5 50.5q7 35 21 45t49 10z" />
<glyph unicode="&#x141;" horiz-adv-x="551" d="M444 557l-26 -124l-185 -135l-39 -183h329l-24 -115h-461l40 189l-80 -58l26 123l80 58l82 385h132l-59 -276z" />
<glyph unicode="&#x142;" horiz-adv-x="268" d="M296 722l-48 -228l84 75l-26 -124l-85 -75l-48 -227q-3 -12 -3 -24q-8 -54 16 -96q-15 -6 -55.5 -22t-62.5 -24q-37 51 -24 135q6 38 11 58l14 67q-13 -11 -39.5 -34t-39.5 -35l26 123q13 11 39.5 34t39.5 35l77 362h124z" />
<glyph unicode="&#x143;" horiz-adv-x="774" d="M783 697l-148 -697h-161q-91 272 -196 525l-111 -525h-129l148 697h173q100 -238 186 -503l107 503h131zM514 747h-108l157 129h137z" />
<glyph unicode="&#x144;" horiz-adv-x="583" d="M228 400l-85 -400h-124l102 480q123 44 250 44q110 0 147.5 -53t8.5 -187l-60 -284h-124l57 271q18 85 2.5 113t-81.5 28q-47 0 -93 -12zM361 568h-109l149 129h133z" />
<glyph unicode="&#x145;" horiz-adv-x="774" d="M783 697l-148 -697h-161q-91 272 -196 525l-111 -525h-129l148 697h173q100 -238 186 -503l107 503h131zM399 -51l-144 -167h-97l107 167h134z" />
<glyph unicode="&#x146;" horiz-adv-x="583" d="M228 400l-85 -400h-124l102 480q123 44 250 44q110 0 147.5 -53t8.5 -187l-60 -284h-124l57 271q18 85 2.5 113t-81.5 28q-47 0 -93 -12zM303 -51l-144 -167h-97l107 167h134z" />
<glyph unicode="&#x147;" horiz-adv-x="774" d="M783 697l-148 -697h-161q-91 272 -196 525l-111 -525h-129l148 697h173q100 -238 186 -503l107 503h131zM464 876l56 -78l87 78h112l-150 -129h-122l-98 129h115z" />
<glyph unicode="&#x148;" horiz-adv-x="583" d="M228 400l-85 -400h-124l102 480q123 44 250 44q110 0 147.5 -53t8.5 -187l-60 -284h-124l57 271q18 85 2.5 113t-81.5 28q-47 0 -93 -12zM202 697h117l54 -76l86 76h113l-150 -129h-122z" />
<glyph unicode="&#x14c;" horiz-adv-x="770" d="M486 714q57 0 100 -7t77.5 -23t55.5 -43t31.5 -67t8 -94.5t-17.5 -124.5q-23 -107 -58 -179t-87 -113.5t-115 -59t-149 -17.5q-69 0 -118 10.5t-85 36t-52.5 68t-16.5 105.5t18 149q22 105 57 175.5t87 110.5t114.5 56.5t149.5 16.5zM357 105q61 0 97 9t65 37t47 74.5 t35 127.5q14 65 17 106.5t-2.5 69.5t-26.5 42t-50 19t-78 5t-80 -5t-58 -19t-44.5 -42t-31.5 -69.5t-28 -106.5q-17 -81 -19.5 -127.5t14.5 -74.5t49.5 -37t93.5 -9zM356 753l19 92h278l-19 -92h-278z" />
<glyph unicode="&#x14d;" d="M240 -14q-127 0 -172 59.5t-13 211.5q32 150 102.5 208.5t196.5 58.5q128 0 173.5 -58t13.5 -209q-32 -152 -102.5 -211.5t-198.5 -59.5zM333 424q-68 0 -97.5 -31.5t-52.5 -137.5q-21 -106 -5 -137.5t83 -31.5q68 0 99 33t53 136q21 109 5 139t-85 30zM226 576l19 90 h278l-19 -90h-278z" />
<glyph unicode="&#x14e;" horiz-adv-x="770" d="M486 714q57 0 100 -7t77.5 -23t55.5 -43t31.5 -67t8 -94.5t-17.5 -124.5q-23 -107 -58 -179t-87 -113.5t-115 -59t-149 -17.5q-69 0 -118 10.5t-85 36t-52.5 68t-16.5 105.5t18 149q22 105 57 175.5t87 110.5t114.5 56.5t149.5 16.5zM357 105q61 0 97 9t65 37t47 74.5 t35 127.5q14 65 17 106.5t-2.5 69.5t-26.5 42t-50 19t-78 5t-80 -5t-58 -19t-44.5 -42t-31.5 -69.5t-28 -106.5q-17 -81 -19.5 -127.5t14.5 -74.5t49.5 -37t93.5 -9zM371 871h85q-7 -34 5.5 -46t47.5 -12t54 12.5t26 45.5h80q-30 -137 -179 -137t-119 137z" />
<glyph unicode="&#x14f;" d="M240 -14q-127 0 -172 59.5t-13 211.5q32 150 102.5 208.5t196.5 58.5q128 0 173.5 -58t13.5 -209q-32 -152 -102.5 -211.5t-198.5 -59.5zM333 424q-68 0 -97.5 -31.5t-52.5 -137.5q-21 -106 -5 -137.5t83 -31.5q68 0 99 33t53 136q21 109 5 139t-85 30zM242 697h85 q-7 -34 5.5 -46t47.5 -12t54 12.5t26 45.5h80q-30 -137 -179 -137t-119 137z" />
<glyph unicode="&#x150;" horiz-adv-x="770" d="M486 714q57 0 100 -7t77.5 -23t55.5 -43t31.5 -67t8 -94.5t-17.5 -124.5q-23 -107 -58 -179t-87 -113.5t-115 -59t-149 -17.5q-69 0 -118 10.5t-85 36t-52.5 68t-16.5 105.5t18 149q22 105 57 175.5t87 110.5t114.5 56.5t149.5 16.5zM357 105q61 0 97 9t65 37t47 74.5 t35 127.5q14 65 17 106.5t-2.5 69.5t-26.5 42t-50 19t-78 5t-80 -5t-58 -19t-44.5 -42t-31.5 -69.5t-28 -106.5q-17 -81 -19.5 -127.5t14.5 -74.5t49.5 -37t93.5 -9zM418 747h-85l119 129h109zM583 747h-86l119 129h109z" />
<glyph unicode="&#x151;" d="M240 -14q-127 0 -172 59.5t-13 211.5q32 150 102.5 208.5t196.5 58.5q128 0 173.5 -58t13.5 -209q-32 -152 -102.5 -211.5t-198.5 -59.5zM333 424q-68 0 -97.5 -31.5t-52.5 -137.5q-21 -106 -5 -137.5t83 -31.5q68 0 99 33t53 136q21 109 5 139t-85 30zM291 568h-85 l119 129h109zM456 568h-86l119 129h109z" />
<glyph unicode="&#x152;" horiz-adv-x="1098" d="M630 697h540l-25 -114h-403q26 -54 11 -161h206l-24 -112h-206q-31 -133 -91 -196h408l-24 -114h-554q-57 -14 -136 -14q-69 0 -118 10.5t-85 36t-52.5 68t-16.5 105.5t18 149q22 105 57 175.5t87 110.5t114.5 56.5t149.5 16.5t144 -17zM357 105q61 0 97 9t65 37t47 74.5 t35 127.5q14 65 17 106.5t-2.5 69.5t-26.5 42t-50 19t-78 5t-80 -5t-58 -19t-44.5 -42t-31.5 -69.5t-28 -106.5q-17 -81 -19.5 -127.5t14.5 -74.5t49.5 -37t93.5 -9z" />
<glyph unicode="&#x153;" horiz-adv-x="907" d="M783 112v-98q-91 -28 -184 -28q-127 0 -164 69q-62 -69 -195 -69q-127 0 -172 59.5t-13 211.5q32 150 102.5 208.5t196.5 58.5q130 0 165 -65q65 65 184 65q64 0 102 -12.5t60 -45.5t20.5 -92.5t-24.5 -151.5h-329q-15 -78 9.5 -104.5t94.5 -26.5q75 0 147 21zM333 424 q-68 0 -97.5 -31.5t-52.5 -137.5q-21 -106 -5 -137.5t83 -31.5q68 0 99 33t53 136q21 109 5 139t-85 30zM690 426q-58 0 -87.5 -22.5t-49.5 -86.5h214q12 66 -5 87.5t-72 21.5z" />
<glyph unicode="&#x154;" horiz-adv-x="706" d="M294 585l-45 -210h197q80 0 103 102q22 108 -55 108h-200zM476 303q33 -13 71.5 -81.5t97.5 -221.5h-163q-51 141 -90 203.5t-73 62.5h-93l-56 -266h-132l148 697h363q193 0 151 -203q-41 -184 -224 -191zM451 747h-108l157 129h137z" />
<glyph unicode="&#x155;" horiz-adv-x="379" d="M19 0l108 509h124l-8 -38q45 53 141 53q26 0 51 -3l-25 -118q-30 7 -63 7q-49 0 -86.5 -15t-42.5 -42l-75 -353h-124zM325 568h-109l149 129h133z" />
<glyph unicode="&#x156;" horiz-adv-x="706" d="M294 585l-45 -210h197q80 0 103 102q22 108 -55 108h-200zM476 303q33 -13 71.5 -81.5t97.5 -221.5h-163q-51 141 -90 203.5t-73 62.5h-93l-56 -266h-132l148 697h363q193 0 151 -203q-41 -184 -224 -191zM376 -51l-144 -167h-97l107 167h134z" />
<glyph unicode="&#x157;" horiz-adv-x="379" d="M19 0l108 509h124l-8 -38q45 53 141 53q26 0 51 -3l-25 -118q-30 7 -63 7q-49 0 -86.5 -15t-42.5 -42l-75 -353h-124zM163 -51l-144 -167h-97l107 167h134z" />
<glyph unicode="&#x158;" horiz-adv-x="706" d="M294 585l-45 -210h197q80 0 103 102q22 108 -55 108h-200zM476 303q33 -13 71.5 -81.5t97.5 -221.5h-163q-51 141 -90 203.5t-73 62.5h-93l-56 -266h-132l148 697h363q193 0 151 -203q-41 -184 -224 -191zM411 876l56 -78l87 78h112l-150 -129h-122l-98 129h115z" />
<glyph unicode="&#x159;" horiz-adv-x="379" d="M19 0l108 509h124l-8 -38q45 53 141 53q26 0 51 -3l-25 -118q-30 7 -63 7q-49 0 -86.5 -15t-42.5 -42l-75 -353h-124zM143 697h117l54 -76l86 76h113l-150 -129h-122z" />
<glyph unicode="&#x15a;" horiz-adv-x="622" d="M654 683l-54 -114q-64 25 -178 25q-84 0 -125 -20.5t-52 -70.5q-9 -42 17.5 -61t116.5 -28q120 -13 165.5 -62t24.5 -147q-26 -120 -108.5 -169.5t-238.5 -49.5q-126 0 -211 31l53 114q73 -25 181 -25q86 0 127.5 20t53.5 72q9 43 -18.5 66t-120.5 31q-117 12 -161 55 t-24 137q26 120 110.5 173.5t234.5 53.5q119 0 207 -31zM429 747h-108l157 129h137z" />
<glyph unicode="&#x15b;" horiz-adv-x="491" d="M489 496l-48 -97q-68 24 -143 24q-51 0 -73.5 -11t-30.5 -48q-6 -26 13 -37.5t80 -17.5q92 -10 126 -44t19 -109q-20 -94 -84 -132t-170 -38t-177 27l47 98q63 -24 146 -24q55 0 80 12t33 50q6 28 -13.5 41.5t-82.5 19.5q-88 7 -122.5 38.5t-18.5 106.5q20 93 84.5 131 t169.5 38q88 0 165 -28zM327 568h-109l149 129h133z" />
<glyph unicode="&#x15c;" horiz-adv-x="622" d="M654 683l-54 -114q-64 25 -178 25q-84 0 -125 -20.5t-52 -70.5q-9 -42 17.5 -61t116.5 -28q120 -13 165.5 -62t24.5 -147q-26 -120 -108.5 -169.5t-238.5 -49.5q-126 0 -211 31l53 114q73 -25 181 -25q86 0 127.5 20t53.5 72q9 43 -18.5 66t-120.5 31q-117 12 -161 55 t-24 137q26 120 110.5 173.5t234.5 53.5q119 0 207 -31zM506 747l-55 78l-87 -78h-112l150 129h122l98 -129h-116z" />
<glyph unicode="&#x15d;" horiz-adv-x="491" d="M489 496l-48 -97q-68 24 -143 24q-51 0 -73.5 -11t-30.5 -48q-6 -26 13 -37.5t80 -17.5q92 -10 126 -44t19 -109q-20 -94 -84 -132t-170 -38t-177 27l47 98q63 -24 146 -24q55 0 80 12t33 50q6 28 -13.5 41.5t-82.5 19.5q-88 7 -122.5 38.5t-18.5 106.5q20 93 84.5 131 t169.5 38q88 0 165 -28zM513 568h-117l-55 76l-85 -76h-113l150 129h122z" />
<glyph unicode="&#x15e;" horiz-adv-x="622" d="M654 683l-54 -114q-64 25 -178 25q-84 0 -125 -20.5t-52 -70.5q-9 -42 17.5 -61t116.5 -28q120 -13 165.5 -62t24.5 -147q-23 -109 -93.5 -159t-199.5 -58l-6 -30q60 0 81.5 -17t11.5 -61q-10 -47 -44.5 -65t-110.5 -18q-62 0 -94 16l33 54q23 -12 69 -12q23 0 33 5.5 t13 20.5q4 19 -14.5 24t-73.5 2l47 79q-125 0 -210 31l53 114q73 -25 181 -25q86 0 127.5 20t53.5 72q9 43 -18.5 66t-120.5 31q-117 12 -161 55t-24 137q26 120 110.5 173.5t234.5 53.5q119 0 207 -31z" />
<glyph unicode="&#x15f;" horiz-adv-x="491" d="M489 496l-48 -97q-68 24 -143 24q-51 0 -73.5 -11t-30.5 -48q-6 -26 13 -37.5t80 -17.5q92 -10 126 -44t19 -109q-18 -87 -75 -125.5t-149 -43.5l-6 -29q60 0 81.5 -17t11.5 -61q-10 -47 -44.5 -65t-110.5 -18q-62 0 -94 16l33 54q22 -12 69 -12q23 0 33 5.5t13 20.5 q4 19 -14.5 24t-73.5 2l48 80q-92 4 -153 26l47 98q63 -24 146 -24q55 0 80 12t33 50q6 28 -13.5 41.5t-82.5 19.5q-88 7 -122.5 38.5t-18.5 106.5q20 93 84.5 131t169.5 38q88 0 165 -28z" />
<glyph unicode="&#x160;" horiz-adv-x="622" d="M654 683l-54 -114q-64 25 -178 25q-84 0 -125 -20.5t-52 -70.5q-9 -42 17.5 -61t116.5 -28q120 -13 165.5 -62t24.5 -147q-26 -120 -108.5 -169.5t-238.5 -49.5q-126 0 -211 31l53 114q73 -25 181 -25q86 0 127.5 20t53.5 72q9 43 -18.5 66t-120.5 31q-117 12 -161 55 t-24 137q26 120 110.5 173.5t234.5 53.5q119 0 207 -31zM386 876l56 -78l87 78h112l-150 -129h-122l-98 129h115z" />
<glyph unicode="&#x161;" horiz-adv-x="491" d="M489 496l-48 -97q-68 24 -143 24q-51 0 -73.5 -11t-30.5 -48q-6 -26 13 -37.5t80 -17.5q92 -10 126 -44t19 -109q-20 -94 -84 -132t-170 -38t-177 27l47 98q63 -24 146 -24q55 0 80 12t33 50q6 28 -13.5 41.5t-82.5 19.5q-88 7 -122.5 38.5t-18.5 106.5q20 93 84.5 131 t169.5 38q88 0 165 -28zM164 697h117l54 -76l86 76h113l-150 -129h-122z" />
<glyph unicode="&#x162;" horiz-adv-x="609" d="M321 0h-133l123 583h-235l25 114h603l-25 -114h-235zM336 -51l-144 -167h-97l107 167h134z" />
<glyph unicode="&#x163;" horiz-adv-x="415" d="M423 401h-169l-47 -219q-10 -49 2 -69t56 -20q45 0 90 14l1 -98q-67 -23 -144 -23q-91 0 -122.5 38.5t-8.5 146.5l49 230h-85l23 108h85l18 86l135 51l-29 -137h169zM240 -51l-144 -167h-97l107 167h134z" />
<glyph unicode="&#x164;" horiz-adv-x="609" d="M321 0h-133l123 583h-235l25 114h603l-25 -114h-235zM374 876l56 -78l87 78h112l-150 -129h-122l-98 129h115z" />
<glyph unicode="&#x165;" horiz-adv-x="415" d="M423 401h-169l-47 -219q-10 -49 2 -69t56 -20q45 0 90 14l1 -98q-67 -23 -144 -23q-91 0 -122.5 38.5t-8.5 146.5l49 230h-85l23 108h85l18 86l135 51l-29 -137h169zM424 770h110l-98 -192h-73z" />
<glyph unicode="&#x166;" horiz-adv-x="609" d="M160 235l20 92h77l54 254h-235l25 116h603l-25 -116h-235l-54 -254h69l-20 -92h-69l-49 -235h-133l49 235h-77z" />
<glyph unicode="&#x167;" horiz-adv-x="415" d="M34 217l17 82h57l22 103h-85l23 107h85l18 86l135 51l-29 -137h169l-23 -107h-169l-22 -103h97l-17 -82h-97l-8 -35q-10 -48 3 -68.5t57 -20.5q43 0 88 14l1 -98q-67 -23 -143 -23q-90 0 -122.5 38.5t-9.5 146.5l10 46h-57z" />
<glyph unicode="&#x168;" horiz-adv-x="742" d="M761 697l-103 -486q-28 -129 -110 -177t-230 -48q-48 0 -84 4t-69 13.5t-53 26t-34 41.5t-13.5 59.5t7.5 80.5l104 486h133l-99 -466q-15 -70 14.5 -97t118.5 -27q88 0 130.5 26.5t57.5 97.5l99 466h131zM632 879l51 -50q-24 -41 -61 -67t-79 -26q-31 0 -70.5 27 t-61.5 27q-31 0 -61 -50l-45 55q62 79 124 79q37 0 77 -26t60 -26q34 0 66 57z" />
<glyph unicode="&#x169;" horiz-adv-x="583" d="M363 110l85 399h124l-102 -480q-125 -44 -251 -44q-110 0 -147.5 53t-8.5 187l61 284h124l-58 -271q-18 -85 -2.5 -113t80.5 -28q49 0 95 13zM512 702l51 -50q-52 -93 -137 -93q-31 0 -68.5 26.5t-60.5 26.5q-32 0 -63 -51l-45 55q64 81 127 81q37 0 73 -26.5t57 -26.5 q18 0 32.5 12.5t33.5 45.5z" />
<glyph unicode="&#x16a;" horiz-adv-x="742" d="M761 697l-103 -486q-28 -129 -110 -177t-230 -48q-48 0 -84 4t-69 13.5t-53 26t-34 41.5t-13.5 59.5t7.5 80.5l104 486h133l-99 -466q-15 -70 14.5 -97t118.5 -27q88 0 130.5 26.5t57.5 97.5l99 466h131zM339 753l19 92h278l-19 -92h-278z" />
<glyph unicode="&#x16b;" horiz-adv-x="583" d="M363 110l85 399h124l-102 -480q-125 -44 -251 -44q-110 0 -147.5 53t-8.5 187l61 284h124l-58 -271q-18 -85 -2.5 -113t80.5 -28q49 0 95 13zM221 576l19 90h278l-19 -90h-278z" />
<glyph unicode="&#x16c;" horiz-adv-x="742" d="M761 697l-103 -486q-28 -129 -110 -177t-230 -48q-48 0 -84 4t-69 13.5t-53 26t-34 41.5t-13.5 59.5t7.5 80.5l104 486h133l-99 -466q-15 -70 14.5 -97t118.5 -27q88 0 130.5 26.5t57.5 97.5l99 466h131zM357 871h85q-7 -34 5.5 -46t47.5 -12t54 12.5t26 45.5h80 q-30 -137 -179 -137t-119 137z" />
<glyph unicode="&#x16d;" horiz-adv-x="583" d="M363 110l85 399h124l-102 -480q-125 -44 -251 -44q-110 0 -147.5 53t-8.5 187l61 284h124l-58 -271q-18 -85 -2.5 -113t80.5 -28q49 0 95 13zM238 697h85q-7 -34 5.5 -46t47.5 -12t54 12.5t26 45.5h80q-30 -137 -179 -137t-119 137z" />
<glyph unicode="&#x16e;" horiz-adv-x="742" d="M761 697l-103 -486q-28 -129 -110 -177t-230 -48q-48 0 -84 4t-69 13.5t-53 26t-34 41.5t-13.5 59.5t7.5 80.5l104 486h133l-99 -466q-15 -70 14.5 -97t118.5 -27q88 0 130.5 26.5t57.5 97.5l99 466h131zM508 890q61 0 85 -22.5t13 -75.5t-44.5 -75.5t-95.5 -22.5 t-86 22.5t-13 75.5t44 75.5t97 22.5zM496 834q-29 0 -41.5 -10t-17.5 -33q-6 -23 2.5 -33t37.5 -10t41.5 10t18.5 33q5 24 -3 33.5t-38 9.5z" />
<glyph unicode="&#x16f;" horiz-adv-x="583" d="M363 110l85 399h124l-102 -480q-125 -44 -251 -44q-110 0 -147.5 53t-8.5 187l61 284h124l-58 -271q-18 -85 -2.5 -113t80.5 -28q49 0 95 13zM400 741q61 0 85 -22.5t13 -75.5t-44.5 -75.5t-95.5 -22.5t-86 22.5t-13 75.5t44 75.5t97 22.5zM388 684q-30 0 -42 -9.5 t-17 -33.5q-5 -23 3.5 -33t37.5 -10t41.5 10t17.5 33q5 24 -3 33.5t-38 9.5z" />
<glyph unicode="&#x170;" horiz-adv-x="742" d="M761 697l-103 -486q-28 -129 -110 -177t-230 -48q-48 0 -84 4t-69 13.5t-53 26t-34 41.5t-13.5 59.5t7.5 80.5l104 486h133l-99 -466q-15 -70 14.5 -97t118.5 -27q88 0 130.5 26.5t57.5 97.5l99 466h131zM403 747h-85l119 129h109zM568 747h-86l119 129h109z" />
<glyph unicode="&#x171;" horiz-adv-x="583" d="M363 110l85 399h124l-102 -480q-125 -44 -251 -44q-110 0 -147.5 53t-8.5 187l61 284h124l-58 -271q-18 -85 -2.5 -113t80.5 -28q49 0 95 13zM283 568h-85l119 129h109zM448 568h-86l119 129h109z" />
<glyph unicode="&#x172;" horiz-adv-x="742" d="M761 697l-103 -486q-25 -117 -94.5 -166.5t-190.5 -56.5q-32 -21 -45 -38.5t-18 -41.5q-5 -22 5.5 -31t45.5 -9q52 0 89 27l22 -63q-54 -35 -139 -35q-74 0 -98 21.5t-15 67.5q13 61 87 100q-55 1 -95 7t-74 21t-50 40.5t-23 64t7 92.5l104 486h133l-99 -466 q-15 -70 14.5 -97t118.5 -27q88 0 130.5 26.5t57.5 97.5l99 466h131z" />
<glyph unicode="&#x173;" horiz-adv-x="583" d="M363 110l85 399h124l-102 -480q-41 -14 -77 -22q-51 -28 -71 -49t-25 -50q-5 -22 5.5 -31t45.5 -9q52 0 89 27l22 -63q-54 -35 -139 -35q-74 0 -98 21.5t-15 67.5q15 67 97 105q-45 -6 -85 -6q-110 0 -147.5 53t-8.5 187l61 284h124l-58 -271q-18 -85 -2.5 -113t80.5 -28 q49 0 95 13z" />
<glyph unicode="&#x174;" horiz-adv-x="975" d="M544 478q-76 -181 -229 -478h-167q-19 459 -52 697h144q30 -252 36 -533q171 330 254 533h122q25 -377 23 -533q136 256 259 533h136q-171 -370 -350 -697h-168q5 213 -8 478zM670 747l-55 78l-87 -78h-112l150 129h122l98 -129h-116z" />
<glyph unicode="&#x175;" horiz-adv-x="830" d="M437 341q-76 -172 -170 -341h-153q-20 292 -56 509h131q28 -172 34 -382q103 184 192 382h121q21 -173 21 -382q130 227 200 382h126q-129 -262 -282 -509h-154q2 204 -10 341zM672 568h-117l-55 76l-85 -76h-113l150 129h122z" />
<glyph unicode="&#x176;" horiz-adv-x="638" d="M232 697q67 -116 137 -266q139 145 241 266h160q-185 -209 -366 -396l-63 -301h-132l63 300q-126 255 -212 397h172zM504 747l-55 78l-87 -78h-112l150 129h122l98 -129h-116z" />
<glyph unicode="&#x177;" horiz-adv-x="511" d="M124 -25q-18 288 -66 534h129q30 -162 44 -386q132 223 208 386h126q-123 -243 -306 -530q-58 -92 -115 -171h-138q44 58 118 167zM512 568h-117l-55 76l-85 -76h-113l150 129h122z" />
<glyph unicode="&#x178;" horiz-adv-x="638" d="M232 697q67 -116 137 -266q139 145 241 266h160q-185 -209 -366 -396l-63 -301h-132l63 300q-126 255 -212 397h172zM354 864q35 0 44.5 -10.5t2.5 -45.5q-8 -38 -22.5 -49.5t-49.5 -11.5t-45 11.5t-2 49.5q7 35 22 45.5t50 10.5zM567 864q35 0 44.5 -10.5t2.5 -45.5 q-8 -38 -22.5 -49.5t-49.5 -11.5q-36 0 -45.5 11.5t-1.5 49.5q7 35 21.5 45.5t50.5 10.5z" />
<glyph unicode="&#x179;" horiz-adv-x="621" d="M-33 0l6 32q245 258 499 551h-360l25 114h565l-7 -30q-106 -128 -254 -292.5t-245 -260.5h375l-24 -114h-580zM433 747h-108l157 129h137z" />
<glyph unicode="&#x17a;" horiz-adv-x="497" d="M43 509h439l-6 -25q-71 -85 -173.5 -198t-168.5 -178h255l-22 -108h-449l5 25q200 200 346 376h-249zM305 568h-109l149 129h133z" />
<glyph unicode="&#x17b;" horiz-adv-x="621" d="M-33 0l6 32q245 258 499 551h-360l25 114h565l-7 -30q-106 -128 -254 -292.5t-245 -260.5h375l-24 -114h-580zM451 867q35 0 45 -10.5t3 -45.5q-8 -38 -23 -49.5t-50 -11.5t-44.5 11.5t-1.5 49.5q7 35 21.5 45.5t49.5 10.5z" />
<glyph unicode="&#x17c;" horiz-adv-x="497" d="M43 509h439l-6 -25q-71 -85 -173.5 -198t-168.5 -178h255l-22 -108h-449l5 25q200 200 346 376h-249zM297 681q35 0 45.5 -10t3.5 -45q-9 -38 -24 -50t-50 -12t-44.5 11.5t-0.5 50.5q7 35 21 45t49 10z" />
<glyph unicode="&#x17d;" horiz-adv-x="621" d="M-33 0l6 32q245 258 499 551h-360l25 114h565l-7 -30q-106 -128 -254 -292.5t-245 -260.5h375l-24 -114h-580zM392 876l56 -78l87 78h112l-150 -129h-122l-98 129h115z" />
<glyph unicode="&#x17e;" horiz-adv-x="497" d="M43 509h439l-6 -25q-71 -85 -173.5 -198t-168.5 -178h255l-22 -108h-449l5 25q200 200 346 376h-249zM115 697h117l54 -76l86 76h113l-150 -129h-122z" />
<glyph unicode="&#x192;" horiz-adv-x="376" d="M276 536l-2 -27h170l-24 -107h-170l-71 -416q-36 -189 -232 -189q-81 0 -143 24l45 96q45 -20 101 -20q91 0 105 89l71 416h-90l24 107h90l5 34q8 54 29.5 91t52.5 56t63.5 26.5t72.5 7.5q82 0 141 -22l-50 -98q-38 14 -93 14q-40 0 -64 -18t-31 -64z" />
<glyph unicode="&#x1f5;" d="M374 143l56 262q-42 17 -95 17q-69 0 -100 -31.5t-53 -136.5q-19 -95 -2 -127t83 -32q43 0 74.5 13t36.5 35zM348 21q-62 -33 -136 -33q-111 0 -150.5 58t-7.5 207q32 152 102.5 211.5t200.5 59.5q131 0 214 -38l-95 -447q-30 -139 -110 -191t-214 -52q-101 0 -172 30 l46 100q73 -25 147 -25q75 0 118 26.5t57 93.5zM379 568h-109l149 129h133z" />
<glyph unicode="&#x218;" horiz-adv-x="622" d="M654 683l-54 -114q-64 25 -178 25q-84 0 -125 -20.5t-52 -70.5q-9 -42 17.5 -61t116.5 -28q120 -13 165.5 -62t24.5 -147q-26 -120 -108.5 -169.5t-238.5 -49.5q-126 0 -211 31l53 114q73 -25 181 -25q86 0 127.5 20t53.5 72q9 43 -18.5 66t-120.5 31q-117 12 -161 55 t-24 137q26 120 110.5 173.5t234.5 53.5q119 0 207 -31zM337 -51l-144 -167h-97l107 167h134z" />
<glyph unicode="&#x219;" horiz-adv-x="491" d="M489 496l-48 -97q-68 24 -143 24q-51 0 -73.5 -11t-30.5 -48q-6 -26 13 -37.5t80 -17.5q92 -10 126 -44t19 -109q-20 -94 -84 -132t-170 -38t-177 27l47 98q63 -24 146 -24q55 0 80 12t33 50q6 28 -13.5 41.5t-82.5 19.5q-88 7 -122.5 38.5t-18.5 106.5q20 93 84.5 131 t169.5 38q88 0 165 -28zM269 -51l-144 -167h-97l107 167h134z" />
<glyph unicode="&#x2c6;" horiz-adv-x="660" d="M597 568h-117l-55 76l-85 -76h-113l150 129h122z" />
<glyph unicode="&#x2c7;" horiz-adv-x="654" d="M255 697h117l54 -76l86 76h113l-150 -129h-122z" />
<glyph unicode="&#x2d8;" horiz-adv-x="524" d="M192 697h85q-7 -34 5.5 -46t47.5 -12t54 12.5t26 45.5h80q-30 -137 -179 -137t-119 137z" />
<glyph unicode="&#x2d9;" horiz-adv-x="462" d="M280 681q35 0 45.5 -10t3.5 -45q-9 -38 -24 -50t-50 -12t-44.5 11.5t-0.5 50.5q7 35 21 45t49 10z" />
<glyph unicode="&#x2da;" horiz-adv-x="714" d="M467 741q61 0 85 -22.5t13 -75.5t-44.5 -75.5t-95.5 -22.5t-86 22.5t-13 75.5t44 75.5t97 22.5zM455 684q-30 0 -42 -9.5t-17 -33.5q-5 -23 3.5 -33t37.5 -10t41.5 10t17.5 33q5 24 -3 33.5t-38 9.5z" />
<glyph unicode="&#x2db;" horiz-adv-x="641" d="M395 12h39q-57 -30 -78.5 -52t-27.5 -52q-5 -22 5.5 -31t45.5 -9q52 0 89 27l22 -63q-54 -35 -139 -35q-74 0 -98 21.5t-15 67.5q9 42 49 75.5t108 50.5z" />
<glyph unicode="&#x2dc;" horiz-adv-x="715" d="M545 702l51 -50q-52 -93 -137 -93q-31 0 -68.5 26.5t-60.5 26.5q-32 0 -63 -51l-45 55q64 81 127 81q37 0 73 -26.5t57 -26.5q18 0 32.5 12.5t33.5 45.5z" />
<glyph unicode="&#x2dd;" horiz-adv-x="550" d="M318 568h-85l119 129h109zM483 568h-86l119 129h109z" />
<glyph unicode="&#x394;" horiz-adv-x="648" d="M608 0h-676q184 355 403 697h169q16 -173 44.5 -367.5t59.5 -329.5zM382 563q-125 -200 -254 -449h313q-43 246 -59 449z" />
<glyph unicode="&#x3a9;" horiz-adv-x="798" d="M-35 0l25 118h158q-38 30 -48 105t10 172q38 177 131.5 248t258.5 71q166 0 228.5 -71t24.5 -248q-20 -96 -62 -171.5t-92 -105.5h159l-25 -118h-321l23 112q73 20 112.5 87.5t66.5 193.5q26 123 -2 162.5t-137 39.5t-154.5 -39.5t-71.5 -162.5q-28 -113 -17 -186.5 t76 -93.5l-24 -113h-319z" />
<glyph unicode="&#x3bc;" horiz-adv-x="583" d="M90 -192h-121l92 405l63 296h124l-58 -271q-19 -67 -3.5 -104t81.5 -37q47 0 95 13l85 399h124l-102 -480q-122 -43 -250 -43q-63 0 -92 16z" />
<glyph unicode="&#x3c0;" horiz-adv-x="635" d="M58 391l25 118h585l-25 -118h-82l-83 -391h-124l83 391h-176l-58 -269q-25 -121 -114 -162l-61 84q39 20 51 76l58 271h-79z" />
<glyph unicode="&#x401;" horiz-adv-x="620" d="M186 697h506l-25 -114h-374l-34 -161h267l-24 -113h-267l-41 -195h374l-24 -114h-506zM362 864q35 0 44.5 -10.5t2.5 -45.5q-8 -38 -22.5 -49.5t-49.5 -11.5t-45 11.5t-2 49.5q7 35 22 45.5t50 10.5zM575 864q35 0 44.5 -10.5t2.5 -45.5q-8 -38 -22.5 -49.5t-49.5 -11.5 q-36 0 -45.5 11.5t-1.5 49.5q7 35 21.5 45.5t50.5 10.5z" />
<glyph unicode="&#x402;" horiz-adv-x="754" d="M679 583h-235l-28 -134q74 35 147 35q40 0 67 -6.5t47.5 -24.5t28.5 -50t5.5 -83t-17.5 -122q-64 -297 -240 -381l-69 85q40 20 67 43.5t58 86.5t52 162q22 117 8.5 147.5t-73.5 30.5q-39 0 -70 -11.5t-36 -30.5l-70 -330h-133l123 583h-235l25 114h603z" />
<glyph unicode="&#x403;" horiz-adv-x="551" d="M170 0h-132l148 697h471l-25 -114h-339zM446 747h-109l157 129h137z" />
<glyph unicode="&#x404;" horiz-adv-x="616" d="M510 310h-298q-11 -51 -6.5 -87.5t13.5 -59t34 -35t53.5 -17t73.5 -4.5q92 0 158 22l4 -118q-95 -25 -210 -25q-86 0 -141.5 17.5t-91 60.5t-38.5 113.5t17 177.5q23 106 58 176t87 110.5t114 56.5t149 16q112 0 200 -26l-54 -116q-56 22 -148 22q-73 0 -115 -11t-76 -49 t-56 -112h297z" />
<glyph unicode="&#x405;" horiz-adv-x="622" d="M654 683l-54 -114q-64 25 -178 25q-84 0 -125 -20.5t-52 -70.5q-9 -42 17.5 -61t116.5 -28q120 -13 165.5 -62t24.5 -147q-26 -120 -108.5 -169.5t-238.5 -49.5q-126 0 -211 31l53 114q73 -25 181 -25q86 0 127.5 20t53.5 72q9 43 -18.5 66t-120.5 31q-117 12 -161 55 t-24 137q26 120 110.5 173.5t234.5 53.5q119 0 207 -31z" />
<glyph unicode="&#x406;" horiz-adv-x="308" d="M186 697h132l-148 -697h-132z" />
<glyph unicode="&#x407;" horiz-adv-x="308" d="M186 697h132l-148 -697h-132zM180 864q35 0 44.5 -10.5t2.5 -45.5q-8 -38 -22.5 -49.5t-49.5 -11.5t-45 11.5t-2 49.5q7 35 22 45.5t50 10.5zM393 864q35 0 44.5 -10.5t2.5 -45.5q-8 -38 -22.5 -49.5t-49.5 -11.5q-36 0 -45.5 11.5t-1.5 49.5q7 35 21.5 45.5t50.5 10.5z " />
<glyph unicode="&#x408;" horiz-adv-x="461" d="M473 697l-107 -505q-43 -206 -255 -206q-84 0 -153 27l51 118q50 -21 115 -21q91 0 112 99l104 488h133z" />
<glyph unicode="&#x409;" horiz-adv-x="1068" d="M561 578h-196q-84 -289 -245 -578h-139q212 395 289 697h449l-53 -250h223q97 0 129 -60.5t10 -162.5q-48 -224 -228 -224h-361zM832 340h-189l-49 -229h192q75 0 99 113q24 116 -53 116z" />
<glyph unicode="&#x40a;" horiz-adv-x="1076" d="M240 333l-70 -333h-132l148 697h132l-54 -253h278l54 253h131l-54 -254h223q97 0 129 -60t10 -162q-45 -221 -227 -221h-360l70 333h-278zM838 333h-189l-47 -222h192q76 0 98 110q25 112 -54 112z" />
<glyph unicode="&#x40b;" horiz-adv-x="760" d="M698 253l-53 -253h-124l51 243q16 77 -2 103t-73 26q-39 0 -70 -11.5t-36 -30.5l-70 -330h-133l123 583h-235l25 114h603l-25 -114h-235l-28 -134q74 35 147 35q38 0 64 -6t46.5 -21t29.5 -40.5t8 -66.5t-13 -97z" />
<glyph unicode="&#x40c;" horiz-adv-x="664" d="M620 0h-157q-22 131 -52 202t-68 97t-103 32l-70 -331h-132l148 697h132l-72 -336q62 49 157.5 141t187.5 195h160q-230 -248 -322 -313q34 -12 56 -29t47.5 -56t47 -112.5t40.5 -186.5zM493 747h-108l157 129h137z" />
<glyph unicode="&#x40e;" horiz-adv-x="584" d="M219 176q-18 113 -57 265t-79 256h157q64 -189 93 -377q165 237 244 377h149q-104 -172 -240.5 -364.5t-252.5 -332.5q-111 0 -167 -1q77 81 153 177zM304 871h85q-7 -34 5.5 -46t48.5 -12q69 0 79 58h80q-30 -137 -178 -137q-150 0 -120 137z" />
<glyph unicode="&#x40f;" horiz-adv-x="736" d="M599 0h-213l-61 -188h-88l19 188h-217l148 697h132l-123 -578h298l123 578h130z" />
<glyph unicode="&#x410;" horiz-adv-x="682" d="M505 0q-17 87 -31 174h-305q-32 -60 -90 -174h-138q185 353 400 697h207q41 -403 103 -697h-146zM427 585h-27q-81 -134 -171 -298h232q-19 132 -34 298z" />
<glyph unicode="&#x411;" horiz-adv-x="711" d="M193 111h220q68 0 88 98q22 103 -49 103h-216zM688 697l-25 -114h-370l-34 -164h243q185 0 140 -212q-23 -110 -79 -158.5t-144 -48.5h-381l148 697h502z" />
<glyph unicode="&#x412;" horiz-adv-x="712" d="M193 111h220q68 0 88 98q22 103 -49 103h-216zM294 585l-35 -166h214q59 0 77 84q10 42 0.5 62t-42.5 20h-214zM517 369q93 -4 116.5 -48t5.5 -130q-40 -191 -220 -191h-381l148 697h375q98 0 125.5 -41.5t9.5 -125.5q-16 -77 -53 -115t-126 -46z" />
<glyph unicode="&#x413;" horiz-adv-x="544" d="M170 0h-132l148 697h471l-25 -114h-339z" />
<glyph unicode="&#x414;" horiz-adv-x="802" d="M776 697l-123 -578h124l-79 -273h-116l33 154h-523l-33 -154h-115l35 273h110q146 257 227 578h460zM522 119l98 464h-208q-74 -266 -180 -464h290z" />
<glyph unicode="&#x415;" horiz-adv-x="620" d="M186 697h506l-25 -114h-374l-34 -161h267l-24 -113h-267l-41 -195h374l-24 -114h-506z" />
<glyph unicode="&#x416;" horiz-adv-x="955" d="M96 0h-152q63 113 112.5 186.5t89 112.5t66.5 56t63 29q-53 56 -168 313h156q82 -202 175 -332l71 332h132l-71 -332q142 125 318 332h155q-221 -252 -301 -313q41 -17 66.5 -43t53.5 -109.5t49 -231.5h-153q-18 132 -43 202t-59.5 97t-92.5 33l-70 -332h-132l70 332 q-90 -9 -159.5 -75t-175.5 -257z" />
<glyph unicode="&#x417;" horiz-adv-x="642" d="M208 310l24 112h111q67 0 97.5 19t40.5 70q11 48 -18 66.5t-124 18.5q-111 0 -187 -22l-2 114q128 26 240 26q151 0 203.5 -41t32.5 -137q-16 -77 -55 -118t-127 -49q92 -4 117.5 -49.5t6.5 -131.5q-23 -111 -101.5 -156.5t-230.5 -45.5q-127 0 -234 25l49 115 q71 -21 184 -21q99 0 140.5 22t53.5 79q12 58 -13 81t-94 23h-114z" />
<glyph unicode="&#x418;" horiz-adv-x="774" d="M783 697l-148 -697h-129l107 504q-218 -287 -402 -504h-173l148 697h130l-112 -526q248 298 420 526h159z" />
<glyph unicode="&#x419;" horiz-adv-x="774" d="M783 697l-148 -697h-129l107 504q-218 -287 -402 -504h-173l148 697h130l-112 -526q248 298 420 526h159zM373 871h85q-7 -34 5.5 -46t47.5 -12t54 12.5t26 45.5h80q-30 -137 -179 -137t-119 137z" />
<glyph unicode="&#x41a;" horiz-adv-x="664" d="M620 0h-157q-22 131 -52 202t-68 97t-103 32l-70 -331h-132l148 697h132l-72 -336q62 49 157.5 141t187.5 195h160q-230 -248 -322 -313q34 -12 56 -29t47.5 -56t47 -112.5t40.5 -186.5z" />
<glyph unicode="&#x41b;" horiz-adv-x="728" d="M583 583h-217q-86 -296 -246 -583h-139q212 395 289 697h468l-148 -697h-130z" />
<glyph unicode="&#x41c;" horiz-adv-x="916" d="M467 251q130 221 288 446h171l-148 -697h-129l110 519q-120 -179 -291 -455h-103q-60 331 -90 455l-110 -519h-127l148 697h180q57 -209 101 -446z" />
<glyph unicode="&#x41d;" horiz-adv-x="736" d="M235 309l-65 -309h-132l148 697h132l-57 -266h298l57 266h130l-148 -697h-130l65 309h-298z" />
<glyph unicode="&#x41e;" horiz-adv-x="770" d="M486 714q57 0 100 -7t77.5 -23t55.5 -43t31.5 -67t8 -94.5t-17.5 -124.5q-23 -107 -58 -179t-87 -113.5t-115 -59t-149 -17.5q-69 0 -118 10.5t-85 36t-52.5 68t-16.5 105.5t18 149q22 105 57 175.5t87 110.5t114.5 56.5t149.5 16.5zM357 105q61 0 97 9t65 37t47 74.5 t35 127.5q14 65 17 106.5t-2.5 69.5t-26.5 42t-50 19t-78 5t-80 -5t-58 -19t-44.5 -42t-31.5 -69.5t-28 -106.5q-17 -81 -19.5 -127.5t14.5 -74.5t49.5 -37t93.5 -9z" />
<glyph unicode="&#x41f;" horiz-adv-x="736" d="M293 583l-123 -583h-132l148 697h560l-148 -697h-130l123 583h-298z" />
<glyph unicode="&#x420;" horiz-adv-x="673" d="M242 340h194q85 0 111 119q27 126 -56 126h-197zM170 0h-132l148 697h363q194 0 143 -239q-21 -98 -83 -163t-157 -65h-234z" />
<glyph unicode="&#x421;" horiz-adv-x="592" d="M78 355q23 106 57 176t85 110.5t112.5 56.5t148.5 16q107 0 195 -26l-54 -116q-56 22 -143 22q-63 0 -99.5 -7.5t-69.5 -32.5t-53.5 -72.5t-37.5 -127.5q-14 -65 -15.5 -108t6.5 -71t31.5 -42.5t54 -20t79.5 -5.5q87 0 153 22l4 -118q-95 -25 -205 -25q-86 0 -140.5 17.5 t-89 60.5t-37 113.5t17.5 177.5z" />
<glyph unicode="&#x422;" horiz-adv-x="609" d="M321 0h-133l123 583h-235l25 114h603l-25 -114h-235z" />
<glyph unicode="&#x423;" horiz-adv-x="613" d="M333 320q165 237 244 377h149q-104 -172 -240.5 -364.5t-252.5 -332.5h-166q84 88 153 177q-15 101 -56.5 260.5t-80.5 259.5h157q64 -189 93 -377z" />
<glyph unicode="&#x424;" horiz-adv-x="799" d="M424 697h131l-19 -87q169 -8 220.5 -67.5t23.5 -192.5q-19 -90 -56.5 -143t-109.5 -83t-189 -35l-18 -89h-131l18 89q-165 8 -214 67.5t-20 193.5q19 90 54.5 142.5t105.5 82.5t185 35zM646 349q13 54 7.5 87.5t-37.5 48.5t-103 17l-65 -305q104 3 142 35t56 117z M192 349q-18 -84 5 -116t120 -36l65 304q-99 -4 -135.5 -35.5t-54.5 -116.5z" />
<glyph unicode="&#x425;" horiz-adv-x="674" d="M267 697q49 -87 126 -230q125 135 209 230h162q-116 -130 -314 -342q119 -233 177 -355h-164q-52 108 -119 241q-210 -215 -236 -241h-162q129 128 340 352q-109 209 -188 345h169z" />
<glyph unicode="&#x426;" horiz-adv-x="773" d="M318 697l-123 -578h298l123 578h130l-123 -578h125l-80 -273h-115l33 154h-548l148 697h132z" />
<glyph unicode="&#x427;" horiz-adv-x="667" d="M477 379l68 318h132l-148 -697h-132l47 224q-64 -32 -177 -32q-39 0 -69 4t-58 14.5t-44.5 28t-28.5 44.5t-10.5 65t10.5 89l56 260h132l-54 -251q-17 -79 9 -105t109 -26q67 0 109 16.5t49 47.5z" />
<glyph unicode="&#x428;" horiz-adv-x="974" d="M984 697l-148 -697h-798l148 697h132l-123 -578h202l123 578h131l-123 -578h202l123 578h131z" />
<glyph unicode="&#x429;" horiz-adv-x="1010" d="M318 697l-123 -578h202l123 578h131l-123 -578h202l123 578h131l-123 -578h124l-79 -273h-116l33 154h-785l148 697h132z" />
<glyph unicode="&#x42a;" horiz-adv-x="721" d="M115 697h237l-53 -248h243q97 0 129 -61.5t10 -163.5t-78.5 -163t-149.5 -61h-381l123 583h-105zM227 111h212q75 0 99 113q24 115 -53 115h-209z" />
<glyph unicode="&#x42b;" horiz-adv-x="935" d="M193 111h212q75 0 99 113q24 115 -53 115h-209zM186 697h132l-53 -248h243q97 0 129 -61.5t10 -163.5q-48 -224 -228 -224h-381zM813 697h132l-148 -697h-132z" />
<glyph unicode="&#x42c;" horiz-adv-x="687" d="M193 111h212q75 0 99 113q24 115 -53 115h-209zM186 697h132l-53 -248h243q97 0 129 -61.5t10 -163.5q-48 -224 -228 -224h-381z" />
<glyph unicode="&#x42d;" horiz-adv-x="616" d="M434 310h-298l24 112h297q7 56 0.5 90.5t-30.5 52.5t-56 23.5t-87 5.5q-92 0 -158 -22l-4 116q99 26 210 26q69 0 117.5 -10t86 -34.5t52.5 -65t18 -102.5t-18 -147q-43 -206 -140 -287.5t-270 -81.5q-115 0 -200 25l54 118q56 -22 148 -22q112 0 167.5 40t86.5 163z" />
<glyph unicode="&#x42e;" horiz-adv-x="966" d="M744 714q54 0 93 -10t68 -34t42 -64.5t11.5 -102t-19.5 -145.5q-44 -206 -128 -289t-221 -83q-63 0 -106 15.5t-71.5 53t-33 99.5t8.5 155h-153l-65 -309h-132l148 697h132l-57 -266h154q44 158 124 220.5t205 62.5zM615 105q80 0 117.5 49t70.5 204q13 65 17.5 106.5 t2 68.5t-16.5 40.5t-33.5 18.5t-53.5 5q-55 0 -84.5 -15.5t-54 -67t-46.5 -156.5q-25 -103 -21.5 -159t26.5 -75t76 -19z" />
<glyph unicode="&#x42f;" horiz-adv-x="706" d="M515 375l45 210h-200q-79 0 -101 -108q-11 -50 4.5 -76t54.5 -26h197zM258 305q-182 7 -142 189q42 203 237 203h363l-148 -697h-132l56 266h-111q-33 0 -57 -9t-54 -37t-63.5 -81t-77.5 -139h-152q70 125 119 189.5t82.5 86.5t79.5 29z" />
<glyph unicode="&#x430;" d="M377 156l53 249q-42 17 -95 17q-69 0 -99.5 -32t-52.5 -136q-12 -52 -12 -84q0 -42 21.5 -58.5t70.5 -16.5q43 0 75.5 16.5t38.5 44.5zM366 46q-60 -58 -154 -58q-87 0 -129 33.5t-42 116.5q0 46 14 114q31 152 101 212t200 60q132 0 215 -38l-71 -330q-5 -23 -5 -40 q0 -40 30 -73l-106 -61q-20 7 -34.5 25.5t-18.5 38.5z" />
<glyph unicode="&#x431;" horiz-adv-x="575" d="M182 245q-18 -92 -2 -124.5t70 -32.5q67 0 96.5 28.5t51.5 128.5q18 91 2 120.5t-78 29.5q-66 0 -94 -30.5t-46 -119.5zM222 442q58 60 151 60q105 0 144 -55.5t8 -199.5q-31 -148 -100 -204.5t-199 -56.5q-45 0 -77 8t-56.5 28.5t-35 55t-9 88.5t17.5 128q21 100 45 168 t50 112t63.5 69t77 35.5t99.5 15.5q123 10 199 39l-23 -110q-55 -23 -193 -35q-73 -6 -104.5 -38t-57.5 -108z" />
<glyph unicode="&#x432;" horiz-adv-x="580" d="M163 96h152q29 0 44.5 13.5t22.5 44.5q14 66 -44 66h-149zM230 413l-21 -102h147q26 0 40 12.5t20 39.5q6 29 -3 39.5t-36 10.5h-147zM409 270q71 -2 92 -35.5t8 -95.5q-29 -139 -179 -139h-311l108 509h307q81 0 105 -30.5t11 -91.5q-12 -55 -42 -83.5t-99 -33.5z" />
<glyph unicode="&#x433;" horiz-adv-x="424" d="M228 401l-85 -401h-124l108 509h354l-23 -108h-230z" />
<glyph unicode="&#x434;" horiz-adv-x="649" d="M224 509h380l-86 -401h98l-81 -249h-99l30 141h-384l-30 -141h-100l24 249h91q106 212 157 401zM457 401h-143q-39 -130 -117 -293h197z" />
<glyph unicode="&#x435;" horiz-adv-x="552" d="M429 112l-1 -98q-89 -28 -183 -28q-119 0 -170 61.5t-20 209.5q31 146 103.5 206.5t190.5 60.5q64 0 102 -12.5t60 -46t20.5 -92.5t-24.5 -151h-329q-16 -78 8.5 -104.5t95.5 -26.5q74 0 147 21zM335 426q-59 0 -88 -23t-48 -86h214q11 66 -6 87.5t-72 21.5z" />
<glyph unicode="&#x436;" horiz-adv-x="799" d="M94 0h-142q52 80 92.5 133.5t71 81.5t49 39.5t42.5 20.5q-19 19 -56 81.5t-79 152.5h143q71 -150 128 -242l52 242h124l-52 -242q81 76 233 242h143q-162 -181 -235 -234q27 -12 45 -30t43.5 -79t49.5 -166h-141q-29 121 -64.5 172t-79.5 64l-50 -236h-124l50 236 q-51 -13 -107 -64t-136 -172z" />
<glyph unicode="&#x437;" horiz-adv-x="516" d="M145 222l19 93h78q56 0 80 11t30 40t-14 40.5t-83 11.5q-87 0 -160 -22l-3 108q90 20 188 20q133 0 178 -29t30 -102q-12 -57 -45 -87.5t-103 -36.5q73 -4 96.5 -38t9.5 -96q-18 -85 -81 -117t-199 -32q-105 0 -184 19l49 111q63 -24 155 -24q71 0 98 14.5t35 52.5 q7 35 -15 49t-81 14h-78z" />
<glyph unicode="&#x438;" horiz-adv-x="593" d="M350 0l66 311q-117 -152 -273 -311h-124l108 509h124l-69 -324q115 115 276 324h124l-108 -509h-124z" />
<glyph unicode="&#x439;" horiz-adv-x="593" d="M350 0l66 311q-117 -152 -273 -311h-124l108 509h124l-69 -324q115 115 276 324h124l-108 -509h-124zM245 697h85q-7 -34 5.5 -46t48.5 -12q69 0 79 58h80q-30 -137 -178 -137q-150 0 -120 137z" />
<glyph unicode="&#x43a;" horiz-adv-x="551" d="M499 0h-145q-23 87 -50 138.5t-52 70.5t-59 27l-50 -236h-124l108 509h124l-52 -245q96 86 249 245h147q-188 -197 -243 -233q28 -12 46.5 -30.5t45.5 -79t55 -166.5z" />
<glyph unicode="&#x43b;" horiz-adv-x="572" d="M413 401h-138q-63 -212 -162 -401h-130q123 239 197 509h380l-108 -509h-124z" />
<glyph unicode="&#x43c;" horiz-adv-x="753" d="M375 206q92 156 194 303h173l-108 -509h-123l78 371q-103 -152 -212 -341h-93q-39 242 -64 341l-78 -371h-123l108 509h181q34 -128 67 -303z" />
<glyph unicode="&#x43d;" horiz-adv-x="587" d="M388 216h-200l-45 -216h-124l108 509h124l-40 -187h200l40 187h124l-108 -509h-124z" />
<glyph unicode="&#x43e;" d="M240 -14q-127 0 -172 59.5t-13 211.5q32 150 102.5 208.5t196.5 58.5q128 0 173.5 -58t13.5 -209q-32 -152 -102.5 -211.5t-198.5 -59.5zM332 423q-68 0 -97 -31t-52 -137q-21 -106 -5 -137t83 -31q69 0 99.5 32.5t52.5 135.5q21 109 4.5 138.5t-85.5 29.5z" />
<glyph unicode="&#x43f;" horiz-adv-x="587" d="M228 401l-85 -401h-124l108 509h448l-108 -509h-124l85 401h-200z" />
<glyph unicode="&#x440;" d="M228 402l-56 -262q-4 -22 22 -35.5t68 -13.5q66 0 98 33.5t52 127.5q20 105 3.5 135t-85.5 30q-60 0 -102 -15zM-22 -192l144 678q99 38 231 38q130 0 174.5 -58.5t12.5 -210.5q-31 -148 -100 -208.5t-178 -60.5q-64 0 -116 29l-44 -207h-124z" />
<glyph unicode="&#x441;" horiz-adv-x="470" d="M405 118l5 -106q-70 -26 -160 -26q-124 0 -175 61t-20 210q31 148 108 207.5t201 59.5q90 0 150 -24l-51 -106q-53 22 -113 22q-73 0 -109.5 -30.5t-57.5 -130.5q-21 -96 2.5 -128.5t95.5 -32.5q59 0 124 24z" />
<glyph unicode="&#x442;" horiz-adv-x="485" d="M339 401l-85 -401h-124l85 401h-175l23 108h475l-23 -108h-176z" />
<glyph unicode="&#x443;" horiz-adv-x="511" d="M124 -25q-18 288 -66 534h129q30 -162 44 -386q132 223 208 386h126q-123 -243 -306 -530q-58 -92 -115 -171h-138q44 58 118 167z" />
<glyph unicode="&#x444;" horiz-adv-x="840" d="M417 514l41 195h124l-41 -195q48 10 84 10q122 0 160.5 -58.5t6.5 -210.5q-32 -148 -95 -208.5t-163 -60.5q-60 0 -99 29l-44 -207h-124l44 207q-52 -29 -111 -29q-101 0 -138.5 60.5t-5.5 208.5q32 152 95.5 210.5t185.5 58.5q33 0 80 -10zM244 91q37 0 63 13t30 35 l56 265q-35 13 -79 13q-58 0 -86.5 -32t-50.5 -133q-19 -94 -3.5 -127.5t70.5 -33.5zM534 91q54 0 84.5 34.5t50.5 126.5q17 68 12 105t-22.5 48.5t-56.5 11.5q-46 0 -85 -13l-56 -267q-4 -21 16 -33.5t57 -12.5z" />
<glyph unicode="&#x445;" horiz-adv-x="521" d="M466 0h-140q-24 60 -73 161q-74 -78 -159 -161h-138q95 89 251 254q-76 152 -142 255h148q38 -63 84 -156q53 57 138 156h138q-94 -107 -229 -251q64 -128 122 -258z" />
<glyph unicode="&#x446;" horiz-adv-x="636" d="M489 108h114l-81 -249h-100l30 141h-433l108 509h124l-86 -401h200l86 401h124z" />
<glyph unicode="&#x447;" horiz-adv-x="556" d="M69 385l27 124h124l-25 -114q-16 -77 2.5 -103t73.5 -26q40 0 71 12t36 33l42 198h124l-108 -509h-124l40 189q-74 -35 -148 -35q-48 0 -77 9.5t-50 35t-20.5 70.5t12.5 116z" />
<glyph unicode="&#x448;" horiz-adv-x="858" d="M846 509l-108 -509h-719l108 509h124l-86 -401h174l86 401h124l-86 -401h173l86 401h124z" />
<glyph unicode="&#x449;" horiz-adv-x="907" d="M693 -141l30 141h-704l108 509h124l-86 -401h174l86 401h124l-86 -401h173l86 401h124l-86 -401h114l-81 -249h-100z" />
<glyph unicode="&#x44a;" horiz-adv-x="611" d="M246 325h179q158 0 123 -161q-18 -88 -65 -126t-127 -38h-303l85 401h-98l23 108h222zM196 92h150q58 0 72 70q7 36 -4 51.5t-41 15.5h-148z" />
<glyph unicode="&#x44b;" horiz-adv-x="776" d="M312 92q57 0 72 70q7 36 -4 51.5t-41 15.5h-148l-29 -137h150zM212 325h179q158 0 123 -161q-18 -88 -65 -126t-127 -38h-303l108 509h124zM765 509l-108 -509h-124l108 509h124z" />
<glyph unicode="&#x44c;" horiz-adv-x="577" d="M312 92q58 0 72 70q7 36 -4 51.5t-41 15.5h-148l-29 -137h150zM212 325h179q158 0 123 -161q-18 -88 -65 -126t-127 -38h-303l108 509h124z" />
<glyph unicode="&#x44d;" horiz-adv-x="481" d="M-24 12l48 99q47 -21 116 -21q63 0 99.5 28t57.5 104h-203l20 95h201q5 60 -20.5 81t-84.5 21q-74 0 -124 -19l-6 100q70 24 160 24q121 0 173 -60t21 -207q-31 -148 -109 -209.5t-199 -61.5q-90 0 -150 26z" />
<glyph unicode="&#x44e;" horiz-adv-x="848" d="M505 -14q-114 0 -160 51t-27 179h-130l-45 -216h-124l108 509h124l-40 -187h131q36 112 102 157t175 45q124 0 169 -58.5t13 -208.5q-32 -151 -102 -211t-194 -60zM598 424q-64 0 -94 -32t-52 -137q-20 -106 -5 -137.5t79 -31.5q65 0 95.5 33t52.5 136q9 44 11.5 73.5 t-0.5 49t-15 29.5t-28.5 13.5t-43.5 3.5z" />
<glyph unicode="&#x44f;" horiz-adv-x="593" d="M409 279l27 130h-145q-60 0 -73 -64q-14 -66 49 -66h142zM202 220q-76 3 -101.5 41.5t-13.5 98.5q31 149 193 149h302l-108 -509h-124l38 181h-77q-52 0 -91 -35t-103 -146h-142q79 127 124.5 169.5t102.5 50.5z" />
<glyph unicode="&#x451;" horiz-adv-x="552" d="M429 112l-1 -98q-89 -28 -183 -28q-119 0 -170 61.5t-20 209.5q31 146 103.5 206.5t190.5 60.5q64 0 102 -12.5t60 -46t20.5 -92.5t-24.5 -151h-329q-16 -78 8.5 -104.5t95.5 -26.5q74 0 147 21zM335 426q-59 0 -88 -23t-48 -86h214q11 66 -6 87.5t-72 21.5zM276 681 q35 0 45.5 -10t3.5 -45q-9 -38 -24 -50t-50 -12t-44.5 11.5t-0.5 50.5q7 35 21 45t49 10zM490 681q35 0 45 -10t3 -45q-9 -38 -24 -50t-49 -12q-36 0 -45.5 11.5t-0.5 50.5q7 35 21 45t50 10z" />
<glyph unicode="&#x452;" horiz-adv-x="576" d="M266 581l-22 -104q68 35 147 35q51 0 81.5 -11.5t49.5 -43t18.5 -89.5t-19.5 -147q-36 -169 -104 -269.5t-140 -134.5l-70 85q38 19 68 49.5t61.5 98t52.5 167.5q22 118 8.5 148.5t-72.5 30.5q-39 0 -70 -11.5t-37 -31.5l-75 -353h-124l123 581h-51l18 87h51l12 54h124 l-12 -54h103l-18 -87h-103z" />
<glyph unicode="&#x453;" horiz-adv-x="424" d="M228 402l-85 -402h-124l108 509h354l-23 -107h-230zM340 568h-109l149 129h133z" />
<glyph unicode="&#x454;" horiz-adv-x="481" d="M403 111l6 -99q-70 -26 -159 -26q-122 0 -174 61.5t-21 209.5q31 147 109 207t199 60q90 0 150 -24l-48 -100q-44 19 -116 19q-59 0 -94 -21t-55 -81h201l-20 -95h-203q-12 -76 13 -104t88 -28q67 0 124 21z" />
<glyph unicode="&#x455;" horiz-adv-x="491" d="M489 496l-48 -97q-68 24 -143 24q-51 0 -73.5 -11t-30.5 -48q-6 -26 13 -37.5t80 -17.5q92 -10 126 -44t19 -109q-20 -94 -84 -132t-170 -38t-177 27l47 98q63 -24 146 -24q55 0 80 12t33 50q6 28 -13.5 41.5t-82.5 19.5q-88 7 -122.5 38.5t-18.5 106.5q20 93 84.5 131 t169.5 38q88 0 165 -28z" />
<glyph unicode="&#x456;" horiz-adv-x="262" d="M251 509l-108 -509h-124l108 509h124zM235 721q42 0 54 -11.5t4 -49.5q-9 -43 -26.5 -56t-59.5 -13q-43 0 -54.5 13t-2.5 56q8 38 25 49.5t60 11.5z" />
<glyph unicode="&#x457;" horiz-adv-x="262" d="M251 509l-108 -509h-124l108 509h124zM118 681q35 0 45.5 -10t3.5 -45q-9 -38 -24 -50t-50 -12t-44.5 11.5t-0.5 50.5q7 35 21 45t49 10zM332 681q35 0 45 -10t3 -45q-9 -38 -24 -50t-49 -12q-36 0 -45.5 11.5t-0.5 50.5q7 35 21 45t50 10z" />
<glyph unicode="&#x458;" horiz-adv-x="262" d="M-109 -203l22 103q44 0 68.5 18.5t33.5 67.5l112 523h124l-111 -520q-23 -109 -81.5 -150.5t-167.5 -41.5zM235 721q42 0 54 -11.5t4 -49.5q-9 -43 -26.5 -56t-59.5 -13q-43 0 -54.5 13t-2.5 56q8 38 25 49.5t60 11.5z" />
<glyph unicode="&#x459;" horiz-adv-x="886" d="M413 401h-138q-63 -212 -162 -401h-130q123 239 197 509h380l-39 -184h179q158 0 123 -161q-18 -88 -65 -126t-127 -38h-303zM471 92h150q58 0 72 70q7 36 -4 51.5t-41 15.5h-148z" />
<glyph unicode="&#x45a;" horiz-adv-x="901" d="M536 325h179q158 0 123 -161q-18 -88 -65 -126t-127 -38h-303l48 229h-200l-48 -229h-124l108 509h124l-39 -184h200l39 184h124zM486 92h150q58 0 72 71q8 36 -3.5 51t-41.5 15h-148z" />
<glyph unicode="&#x45b;" horiz-adv-x="583" d="M91 581l18 87h51l12 54h124l-12 -54h103l-18 -87h-103l-20 -92q76 35 148 35q48 0 77 -9.5t50 -35t20.5 -70.5t-12.5 -116l-62 -293h-124l60 283q16 77 -2.5 103t-72.5 26q-41 0 -72 -12t-35 -33l-78 -367h-124l123 581h-51z" />
<glyph unicode="&#x45c;" horiz-adv-x="551" d="M499 0h-145q-23 87 -50 138.5t-52 70.5t-59 27l-50 -236h-124l108 509h124l-52 -245q96 86 249 245h147q-188 -197 -243 -233q28 -12 46.5 -30.5t45.5 -79t55 -166.5zM393 568h-109l149 129h133z" />
<glyph unicode="&#x45e;" horiz-adv-x="511" d="M124 -25q-18 288 -66 534h129q30 -162 44 -386q132 223 208 386h126q-123 -243 -306 -530q-58 -92 -115 -171h-138q44 58 118 167zM205 699h85q-7 -34 5.5 -46t47.5 -12t54 12.5t26 45.5h80q-30 -137 -179 -137t-119 137z" />
<glyph unicode="&#x45f;" horiz-adv-x="587" d="M251 509l-86 -401h200l86 401h124l-108 -509h-156l-59 -178h-88l17 178h-162l108 509h124z" />
<glyph unicode="&#x490;" horiz-adv-x="544" d="M38 0l148 697h350l70 178h88l-62 -292h-339l-123 -583h-132z" />
<glyph unicode="&#x491;" horiz-adv-x="424" d="M458 401h-230l-85 -401h-124l108 509h246l65 164h78z" />
<glyph unicode="&#x2013;" horiz-adv-x="578" d="M46 222l25 118h480l-25 -118h-480z" />
<glyph unicode="&#x2014;" horiz-adv-x="865" d="M46 222l25 118h767l-25 -118h-767z" />
<glyph unicode="&#x2018;" horiz-adv-x="255" d="M81 505l165 262h100l-134 -262h-131z" />
<glyph unicode="&#x2019;" horiz-adv-x="255" d="M343 762l-164 -262h-100l133 262h131z" />
<glyph unicode="&#x201a;" horiz-adv-x="245" d="M198 103l-164 -262h-99l132 262h131z" />
<glyph unicode="&#x201c;" horiz-adv-x="450" d="M81 505l165 262h100l-134 -262h-131zM275 505l165 262h100l-134 -262h-131z" />
<glyph unicode="&#x201d;" horiz-adv-x="450" d="M538 763l-165 -262h-100l134 262h131zM344 763l-165 -262h-100l134 262h131z" />
<glyph unicode="&#x201e;" horiz-adv-x="450" d="M396 98l-164 -262h-100l133 262h131zM202 98l-164 -262h-99l132 262h131z" />
<glyph unicode="&#x2020;" horiz-adv-x="446" d="M81 479l22 100h141l30 143h103l-30 -143h142l-22 -100h-142l-48 -228h-103l48 228h-141z" />
<glyph unicode="&#x2021;" horiz-adv-x="446" d="M81 479l22 100h141l30 143h103l-30 -143h142l-22 -100h-142l-20 -96h142l-22 -101h-142l-30 -143h-103l30 143h-141l22 101h141l20 96h-141z" />
<glyph unicode="&#x2022;" d="M254 56q-126 0 -171 59.5t-13 211.5q32 150 102.5 208.5t196.5 58.5q128 0 173.5 -58t13.5 -209q-32 -152 -103 -211.5t-199 -59.5z" />
<glyph unicode="&#x2026;" horiz-adv-x="1141" d="M198 143q48 0 61 -13t4 -57q-10 -48 -30 -63t-67 -15q-45 0 -57.5 15t-2.5 63q9 44 27.5 57t64.5 13zM549 143q47 0 60 -13t4 -57q-10 -48 -29.5 -63t-66.5 -15q-45 0 -58 15t-3 63q9 44 28 57t65 13zM900 143q48 0 61 -13t4 -57q-10 -48 -30 -63t-67 -15q-44 0 -57 15 t-3 63q9 44 28 57t64 13z" />
<glyph unicode="&#x2030;" horiz-adv-x="1354" d="M731 697h117l-577 -697h-116zM318 714q100 0 131 -47t4 -176q-28 -131 -80 -181t-151 -50t-130 50t-3 181q27 129 78 176t151 47zM241 349q43 0 63.5 27.5t38.5 113.5q17 88 8.5 112t-51.5 24t-63.5 -25.5t-38.5 -110.5q-18 -87 -8.5 -114t51.5 -27zM785 439 q100 0 131 -47t4 -175q-28 -131 -80 -181t-151 -50t-130 50t-3 181q27 128 78 175t151 47zM707 74q43 0 63.5 28t38.5 114q17 88 8.5 111.5t-51.5 23.5t-63.5 -25t-38.5 -110q-17 -88 -8 -115t51 -27zM1180 439q100 0 131 -47t4 -175q-28 -131 -80 -181t-151 -50t-130 50 t-3 181q27 128 78 175t151 47zM1102 74q43 0 63.5 28t38.5 114q17 88 8.5 111.5t-51.5 23.5t-63.5 -25t-38.5 -110q-17 -88 -8 -115t51 -27z" />
<glyph unicode="&#x2039;" horiz-adv-x="395" d="M428 518l-220 -204l132 -208l-86 -75l-211 281l329 279z" />
<glyph unicode="&#x203a;" horiz-adv-x="395" d="M-1 105l220 204l-132 209l85 74l213 -280l-330 -280z" />
<glyph unicode="&#x2044;" horiz-adv-x="593" d="M558 697h117l-587 -697h-116z" />
<glyph unicode="&#x20a3;" horiz-adv-x="570" d="M22 117l19 88h40l105 492h496l-25 -114h-364l-41 -197h222l-24 -112h-222l-15 -69h90l-19 -88h-90l-24 -117h-132l24 117h-40z" />
<glyph unicode="&#x20ac;" horiz-adv-x="592" d="M78 355q23 106 57 176t85 110.5t112.5 56.5t148.5 16q107 0 195 -26l-54 -116q-56 22 -143 22q-90 0 -138.5 -21.5t-79.5 -88.5h239l-18 -85h-253q-5 -20 -10 -45q-7 -30 -9 -45h253l-18 -85h-239q1 -70 40 -93.5t129 -23.5q87 0 153 22l4 -118q-95 -25 -205 -25 q-86 0 -140.5 17.5t-89 60.5t-37 113.5t17.5 177.5z" />
<glyph unicode="&#x2116;" horiz-adv-x="1174" d="M783 697l-148 -697h-161q-91 272 -196 525l-111 -525h-129l148 697h173q100 -238 186 -503l107 503h131zM752 123l20 98h326l-20 -98h-326zM1038 714q103 0 135.5 -44t6.5 -164q-26 -122 -77.5 -168t-153.5 -46t-134 46t-6 168q26 120 76.5 164t152.5 44zM967 381 q47 0 67.5 23.5t36.5 101.5q15 79 6 99.5t-57 20.5t-67 -21.5t-35 -98.5q-16 -80 -7 -102.5t56 -22.5z" />
<glyph unicode="&#x2122;" horiz-adv-x="824" d="M231 338h-89l60 281h-114l17 78h316l-17 -78h-113zM576 697l39 -243l140 243h112l-77 -359h-84l53 250l-137 -236h-69l-34 236l-53 -250h-84l77 359h117z" />
<glyph unicode="&#x212e;" horiz-adv-x="711" d="M683 303h-474q-22 -119 12 -158t143 -39q37 0 92 7t84 16l3 -118q-95 -25 -205 -25q-68 0 -117.5 11t-87 37t-53.5 68.5t-19 105.5t17 147q22 104 57.5 175t86 111t109 56.5t135.5 16.5q156 0 211.5 -88t12.5 -291q-1 -4 -3.5 -15t-3.5 -17zM441 595q-88 0 -133 -34 t-73 -140h333q18 105 -11.5 139.5t-115.5 34.5z" />
<glyph unicode="&#x2190;" horiz-adv-x="757" d="M390 26l-375 341l374 341l88 -89l-217 -194h482v-117h-482l217 -193z" />
<glyph unicode="&#x2191;" horiz-adv-x="759" d="M38 355l342 375l340 -375l-88 -88l-194 218v-482h-117v482l-193 -218z" />
<glyph unicode="&#x2192;" horiz-adv-x="757" d="M367 707l375 -340l-375 -342l-88 90l218 193h-482v117h482l-218 194z" />
<glyph unicode="&#x2193;" horiz-adv-x="759" d="M720 378l-341 -375l-341 374l89 88l194 -217v482h117v-482l193 217z" />
<glyph unicode="&#x2196;" horiz-adv-x="695" d="M109 119l-24 507l506 -24v-125l-291 16l341 -341l-83 -83l-341 341l17 -290z" />
<glyph unicode="&#x2197;" horiz-adv-x="695" d="M115 601l505 25l-23 -507l-125 1l16 290l-340 -341l-83 83l341 341l-291 -17v125z" />
<glyph unicode="&#x2198;" horiz-adv-x="695" d="M620 68l-505 24v125l291 -16l-341 340l83 84l340 -341l-16 290l125 1z" />
<glyph unicode="&#x2199;" horiz-adv-x="695" d="M85 69l24 506l125 -1l-17 -290l341 341l83 -83l-341 -340l291 16v-125z" />
<glyph unicode="&#x2202;" horiz-adv-x="626" d="M349 428q36 0 86 -5q-32 113 -166 274h164q90 -110 131 -223t12 -250q-30 -142 -95 -191.5t-222 -49.5q-145 0 -192.5 52t-19.5 183q25 118 90.5 164t211.5 46zM440 238q9 43 6 72q-45 7 -106 7q-84 0 -113 -20t-43 -85q-13 -62 6.5 -86.5t93.5 -24.5q76 0 106.5 24.5 t49.5 112.5z" />
<glyph unicode="&#x220f;" horiz-adv-x="736" d="M292 578l-122 -578h-132l148 697h560l-148 -697h-130l122 578h-298z" />
<glyph unicode="&#x2211;" horiz-adv-x="622" d="M417 345q-125 -141 -216 -232h371l-24 -113h-594q82 87 309 346q-73 163 -146 351h576l-25 -114h-357q53 -121 106 -238z" />
<glyph unicode="&#x2212;" horiz-adv-x="582" d="M62 303l25 118h486l-25 -118h-486z" />
<glyph unicode="&#x221a;" horiz-adv-x="578" d="M58 509h165q33 -180 44 -384q61 103 164 292t146 280h126q-65 -128 -191 -352.5t-201 -344.5h-153q-20 235 -44 387h-82z" />
<glyph unicode="&#x221e;" horiz-adv-x="773" d="M361 351q11 53 -7.5 76t-73.5 23q-53 0 -78 -22t-37 -77q-12 -56 3.5 -78t69.5 -22q55 0 83.5 23.5t39.5 76.5zM393 264q-17 -53 -48 -82.5t-66 -38.5t-88 -9q-99 0 -132.5 47t-7.5 170t79.5 169.5t152.5 46.5q80 0 117.5 -26.5t29.5 -102.5q23 76 71 102.5t129 26.5 q99 0 132.5 -46.5t7.5 -169.5t-79.5 -170t-152.5 -47q-80 0 -117.5 27t-27.5 103zM460 351q-11 -53 7.5 -76t73.5 -23q54 0 79 22t36 77q12 55 -3.5 77t-69.5 22q-55 0 -83.5 -23t-39.5 -76z" />
<glyph unicode="&#x222b;" horiz-adv-x="339" d="M505 702l-49 -98q-39 14 -94 14q-41 0 -65.5 -16.5t-34.5 -65.5l-116 -550q-41 -189 -238 -189q-83 0 -143 24l46 96q47 -20 107 -20q84 0 104 89l118 557q39 181 223 181q79 0 142 -22z" />
<glyph unicode="&#x2248;" horiz-adv-x="582" d="M484 320l66 -63q-29 -50 -76 -82t-101 -32q-40 0 -106 42.5t-95 42.5q-38 0 -77 -60l-57 69q78 98 158 98q29 0 60 -13t53 -28.5t47.5 -28.5t44.5 -13q23 0 41.5 14.5t41.5 53.5zM529 533l66 -63q-29 -50 -76 -82t-101 -32q-40 0 -106 42.5t-95 42.5q-38 0 -77 -60 l-57 69q78 98 158 98q47 0 113 -41.5t92 -41.5q45 0 83 68z" />
<glyph unicode="&#x2260;" horiz-adv-x="582" d="M467 648h124l-72 -95h82l-25 -118h-143l-111 -149h222l-25 -118h-282l-72 -96h-123l71 96h-80l25 118h141l111 149h-220l25 118h280z" />
<glyph unicode="&#x2264;" horiz-adv-x="582" d="M2 19l25 118h486l-25 -118h-486zM582 629l-302 -193l220 -195l-81 -82l-307 250l11 52l412 249z" />
<glyph unicode="&#x2265;" horiz-adv-x="582" d="M514 137l-25 -118h-486l25 118h486zM386 436l-219 193l81 81l306 -249l-11 -52l-414 -250l-44 82z" />
<glyph unicode="&#x25ca;" horiz-adv-x="600" d="M588 265q-164 -254 -263 -433h-207q-58 234 -93 433q112 188 277 434h207q24 -180 79 -434zM449 266q-5 27 -19 104t-24 137.5t-14 97.5h-27q-162 -257 -210 -339q15 -90 66 -339h27q20 37 55.5 96.5t83 138.5t62.5 104z" />
<glyph unicode="&#x25fc;" horiz-adv-x="510" d="M0 510h510v-510h-510v510z" />
<glyph unicode="&#xe01e;" horiz-adv-x="327" d="M385 722h110l-98 -192h-73z" />
<glyph unicode="&#xf6c3;" horiz-adv-x="267" d="M205 -51l-144 -167h-97l107 167h134z" />
<glyph unicode="&#xf6c9;" horiz-adv-x="408" d="M315 747h-108l157 129h137z" />
<glyph unicode="&#xf6ca;" horiz-adv-x="654" d="M416 876l56 -78l87 78h112l-150 -129h-122l-98 129h115z" />
<glyph unicode="&#xf6cb;" horiz-adv-x="431" d="M279 864q35 0 44.5 -10.5t2.5 -45.5q-8 -38 -22.5 -49.5t-49.5 -11.5t-45 11.5t-2 49.5q7 35 22 45.5t50 10.5zM492 864q35 0 44.5 -10.5t2.5 -45.5q-8 -38 -22.5 -49.5t-49.5 -11.5q-36 0 -45.5 11.5t-1.5 49.5q7 35 21.5 45.5t50.5 10.5z" />
<glyph unicode="&#xf6ce;" horiz-adv-x="408" d="M517 747h-114l-130 129h137z" />
<glyph unicode="&#xf6cf;" horiz-adv-x="618" d="M356 747h-85l119 129h109zM521 747h-86l119 129h109z" />
<glyph unicode="&#xf6d0;" horiz-adv-x="326" d="M233 753l19 92h278l-19 -92h-278z" />
<glyph unicode="&#xf6f9;" horiz-adv-x="432" d="M192 232l-26 -121h240l-23 -111h-364l27 128l-50 -37l23 107l49 37l59 274h124l-36 -170l111 83l-23 -108z" />
<glyph unicode="&#xf6fa;" horiz-adv-x="825" d="M845 509l-22 -101h-278q14 -38 6 -95h188l-20 -95h-188q-17 -74 -52 -117h279l-21 -101h-384q-48 -14 -113 -14q-127 0 -172 59.5t-13 211.5q32 150 102.5 208.5t196.5 58.5q65 0 110 -15h381zM333 424q-68 0 -97.5 -31.5t-52.5 -137.5q-21 -106 -5 -137.5t83 -31.5 q68 0 99 33t53 136q21 109 5 139t-85 30z" />
<glyph unicode="&#xf6fd;" horiz-adv-x="491" d="M489 496l-48 -97q-68 24 -143 24q-51 0 -73.5 -11t-30.5 -48q-6 -26 13 -37.5t80 -17.5q92 -10 126 -44t19 -109q-20 -94 -84 -132t-170 -38t-177 27l47 98q63 -24 146 -24q55 0 80 12t33 50q6 28 -13.5 41.5t-82.5 19.5q-88 7 -122.5 38.5t-18.5 106.5q20 93 84.5 131 t169.5 38q88 0 165 -28zM164 697h117l54 -76l86 76h113l-150 -129h-122z" />
<glyph unicode="&#xf6ff;" horiz-adv-x="497" d="M43 509h439l-6 -25q-71 -85 -173.5 -198t-168.5 -178h255l-22 -108h-449l5 25q200 200 346 376h-249zM115 697h117l54 -76l86 76h113l-150 -129h-122z" />
<glyph unicode="&#xf721;" horiz-adv-x="327" d="M149 509h143l-92 -302h-90zM142 141q47 0 60 -13.5t4 -57.5q-10 -48 -29 -62.5t-66 -14.5q-45 0 -58.5 14.5t-3.5 62.5q9 44 28.5 57.5t64.5 13.5z" />
<glyph unicode="&#xf726;" horiz-adv-x="698" d="M634 0h-137q-11 25 -32 64q-134 -78 -261 -78q-126 0 -169 31.5t-25 117.5q29 129 172 136q-67 5 -83 34t-3 88q15 74 66.5 102.5t182.5 28.5q89 0 133.5 -13.5t56 -40.5t1.5 -77q-12 -56 -47 -87t-106 -37q61 -7 116 -69q46 45 70 99h134q-36 -90 -137 -172 q34 -49 68 -127zM228 82q104 0 189 61q-57 78 -148 78q-53 0 -84 -13t-40 -56q-9 -40 9.5 -55t73.5 -15zM299 317q53 0 79 12t33 45q7 32 -10.5 44t-73.5 12q-57 0 -80 -12t-30 -44q-7 -33 11 -45t71 -12z" />
<glyph unicode="&#xf730;" horiz-adv-x="626" d="M262 -14q-117 0 -162 60.5t-13 210.5q31 149 101.5 208t187.5 59t160 -58.5t11 -208.5q-32 -151 -100 -211t-185 -60zM355 424q-61 0 -90 -32t-51 -137q-20 -106 -6 -137.5t75 -31.5t87.5 32t48.5 137q18 71 14.5 108.5t-20.5 49t-58 11.5z" />
<glyph unicode="&#xf731;" horiz-adv-x="626" d="M391 0h-125l76 362l-171 -71l-14 104l345 129z" />
<glyph unicode="&#xf732;" horiz-adv-x="626" d="M154 386l-5 115q104 23 214 23q130 0 172 -36.5t24 -123.5q-16 -75 -87.5 -137t-230.5 -126h273l-21 -101h-455l19 91q151 75 226.5 119.5t102 71t33.5 58.5q9 39 -12 55t-89 16q-35 0 -87 -7.5t-77 -17.5z" />
<glyph unicode="&#xf733;" horiz-adv-x="626" d="M167 121l24 112h97q64 0 94 19t41 69q10 49 -16 67t-116 18q-102 0 -180 -22l-2 114q128 26 233 26q147 0 197 -41t29 -137q-17 -77 -56.5 -117.5t-128.5 -47.5q92 -4 118 -49t8 -131q-24 -112 -98.5 -157t-225.5 -45q-117 0 -224 25l50 114q66 -20 174 -20 q97 0 135 21.5t50 79.5t-11.5 80t-92.5 22h-99z" />
<glyph unicode="&#xf734;" horiz-adv-x="626" d="M319 0h-346l8 40q239 306 397 469h175l-87 -406h93l-21 -103h-93l-41 -192h-126zM340 103l63 296q-87 -88 -249 -296h186z" />
<glyph unicode="&#xf735;" horiz-adv-x="626" d="M154 509h432l-25 -114h-308l-32 -153q54 4 85 4q144 0 189 -49.5t20 -167.5q-28 -131 -100 -181.5t-223 -50.5q-120 0 -216 25l50 114q62 -20 166 -20q95 0 130 22t48 84q14 67 -9 89.5t-116 22.5q-99 0 -174 -14z" />
<glyph unicode="&#xf736;" horiz-adv-x="626" d="M659 687l-54 -116q-56 23 -159 23q-90 0 -138 -34.5t-73 -138.5q64 11 134 11q145 0 191 -49t21 -168q-27 -131 -95.5 -180t-214.5 -49q-151 0 -193 77t2 291q23 107 54.5 176.5t79.5 110.5t108.5 57t148.5 16q102 0 188 -27zM296 105q74 0 104 22t42 81q13 62 -5 87 t-85 25q-81 0 -143 -10q-13 -65 -13.5 -105.5t12 -62.5t33 -29.5t55.5 -7.5z" />
<glyph unicode="&#xf737;" horiz-adv-x="626" d="M655 509l-9 -39q-94 -113 -232 -316t-216 -346h-149q90 156 207.5 327.5t198.5 259.5h-360l25 114h535z" />
<glyph unicode="&#xf738;" horiz-adv-x="626" d="M282 94q72 0 103.5 23.5t44.5 83.5q13 61 -9.5 87t-91.5 26t-102 -26t-46 -87t8.5 -84t92.5 -23zM351 417q60 0 91.5 22.5t42.5 75.5q11 51 -10 70t-84 19q-64 0 -93 -19t-40 -70q-11 -53 11 -75.5t82 -22.5zM260 -14q-143 0 -193 45.5t-27 156.5q19 87 63.5 132 t138.5 49q-86 8 -107.5 49t-5.5 118q20 95 82 136.5t203 41.5t185 -41.5t24 -136.5q-16 -77 -55 -118t-128 -49q93 -4 118 -49.5t6 -131.5q-23 -111 -91.5 -156.5t-212.5 -45.5z" />
<glyph unicode="&#xf739;" horiz-adv-x="626" d="M78 -192q204 162 285 275q-40 -5 -88 -5q-146 0 -192 46t-21 164q28 132 97.5 184t214.5 52q157 0 201 -50t14 -191q-30 -137 -119.5 -250.5t-227.5 -224.5h-164zM313 190q61 0 109 7q15 32 25 72q8 37 8.5 61t-4.5 39.5t-19.5 23.5t-33 10.5t-49.5 2.5q-74 0 -104.5 -25 t-43.5 -87q-14 -65 7 -84.5t105 -19.5z" />
<glyph unicode="&#xf73f;" horiz-adv-x="482" d="M205 143q48 0 61 -13t4 -57q-10 -48 -29.5 -62.5t-66.5 -14.5q-45 0 -58 14.5t-3 62.5q9 44 27.5 57t64.5 13zM275 202h-123q82 54 119.5 90t47.5 81q5 28 -11 39.5t-66 11.5q-78 0 -143 -18l3 103q97 19 172 19q118 0 161 -31t28 -102q-12 -58 -54.5 -101t-133.5 -92z " />
<glyph unicode="&#xf761;" horiz-adv-x="563" d="M377 0q-11 47 -21 123h-213q-35 -64 -62 -123h-128q109 217 291 509h193q26 -320 70 -509h-130zM324 409h-21q-47 -78 -112 -195h153q-10 83 -20 195z" />
<glyph unicode="&#xf762;" horiz-adv-x="580" d="M163 96h152q29 0 44.5 13.5t22.5 44.5q14 66 -44 66h-149zM230 413l-21 -102h147q26 0 40 12.5t20 39.5q6 29 -3 39.5t-36 10.5h-147zM409 270q71 -2 92 -35.5t8 -95.5q-29 -139 -179 -139h-311l108 509h307q81 0 105 -30.5t11 -91.5q-12 -55 -42 -83.5t-99 -33.5z" />
<glyph unicode="&#xf763;" horiz-adv-x="470" d="M405 118l5 -106q-70 -26 -160 -26q-124 0 -175 61t-20 210q31 148 108 207.5t201 59.5q90 0 150 -24l-51 -106q-53 22 -113 22q-73 0 -109.5 -30.5t-57.5 -130.5q-21 -96 2.5 -128.5t95.5 -32.5q59 0 124 24z" />
<glyph unicode="&#xf764;" horiz-adv-x="584" d="M127 509h216q129 0 176 -54.5t17 -197.5q-30 -144 -101 -200.5t-200 -56.5h-216zM313 413h-83l-67 -317h83q70 0 105.5 31.5t56.5 127.5q9 41 9.5 69.5t-5 46t-20 27t-32.5 12.5t-47 3z" />
<glyph unicode="&#xf765;" horiz-adv-x="505" d="M525 509l-22 -101h-274l-20 -95h210l-20 -95h-210l-25 -117h274l-21 -101h-398l108 509h398z" />
<glyph unicode="&#xf766;" horiz-adv-x="474" d="M19 0l108 509h398l-22 -101h-274l-25 -120h210l-21 -97h-210l-40 -191h-124z" />
<glyph unicode="&#xf767;" horiz-adv-x="569" d="M518 297l-59 -276q-105 -35 -209 -35q-123 0 -174.5 61t-20.5 210q31 147 112 207t207 60q100 0 165 -24l-54 -102q-57 22 -129 22q-74 0 -113 -32.5t-60 -132.5q-21 -96 4 -130.5t94 -34.5q49 0 85 14l20 96h-108l21 97h219z" />
<glyph unicode="&#xf768;" horiz-adv-x="587" d="M388 216h-200l-45 -216h-124l108 509h124l-40 -187h200l40 187h124l-108 -509h-124z" />
<glyph unicode="&#xf769;" horiz-adv-x="262" d="M251 509l-108 -509h-124l108 509h124z" />
<glyph unicode="&#xf76a;" horiz-adv-x="414" d="M404 509l-71 -333q-41 -190 -238 -190q-84 0 -144 23l47 106q47 -20 108 -20q86 0 105 90l69 324h124z" />
<glyph unicode="&#xf76b;" horiz-adv-x="551" d="M502 0h-146q-121 252 -156 269l-57 -269h-124l108 509h124l-51 -240q56 39 248 240h147q-177 -186 -244 -231q18 -13 59 -86t92 -192z" />
<glyph unicode="&#xf76c;" horiz-adv-x="432" d="M251 509l-85 -398h240l-23 -111h-364l108 509h124z" />
<glyph unicode="&#xf76d;" horiz-adv-x="753" d="M375 206q92 156 194 303h173l-108 -509h-123l78 371q-103 -152 -212 -341h-93q-39 242 -64 341l-78 -371h-123l108 509h181q34 -128 67 -303z" />
<glyph unicode="&#xf76e;" horiz-adv-x="593" d="M392 198l66 311h124l-108 -509h-124q-71 205 -139 321l-68 -321h-124l108 509h122q94 -170 143 -311z" />
<glyph unicode="&#xf76f;" d="M240 -14q-127 0 -172 59.5t-13 211.5q32 150 102.5 208.5t196.5 58.5q128 0 173.5 -58t13.5 -209q-32 -152 -102.5 -211.5t-198.5 -59.5zM332 423q-68 0 -97 -31t-52 -137q-21 -106 -5 -137t83 -31q69 0 99.5 32.5t52.5 135.5q21 109 4.5 138.5t-85.5 29.5z" />
<glyph unicode="&#xf770;" horiz-adv-x="563" d="M377 413h-147l-29 -137h147q55 0 69 67q16 70 -40 70zM364 185h-182l-39 -185h-124l108 509h296q84 0 113.5 -40.5t11.5 -123.5q-35 -160 -184 -160z" />
<glyph unicode="&#xf771;" d="M230 -14q-117 0 -162 60.5t-13 210.5t102.5 208.5t196.5 58.5q128 0 173.5 -58t13.5 -209q-23 -108 -64.5 -166.5t-108.5 -82.5q33 -8 66.5 -52t78.5 -138h-139q-74 168 -144 168zM333 424q-68 0 -97.5 -31.5t-52.5 -137.5q-21 -106 -5 -137.5t83 -31.5q68 0 99 33 t53 136q21 109 5 139t-85 30z" />
<glyph unicode="&#xf772;" horiz-adv-x="574" d="M427 509q156 0 125 -149q-28 -135 -170 -140q39 -10 65.5 -50.5t71.5 -169.5h-144q-35 109 -61.5 145t-61.5 36h-71l-38 -181h-124l108 509h300zM202 279h141q62 0 77 66q13 64 -48 64h-143z" />
<glyph unicode="&#xf773;" horiz-adv-x="491" d="M489 496l-48 -97q-68 24 -143 24q-51 0 -73.5 -11t-30.5 -48q-6 -26 13 -37.5t80 -17.5q92 -10 126 -44t19 -109q-20 -94 -84 -132t-170 -38t-177 27l47 98q63 -24 146 -24q55 0 80 12t33 50q6 28 -13.5 41.5t-82.5 19.5q-88 7 -122.5 38.5t-18.5 106.5q20 93 84.5 131 t169.5 38q88 0 165 -28z" />
<glyph unicode="&#xf774;" horiz-adv-x="485" d="M339 401l-85 -401h-124l85 401h-175l23 108h475l-23 -108h-176z" />
<glyph unicode="&#xf775;" horiz-adv-x="578" d="M259 97q58 0 83 23t38 79l66 310h123l-65 -303q-26 -124 -85.5 -172t-182.5 -48t-163 48.5t-14 171.5l65 303h124l-66 -310q-12 -56 3.5 -79t73.5 -23z" />
<glyph unicode="&#xf776;" horiz-adv-x="522" d="M240 125q133 225 208 384h126q-118 -232 -291 -509h-153q-22 300 -63 509h129q32 -180 44 -384z" />
<glyph unicode="&#xf777;" horiz-adv-x="830" d="M437 341q-76 -172 -170 -341h-153q-20 292 -56 509h131q28 -172 34 -382q103 184 192 382h121q21 -173 21 -382q130 227 200 382h126q-129 -262 -282 -509h-154q2 204 -10 341z" />
<glyph unicode="&#xf778;" horiz-adv-x="521" d="M466 0h-140q-24 60 -73 161q-74 -78 -159 -161h-138q95 89 251 254q-76 152 -142 255h148q38 -63 84 -156q53 57 138 156h138q-94 -107 -229 -251q64 -128 122 -258z" />
<glyph unicode="&#xf779;" horiz-adv-x="487" d="M270 332q77 74 164 177h136q-138 -158 -261 -278l-49 -231h-124l49 231q-90 181 -152 278h144q44 -71 93 -177z" />
<glyph unicode="&#xf77a;" horiz-adv-x="497" d="M93 509h439l-6 -25q-71 -85 -173.5 -198t-168.5 -178h255l-22 -108h-449l5 25q200 200 346 376h-249z" />
<glyph unicode="&#xf7a1;" horiz-adv-x="327" d="M185 0h-143l91 302h91zM192 369q-47 0 -60.5 13t-4.5 57q10 48 29.5 63t66.5 15q45 0 58.5 -15t3.5 -63q-9 -44 -28 -57t-65 -13z" />
<glyph unicode="&#xf7bf;" horiz-adv-x="482" d="M279 376q-47 0 -60 13t-4 57q10 48 29.5 63t66.5 15q45 0 58 -15t3 -63q-9 -44 -28 -57t-65 -13zM210 317h123q-84 -56 -121 -91.5t-47 -81.5q-5 -27 12 -38t66 -11q76 0 143 18l-2 -103q-87 -17 -172 -17q-117 0 -161.5 29.5t-30.5 98.5q13 60 55 103.5t135 92.5z" />
<glyph unicode="&#xf7e0;" horiz-adv-x="563" d="M377 0q-11 47 -21 123h-213q-35 -64 -62 -123h-128q109 217 291 509h193q26 -320 70 -509h-130zM324 409h-21q-47 -78 -112 -195h153q-10 83 -20 195zM455 568h-110l-116 129h132z" />
<glyph unicode="&#xf7e1;" horiz-adv-x="563" d="M377 0q-11 47 -21 123h-213q-35 -64 -62 -123h-128q109 217 291 509h193q26 -320 70 -509h-130zM324 409h-21q-47 -78 -112 -195h153q-10 83 -20 195zM361 568h-109l149 129h133z" />
<glyph unicode="&#xf7e2;" horiz-adv-x="563" d="M377 0q-11 47 -21 123h-213q-35 -64 -62 -123h-128q109 217 291 509h193q26 -320 70 -509h-130zM324 409h-21q-47 -78 -112 -195h153q-10 83 -20 195zM536 568h-117l-55 76l-85 -76h-113l150 129h122z" />
<glyph unicode="&#xf7e3;" horiz-adv-x="563" d="M377 0q-11 47 -21 123h-213q-35 -64 -62 -123h-128q109 217 291 509h193q26 -320 70 -509h-130zM324 409h-21q-47 -78 -112 -195h153q-10 83 -20 195zM499 702l51 -50q-52 -93 -137 -93q-31 0 -68.5 26.5t-60.5 26.5q-32 0 -63 -51l-45 55q64 81 127 81q37 0 73 -26.5 t57 -26.5q18 0 32.5 12.5t33.5 45.5z" />
<glyph unicode="&#xf7e4;" horiz-adv-x="563" d="M377 0q-11 47 -21 123h-213q-35 -64 -62 -123h-128q109 217 291 509h193q26 -320 70 -509h-130zM324 409h-21q-47 -78 -112 -195h153q-10 83 -20 195zM266 681q35 0 45.5 -10t3.5 -45q-9 -38 -24 -50t-50 -12t-44.5 11.5t-0.5 50.5q7 35 21 45t49 10zM480 681 q35 0 45 -10t3 -45q-9 -38 -24 -50t-49 -12q-36 0 -45.5 11.5t-0.5 50.5q7 35 21 45t50 10z" />
<glyph unicode="&#xf7e5;" horiz-adv-x="563" d="M377 0q-11 47 -21 123h-213q-35 -64 -62 -123h-128q109 217 291 509h193q26 -320 70 -509h-130zM324 409h-21q-47 -78 -112 -195h153q-10 83 -20 195zM384 741q61 0 85 -22.5t13 -75.5t-44.5 -75.5t-95.5 -22.5t-86 22.5t-13 75.5t44 75.5t97 22.5zM372 684 q-30 0 -42 -9.5t-17 -33.5q-5 -23 3.5 -33t37.5 -10t41.5 10t17.5 33q5 24 -3 33.5t-38 9.5z" />
<glyph unicode="&#xf7e6;" horiz-adv-x="808" d="M722 313l-20 -95h-210l-25 -117h274l-21 -101h-398l26 125h-224q-72 -83 -106 -125h-135q196 233 465 509h480l-22 -101h-274l-20 -95h210zM387 417q-89 -94 -183 -200h164l42 200h-23z" />
<glyph unicode="&#xf7e7;" horiz-adv-x="470" d="M405 118l5 -106q-66 -24 -154 -26l-6 -28q60 0 81.5 -17t11.5 -61q-10 -47 -44.5 -65t-110.5 -18q-62 0 -94 16l33 54q23 -12 69 -12q23 0 33 5.5t13 20.5q4 19 -14.5 24t-73.5 2l49 82q-99 10 -138 72t-10 196q31 148 108 207.5t201 59.5q90 0 150 -24l-51 -106 q-53 22 -113 22q-73 0 -109.5 -30.5t-57.5 -130.5q-21 -96 2.5 -128.5t95.5 -32.5q59 0 124 24z" />
<glyph unicode="&#xf7e8;" horiz-adv-x="505" d="M525 509l-22 -101h-274l-20 -95h210l-20 -95h-210l-25 -117h274l-21 -101h-398l108 509h398zM455 568h-110l-116 129h132z" />
<glyph unicode="&#xf7e9;" horiz-adv-x="505" d="M525 509l-22 -101h-274l-20 -95h210l-20 -95h-210l-25 -117h274l-21 -101h-398l108 509h398zM357 568h-109l149 129h133z" />
<glyph unicode="&#xf7ea;" horiz-adv-x="505" d="M525 509l-22 -101h-274l-20 -95h210l-20 -95h-210l-25 -117h274l-21 -101h-398l108 509h398zM537 568h-117l-55 76l-85 -76h-113l150 129h122z" />
<glyph unicode="&#xf7eb;" horiz-adv-x="505" d="M525 509l-22 -101h-274l-20 -95h210l-20 -95h-210l-25 -117h274l-21 -101h-398l108 509h398zM268 681q35 0 45.5 -10t3.5 -45q-9 -38 -24 -50t-50 -12t-44.5 11.5t-0.5 50.5q7 35 21 45t49 10zM482 681q35 0 45 -10t3 -45q-9 -38 -24 -50t-49 -12q-36 0 -45.5 11.5 t-0.5 50.5q7 35 21 45t50 10z" />
<glyph unicode="&#xf7ec;" horiz-adv-x="262" d="M251 509l-108 -509h-124l108 509h124zM284 568h-110l-116 129h132z" />
<glyph unicode="&#xf7ed;" horiz-adv-x="262" d="M251 509l-108 -509h-124l108 509h124zM223 568h-109l149 129h133z" />
<glyph unicode="&#xf7ee;" horiz-adv-x="262" d="M251 509l-108 -509h-124l108 509h124zM387 568h-117l-55 76l-85 -76h-113l150 129h122z" />
<glyph unicode="&#xf7ef;" horiz-adv-x="262" d="M251 509l-108 -509h-124l108 509h124zM119 681q35 0 45.5 -10t3.5 -45q-9 -38 -24 -50t-50 -12t-44.5 11.5t-0.5 50.5q7 35 21 45t49 10zM333 681q35 0 45 -10t3 -45q-9 -38 -24 -50t-49 -12q-36 0 -45.5 11.5t-0.5 50.5q7 35 21 45t50 10z" />
<glyph unicode="&#xf7f0;" horiz-adv-x="584" d="M18 220l19 90h47l43 199h216q129 0 176 -54.5t17 -197.5q-30 -144 -101 -200.5t-200 -56.5h-216l46 220h-47zM313 413h-83l-22 -103h89l-19 -90h-89l-26 -124h83q70 0 105.5 31.5t56.5 127.5q9 41 9.5 69.5t-5 46t-20 27t-32.5 12.5t-47 3z" />
<glyph unicode="&#xf7f1;" horiz-adv-x="593" d="M392 198l66 311h124l-108 -509h-124q-71 205 -139 321l-68 -321h-124l108 509h122q94 -170 143 -311zM523 702l51 -50q-52 -93 -137 -93q-31 0 -68.5 26.5t-60.5 26.5q-32 0 -63 -51l-45 55q64 81 127 81q37 0 73 -26.5t57 -26.5q18 0 32.5 12.5t33.5 45.5z" />
<glyph unicode="&#xf7f2;" d="M240 -14q-127 0 -172 59.5t-13 211.5q32 150 102.5 208.5t196.5 58.5q128 0 173.5 -58t13.5 -209q-32 -152 -102.5 -211.5t-198.5 -59.5zM333 424q-68 0 -97.5 -31.5t-52.5 -137.5q-21 -106 -5 -137.5t83 -31.5q68 0 99 33t53 136q21 109 5 139t-85 30zM467 568h-110 l-116 129h132z" />
<glyph unicode="&#xf7f3;" d="M240 -14q-127 0 -172 59.5t-13 211.5q32 150 102.5 208.5t196.5 58.5q128 0 173.5 -58t13.5 -209q-32 -152 -102.5 -211.5t-198.5 -59.5zM333 424q-68 0 -97.5 -31.5t-52.5 -137.5q-21 -106 -5 -137.5t83 -31.5q68 0 99 33t53 136q21 109 5 139t-85 30zM377 568h-109 l149 129h133z" />
<glyph unicode="&#xf7f4;" d="M240 -14q-127 0 -172 59.5t-13 211.5q32 150 102.5 208.5t196.5 58.5q128 0 173.5 -58t13.5 -209q-32 -152 -102.5 -211.5t-198.5 -59.5zM333 424q-68 0 -97.5 -31.5t-52.5 -137.5q-21 -106 -5 -137.5t83 -31.5q68 0 99 33t53 136q21 109 5 139t-85 30zM547 568h-117 l-55 76l-85 -76h-113l150 129h122z" />
<glyph unicode="&#xf7f5;" d="M240 -14q-127 0 -172 59.5t-13 211.5q32 150 102.5 208.5t196.5 58.5q128 0 173.5 -58t13.5 -209q-32 -152 -102.5 -211.5t-198.5 -59.5zM333 424q-68 0 -97.5 -31.5t-52.5 -137.5q-21 -106 -5 -137.5t83 -31.5q68 0 99 33t53 136q21 109 5 139t-85 30zM512 702l51 -50 q-52 -93 -137 -93q-31 0 -68.5 26.5t-60.5 26.5q-32 0 -63 -51l-45 55q64 81 127 81q37 0 73 -26.5t57 -26.5q18 0 32.5 12.5t33.5 45.5z" />
<glyph unicode="&#xf7f6;" d="M240 -14q-127 0 -172 59.5t-13 211.5q32 150 102.5 208.5t196.5 58.5q128 0 173.5 -58t13.5 -209q-32 -152 -102.5 -211.5t-198.5 -59.5zM333 424q-68 0 -97.5 -31.5t-52.5 -137.5q-21 -106 -5 -137.5t83 -31.5q68 0 99 33t53 136q21 109 5 139t-85 30zM280 681 q35 0 45.5 -10t3.5 -45q-9 -38 -24 -50t-50 -12t-44.5 11.5t-0.5 50.5q7 35 21 45t49 10zM494 681q35 0 45 -10t3 -45q-9 -38 -24 -50t-49 -12q-36 0 -45.5 11.5t-0.5 50.5q7 35 21 45t50 10z" />
<glyph unicode="&#xf7f8;" d="M520 509h107l-83 -76q22 -63 -3 -176q-32 -152 -102.5 -211.5t-198.5 -59.5q-97 0 -144 33l-21 -19h-105l82 76q-22 65 3 181q32 150 102.5 208.5t196.5 58.5q101 0 146 -33zM332 423q-66 0 -97 -28.5t-50 -119.5q-10 -50 -12 -89l234 220q-20 17 -75 17zM261 87 q69 0 99.5 35t51.5 131q9 37 9 68l-232 -217q18 -17 72 -17z" />
<glyph unicode="&#xf7f9;" horiz-adv-x="578" d="M259 97q58 0 83 23t38 79l66 310h123l-65 -303q-26 -124 -85.5 -172t-182.5 -48t-163 48.5t-14 171.5l65 303h124l-66 -310q-12 -56 3.5 -79t73.5 -23zM460 568h-110l-116 129h132z" />
<glyph unicode="&#xf7fa;" horiz-adv-x="578" d="M259 97q58 0 83 23t38 79l66 310h123l-65 -303q-26 -124 -85.5 -172t-182.5 -48t-163 48.5t-14 171.5l65 303h124l-66 -310q-12 -56 3.5 -79t73.5 -23zM364 568h-109l149 129h133z" />
<glyph unicode="&#xf7fb;" horiz-adv-x="578" d="M259 97q58 0 83 23t38 79l66 310h123l-65 -303q-26 -124 -85.5 -172t-182.5 -48t-163 48.5t-14 171.5l65 303h124l-66 -310q-12 -56 3.5 -79t73.5 -23zM543 568h-117l-55 76l-85 -76h-113l150 129h122z" />
<glyph unicode="&#xf7fc;" horiz-adv-x="578" d="M259 97q58 0 83 23t38 79l66 310h123l-65 -303q-26 -124 -85.5 -172t-182.5 -48t-163 48.5t-14 171.5l65 303h124l-66 -310q-12 -56 3.5 -79t73.5 -23zM277 681q35 0 45.5 -10t3.5 -45q-9 -38 -24 -50t-50 -12t-44.5 11.5t-0.5 50.5q7 35 21 45t49 10zM491 681 q35 0 45 -10t3 -45q-9 -38 -24 -50t-49 -12q-36 0 -45.5 11.5t-0.5 50.5q7 35 21 45t50 10z" />
<glyph unicode="&#xf7fd;" horiz-adv-x="487" d="M270 332q77 74 164 177h136q-138 -158 -261 -278l-49 -231h-124l49 231q-90 181 -152 278h144q44 -71 93 -177zM335 568h-109l149 129h133z" />
<glyph unicode="&#xf7fe;" horiz-adv-x="563" d="M163 97l-20 -97h-124l108 509h124l-19 -88h172q84 0 113.5 -40.5t11.5 -123.5q-33 -160 -184 -160h-182zM359 325h-147l-30 -137h147q56 0 70 67q14 70 -40 70z" />
<glyph unicode="&#xf7ff;" horiz-adv-x="487" d="M270 332q77 74 164 177h136q-138 -158 -261 -278l-49 -231h-124l49 231q-90 181 -152 278h144q44 -71 93 -177zM239 681q35 0 45.5 -10t3.5 -45q-9 -38 -24 -50t-50 -12t-44.5 11.5t-0.5 50.5q7 35 21 45t49 10zM453 681q35 0 45 -10t3 -45q-9 -38 -24 -50t-49 -12 q-36 0 -45.5 11.5t-0.5 50.5q7 35 21 45t50 10z" />
<glyph unicode="&#xfb06;" horiz-adv-x="894" d="M559 171l49 230q-76 1 -184.5 11.5t-125.5 10.5q-51 0 -73.5 -11t-30.5 -48q-6 -26 13 -37.5t80 -17.5q92 -10 126 -44t19 -109q-20 -94 -84 -132t-170 -38t-177 27l47 98q63 -24 146 -24q55 0 80 12t33 50q6 28 -13.5 41.5t-82.5 19.5q-88 7 -122.5 38.5t-18.5 106.5 q20 93 84.5 131t169.5 38q19 0 131.5 -7.5t175.5 -7.5l18 86l135 51l-29 -137h169l-23 -108h-169l-47 -219q-10 -48 3 -68.5t57 -20.5q43 0 88 14l1 -98q-65 -23 -142 -23q-91 0 -123.5 38.5t-9.5 146.5z" />
<glyph unicode="&#xfe59;" horiz-adv-x="345" d="M71 250q70 332 302 409l37 -92q-47 -17 -82 -46t-70 -97.5t-57 -173.5q-17 -80 -18.5 -137.5t11.5 -92.5t32 -55t49 -32l-76 -92q-91 35 -128 134.5t0 274.5z" />
<glyph unicode="&#xfe5a;" horiz-adv-x="345" d="M280 250q-37 -175 -117 -275t-186 -135l-36 93q47 17 82 46t70 97.5t57 173.5q17 79 18.5 137t-12 93t-32.5 54.5t-49 31.5l77 93q90 -35 127.5 -135t0.5 -274z" />
<glyph unicode="&#xfe5b;" horiz-adv-x="356" d="M29 201l21 98q48 0 81.5 32t52.5 120q37 175 200 213l32 -90q-53 -15 -82 -48t-47 -117q-29 -141 -126 -159q89 -18 58 -161q-15 -57 -8.5 -91t21 -48.5t46.5 -24.5q-42 -53 -70 -89q-146 38 -109 213q19 88 -1.5 120t-68.5 32z" />
<glyph unicode="&#xfe5c;" horiz-adv-x="356" d="M332 299l-21 -99q-49 0 -82.5 -32t-52.5 -120q-37 -175 -200 -213l-30 90q52 15 81 48.5t47 117.5q29 141 126 159q-89 15 -58 160q15 57 9 91.5t-21 49t-47 24.5l70 89q145 -39 108 -213q-19 -88 1.5 -120t69.5 -32z" />
<glyph unicode="&#xfe5f;" horiz-adv-x="597" d="M57 314l24 85h102l31 110h105l-31 -110h99l31 110h105l-31 -110h109l-24 -85h-109l-30 -108h111l-24 -85h-110l-34 -121h-105l34 121h-100l-33 -121h-105l33 121h-100l24 85h100l30 108h-102zM264 314l-30 -108h99l30 108h-99z" />
<glyph unicode="&#xfe69;" horiz-adv-x="520" d="M306 620h69l-21 -102q85 -2 148 -24l-46 -94q-41 14 -124 18l-24 -114q83 -12 116.5 -47t18.5 -104q-30 -140 -201 -161l-24 -110h-69l23 108q-95 2 -157 23l48 97q50 -16 131 -20l26 122q-83 9 -117.5 41t-19.5 103q30 141 201 160zM195 362q-5 -21 5.5 -32t40.5 -16 l22 104q-57 -8 -68 -56zM332 149q5 22 -4.5 34.5t-41.5 18.5l-23 -110q59 8 69 57z" />
<glyph unicode="&#xfe6a;" horiz-adv-x="763" d="M572 509h106l-483 -509h-104zM233 524q79 0 105.5 -33.5t6.5 -124.5q-20 -93 -61 -128.5t-120 -35.5q-78 0 -104.5 35.5t-6.5 128.5q20 91 60.5 124.5t119.5 33.5zM179 270q33 0 47.5 19t26.5 76t6 74.5t-40 17.5q-33 0 -48 -18t-27 -74t-4.5 -75.5t39.5 -19.5zM605 307 q79 0 105.5 -33t6.5 -124q-20 -94 -60.5 -129t-119.5 -35q-78 0 -105 35.5t-7 128.5q20 91 60.5 124t119.5 33zM551 54q33 0 47.5 18.5t26.5 76.5q12 57 6 74t-40 17q-33 0 -48 -17.5t-27 -73.5q-12 -57 -4.5 -76t39.5 -19z" />
<glyph unicode="&#xfe6b;" horiz-adv-x="728" d="M377 444q-109 0 -154 -34.5t-69 -149.5q-25 -117 10.5 -154.5t162.5 -37.5q126 0 180 44t82 172q19 91 12 142h98q7 -57 -13 -145q-36 -168 -123 -233t-254 -65q-56 0 -97.5 5t-75 17.5t-53.5 33t-30.5 51.5t-9.5 72.5t13 96.5q33 154 114 212t223 58q44 0 72 -4.5 t50 -17t30 -36t7 -59.5t-12 -90q-13 -63 -28.5 -100t-41 -58t-56.5 -27.5t-82 -6.5q-90 0 -117 25.5t-11 100.5t53 100.5t116 25.5q46 0 83 -5q5 38 -11.5 52.5t-67.5 14.5zM379 309q-38 0 -52 -9t-21 -40t3.5 -41t48.5 -10q35 0 51.5 13.5t24.5 52.5l6 30q-34 4 -61 4z" />
<glyph horiz-adv-x="323" d="M252 871h85q-7 -34 5.5 -46t47.5 -12t54 12.5t26 45.5h80q-30 -137 -179 -137t-119 137z" />
<glyph horiz-adv-x="660" d="M527 747l-55 78l-87 -78h-112l150 129h122l98 -129h-116z" />
<glyph horiz-adv-x="302" d="M287 867q35 0 45 -10.5t3 -45.5q-8 -38 -23 -49.5t-50 -11.5t-44.5 11.5t-1.5 49.5q7 35 21.5 45.5t49.5 10.5z" />
<glyph horiz-adv-x="714" d="M499 890q61 0 85 -22.5t13 -75.5t-44.5 -75.5t-95.5 -22.5t-86 22.5t-13 75.5t44 75.5t97 22.5zM487 834q-29 0 -41.5 -10t-17.5 -33q-6 -23 2.5 -33t37.5 -10t41.5 10t18.5 33q5 24 -3 33.5t-38 9.5z" />
<glyph horiz-adv-x="708" d="M661 879l51 -50q-24 -41 -61 -67t-79 -26q-31 0 -70.5 27t-61.5 27q-31 0 -61 -50l-45 55q62 79 124 79q37 0 77 -26t60 -26q34 0 66 57z" />
<glyph horiz-adv-x="632" d="M417 714q54 0 92 -10t65.5 -34t39.5 -64.5t10 -102t-20 -145.5q-44 -207 -124.5 -289.5t-216.5 -82.5q-67 0 -110 18t-69 61t-25.5 114.5t21.5 178.5q22 105 53 174.5t73.5 109.5t92.5 56t118 16zM288 105q54 0 85 20t54 73t46 160q14 65 18.5 106.5t2 69t-16 40.5 t-33 18t-52.5 5q-55 0 -83.5 -16t-51.5 -66.5t-45 -156.5q-32 -158 -17 -205.5t93 -47.5z" />
<glyph horiz-adv-x="397" d="M259 0h-130l118 556l-171 -67l-13 108l350 129z" />
<glyph horiz-adv-x="609" d="M167 568l-5 114q112 32 230 32q136 0 187.5 -44.5t26.5 -160.5q-12 -56 -30.5 -94t-65.5 -83.5t-117.5 -93t-197.5 -124.5h327l-24 -114h-506l22 106q132 87 201 134t123 87t75.5 66.5t32.5 48t18 56.5q13 56 -11.5 76.5t-97.5 20.5q-111 0 -188 -27z" />
<glyph horiz-adv-x="599" d="M197 310l24 112h96q65 0 95.5 19.5t40.5 69.5q11 49 -15.5 67t-116.5 18q-105 0 -179 -22l-2 114q126 26 231 26q147 0 197 -41t29 -137q-16 -77 -56 -118t-128 -49q92 -4 117.5 -49.5t6.5 -131.5q-24 -112 -97.5 -157t-224.5 -45q-117 0 -224 25l49 114q66 -20 174 -20 q98 0 135 21.5t49 79.5q13 59 -10.5 81.5t-91.5 22.5h-99z" />
<glyph horiz-adv-x="606" d="M352 179h-348l8 41q226 293 400 477h176l-87 -409h93l-23 -109h-93l-38 -179h-126zM375 288l62 295q-126 -130 -250 -295h188z" />
<glyph horiz-adv-x="608" d="M190 697h432l-25 -114h-308l-33 -155q56 4 85 4q144 0 189 -49t20 -168q-27 -131 -98.5 -180t-222.5 -49q-121 0 -217 25l50 114q62 -20 166 -20q95 0 129.5 20.5t48.5 82.5q14 67 -9 89.5t-116 22.5q-101 0 -174 -14z" />
<glyph horiz-adv-x="629" d="M658 687l-54 -116q-56 23 -159 23q-88 0 -137 -35t-74 -138q64 11 134 11q145 0 191 -49t21 -168q-27 -131 -95.5 -180t-214.5 -49q-151 0 -193 77t2 291q23 107 54.5 176.5t79.5 110.5t108.5 57t148.5 16q102 0 188 -27zM295 105q74 0 104 22t42 81q13 62 -5 87t-85 25 q-75 0 -143 -10q-13 -65 -13.5 -105.5t12 -62.5t33 -29.5t55.5 -7.5z" />
<glyph horiz-adv-x="528" d="M645 697l-9 -40q-93 -111 -227.5 -311t-213.5 -346h-149q93 161 206 328.5t193 254.5h-360l25 114h535z" />
<glyph horiz-adv-x="631" d="M285 94q71 0 102.5 23t44.5 84t-9.5 87t-90.5 26q-69 0 -102.5 -26t-46.5 -87t8.5 -84t93.5 -23zM354 417q60 0 91.5 22.5t42.5 75.5q11 51 -10 70t-84 19q-64 0 -93 -19t-40 -70q-11 -53 11 -75.5t82 -22.5zM263 -14h-1q-143 0 -193 45.5t-27 156.5q19 87 63.5 132 t138.5 49q-86 8 -107.5 49t-5.5 118q20 95 82 136.5t203 41.5t185.5 -41.5t24.5 -136.5q-16 -77 -55 -118t-128 -49q92 -4 117 -49.5t6 -131.5q-23 -111 -91.5 -156.5t-211.5 -45.5z" />
<glyph horiz-adv-x="626" d="M118 0q203 161 283 273q-42 -5 -88 -5q-146 0 -192 46t-21 164q28 132 97.5 184t214.5 52q156 0 200 -50t14 -191q-29 -137 -117.5 -249.5t-225.5 -223.5h-165zM351 380q61 0 110 7q15 31 23 72q19 87 -1.5 112t-95.5 25q-74 0 -105 -25t-44 -87q-14 -65 7.5 -84.5 t105.5 -19.5z" />
<glyph d="M580 492l-26 -122q-21 -96 -95.5 -146t-186.5 -50q-44 0 -77 10q-8 -13 -12 -29q-5 -25 22.5 -35.5t107.5 -13.5q108 -3 149.5 -35.5t27.5 -101.5q-20 -94 -97.5 -133.5t-212.5 -39.5q-123 0 -204 27l48 109q71 -29 175 -29q80 0 116.5 13t43.5 43q5 27 -16 35.5 t-106 11.5q-119 4 -155.5 29t-23.5 86q9 46 48 88q-49 38 -29 137q19 88 86.5 133t196.5 45q134 0 220 -32zM428 361l11 49q-42 12 -106 12q-63 0 -90.5 -15.5t-37.5 -59.5q-9 -42 12 -57t81 -15q112 0 130 86z" />
<glyph horiz-adv-x="855" d="M520 171l49 230q-53 0 -133 8t-92 8q-71 0 -105.5 -30.5t-55.5 -131.5q-21 -97 0.5 -129.5t91.5 -32.5q62 0 117 21l6 -102q-70 -26 -153 -26q-121 0 -171 61t-19 210q31 147 107.5 207t196.5 60q21 0 102 -7.5t131 -7.5l18 86l135 51l-29 -137h169l-23 -108h-169 l-47 -219q-10 -48 3 -68.5t57 -20.5q42 0 88 14l1 -98q-65 -23 -142 -23q-91 0 -123.5 38.5t-9.5 146.5z" />
<glyph horiz-adv-x="603" d="M232 -97q-8 30 -37.5 49t-60.5 28t-61 34.5t-39 68t6 128.5q23 106 71 160t116 54q51 0 109 -30q72 29 124 29q141 0 96 -211q-17 -78 -49.5 -127.5t-71 -70.5t-76 -33t-73.5 -30.5t-54 -48.5zM315 294q-40 29 -68 29q-56 0 -80 -112q-14 -56 -3 -86t28 -37t39 -19.5 t29 -34.5q16 22 42 34.5t47.5 19t44 37t34.5 87.5q12 59 5.5 84.5t-32.5 25.5q-25 0 -86 -28zM339 408q14 25 19 53q10 46 -10.5 74t-67.5 28h-211l22 101h603l-22 -101h-245q12 -18 5 -46q-7 -31 -31 -61.5t-62 -47.5z" />
<glyph horiz-adv-x="603" d="M229 -97q-5 26 -26.5 43.5t-47 26t-54 24t-47.5 37.5t-26.5 67t8.5 112q45 211 187 211q49 0 110 -29q72 30 122 30q68 0 93.5 -54t2.5 -160q-14 -66 -39 -112t-53 -67t-62 -37t-63 -24t-58 -25t-47 -43zM336 408q-31 17 -43 47.5t-5 61.5q6 26 26 46h-245l22 101h603 l-22 -101h-211q-47 0 -80 -28t-43 -74q-5 -27 -2 -53z" />
<glyph horiz-adv-x="603" d="M394 664q6 -30 34 -49t59.5 -28.5t62 -35t41 -68t-4.5 -128.5q-44 -212 -186 -212q-51 0 -111 29q-73 -29 -122 -29q-141 0 -96 214q14 66 39.5 112t53.5 67t61.5 37t63 23.5t58.5 24.5t47 43zM311 273q46 -27 74 -27q26 0 43 25.5t30 84.5q9 50 6 74.5t-17.5 39 t-29.5 19t-30.5 16t-20.5 29.5q-17 -22 -44 -34.5t-47.5 -19.5t-42.5 -37t-34 -86q-24 -112 33 -112q26 0 80 28zM287 160q30 -18 41 -48t5 -61q-5 -28 -24 -46h245l-22 -101h-602l21 101h211q47 0 79 28t42 74q6 24 4 53z" />
<glyph horiz-adv-x="603" d="M391 664q7 -26 29 -43t47.5 -25t53 -23t45.5 -37t25 -67t-9 -112q-22 -106 -70 -160t-117 -54q-49 0 -109 29q-73 -29 -123 -29q-141 0 -97 212q12 57 32.5 98.5t45 65t52 39t56 25t53.5 18.5t48.5 24.5t37.5 38.5zM284 160q-14 -25 -21 -53q-10 -46 11.5 -74t68.5 -28 h211l-22 -101h-602l21 101h245q-12 16 -7 46q6 31 31 61t64 48z" />
<glyph horiz-adv-x="843" d="M24 282q28 12 50.5 38t36.5 53.5t36 57.5t48.5 53.5t75.5 39t115 15.5q107 0 152.5 -36.5t31.5 -104.5q-10 -50 -54 -116q15 -66 5 -117q-31 -141 -242 -141q-66 0 -108.5 16t-58.5 40.5t-25.5 55.5t-12 58.5t-14.5 52.5t-36 35zM415 282q39 47 44 74q6 27 -17.5 41.5 t-82.5 14.5q-46 0 -75.5 -9.5t-44.5 -25.5t-25 -32.5t-24.5 -34.5t-35.5 -28q20 -11 27.5 -35t10 -43.5t30 -35.5t83.5 -16q110 0 120 50q6 26 -10 80zM528 282q24 -8 52 -8q46 0 79.5 26.5t43.5 73.5l45 211h101l-128 -603h-101l52 245q-20 -15 -49 -15q-31 0 -57.5 18 t-37.5 52z" />
<glyph horiz-adv-x="843" d="M25 285q33 12 58 44.5t44.5 67.5t47.5 69t82 56t132 22q106 0 151 -36.5t31 -105.5q-10 -48 -54 -117q15 -65 5 -115q-14 -68 -76 -105t-169 -37q-66 0 -108.5 15.5t-58.5 39t-25.5 54t-11.5 58t-13.5 53t-34.5 37.5zM529 285q25 35 59 53t65 18q29 0 43 -16l52 245h101 l-128 -603h-101l45 211q10 47 -12.5 74t-68.5 27q-25 0 -55 -9z" />
<glyph horiz-adv-x="843" d="M838 283q-28 -11 -51 -35.5t-37 -52.5t-36.5 -59t-49 -55.5t-76 -40.5t-115.5 -16q-105 0 -150.5 36.5t-30.5 105.5q10 51 54 117q-16 64 -6 115q14 68 76 105t168 37q66 0 108.5 -15.5t59 -39t26 -54t11.5 -58t14 -53t35 -37.5zM447 283q-40 -55 -45 -80q-6 -27 17 -39 t82 -12q46 0 76.5 10t45.5 26t25 33t24.5 35t34.5 27q-19 12 -27 36t-10.5 43.5t-29.5 34.5t-83 15q-111 0 -124 -55q-5 -27 14 -74zM333 283q-25 -35 -59 -53t-65 -18q-27 0 -43 16l-52 -245h-101l128 603h101l-45 -211q-10 -47 12.5 -74t68.5 -27q25 0 55 9z" />
<glyph horiz-adv-x="843" d="M838 286q-28 -12 -50.5 -38t-36.5 -53.5t-36 -57.5t-48.5 -53.5t-75.5 -39t-115 -15.5q-106 0 -152 36.5t-32 104.5q10 50 54 116q-15 64 -4 117q31 141 241 141q66 0 108.5 -16t59 -40.5t25.5 -55.5t11.5 -58.5t14.5 -52.5t36 -35zM333 286q-21 8 -51 8 q-46 0 -79.5 -26.5t-43.5 -73.5l-45 -211h-101l128 603h101l-52 -245q21 15 49 15q31 0 57.5 -18t36.5 -52z" />
<glyph horiz-adv-x="837" d="M802 355q-44 -208 -147 -288.5t-290 -80.5q-61 0 -107.5 7.5t-84 24.5t-60.5 45t-35 68.5t-10 96t17 127.5q43 204 145 281.5t289 77.5q61 0 107.5 -7t84.5 -23t61 -43t35.5 -67t11 -94.5t-16.5 -124.5zM542 411q6 31 -0.5 45.5t-30.5 14.5h-95l-25 -117h93q46 0 58 57z M648 410q-15 -69 -52.5 -107.5t-96.5 -38.5h-127l-26 -122h-105l88 417h231q120 0 88 -149zM500 622q-74 0 -119 -9t-83 -38t-61.5 -81.5t-41.5 -139.5q-15 -71 -16.5 -118.5t8.5 -79t37 -48.5t64 -23.5t96 -6.5q74 0 120 10t84 40.5t61.5 84t42.5 141.5q15 70 16 117 t-9 77.5t-38 46t-64.5 21.5t-96.5 6z" />
<glyph horiz-adv-x="770" d="M464 614q-99 0 -155.5 -55.5t-88.5 -202.5q-32 -150 1 -210t131 -60q99 0 157 59.5t90 210.5q32 147 -1.5 202.5t-133.5 55.5zM370 171q-56 0 -67.5 35t11.5 150q24 112 49 143.5t83 31.5q59 0 71 -29.5t-11 -145.5q-24 -113 -51 -149t-85 -36zM486 714q57 0 100 -7 t77.5 -23t55.5 -43t31.5 -67t8 -94.5t-17.5 -124.5q-23 -107 -58 -179t-87 -113.5t-115 -59t-149 -17.5q-69 0 -118 10.5t-85 36t-52.5 68t-16.5 105.5t18 149q22 105 57 175.5t87 110.5t114.5 56.5t149.5 16.5z" />
<glyph horiz-adv-x="770" d="M325 100h92l112 526l-252 -93l9 -77l125 49zM486 714q57 0 100 -7t77.5 -23t55.5 -43t31.5 -67t8 -94.5t-17.5 -124.5q-23 -107 -58 -179t-87 -113.5t-115 -59t-149 -17.5q-69 0 -118 10.5t-85 36t-52.5 68t-16.5 105.5t18 149q22 105 57 175.5t87 110.5t114.5 56.5 t149.5 16.5z" />
<glyph horiz-adv-x="770" d="M486 714q57 0 100 -7t77.5 -23t55.5 -43t31.5 -67t8 -94.5t-17.5 -124.5q-23 -107 -58 -179t-87 -113.5t-115 -59t-149 -17.5q-69 0 -118 10.5t-85 36t-52.5 68t-16.5 105.5t18 149q22 105 57 175.5t87 110.5t114.5 56.5t149.5 16.5zM286 592l3 -80q61 19 137 19 q53 0 71 -15.5t9 -56.5q-7 -31 -15.5 -48.5t-46.5 -50.5t-92.5 -70.5t-173.5 -116.5l-16 -75h366l18 81h-239q123 74 180.5 118t82.5 80t37 90q17 84 -20.5 116.5t-135.5 32.5q-88 0 -165 -24z" />
<glyph horiz-adv-x="770" d="M340 402l-17 -81h71q52 0 69 -16.5t8 -59.5q-9 -42 -36.5 -58t-99.5 -16q-80 0 -126 15l-35 -81q73 -19 161 -19q110 0 163.5 33t70.5 114q13 62 -5 95t-85 36q64 6 92 35.5t40 85.5q15 70 -21 99.5t-143 29.5q-79 0 -166 -19l1 -81q55 15 129 15q66 0 85.5 -13t11.5 -48 q-8 -37 -29.5 -51.5t-68.5 -14.5h-70zM486 714q57 0 100 -7t77.5 -23t55.5 -43t31.5 -67t8 -94.5t-17.5 -124.5q-23 -107 -58 -179t-87 -113.5t-115 -59t-149 -17.5q-69 0 -118 10.5t-85 36t-52.5 68t-16.5 105.5t18 149q22 105 57 175.5t87 110.5t114.5 56.5t149.5 16.5z " />
<glyph horiz-adv-x="770" d="M160 226h252l-28 -130h91l28 130h67l16 78h-67l63 297h-127q-134 -141 -289 -346zM474 520l-46 -216h-138q100 130 184 216zM486 714q57 0 100 -7t77.5 -23t55.5 -43t31.5 -67t8 -94.5t-17.5 -124.5q-23 -107 -58 -179t-87 -113.5t-115 -59t-149 -17.5q-69 0 -118 10.5 t-85 36t-52.5 68t-16.5 105.5t18 149q22 105 57 175.5t87 110.5t114.5 56.5t149.5 16.5z" />
<glyph horiz-adv-x="770" d="M616 599h-312l-60 -282q58 10 126 10t85.5 -16.5t7.5 -65.5q-10 -46 -36 -61t-96 -15q-77 0 -120 15l-36 -82q70 -18 156 -18q110 0 161.5 35.5t71.5 129.5q18 86 -14 122t-137 36q-32 0 -62 -3l24 112h223zM486 714q57 0 100 -7t77.5 -23t55.5 -43t31.5 -67t8 -94.5 t-17.5 -124.5q-23 -107 -58 -179t-87 -113.5t-115 -59t-149 -17.5q-69 0 -118 10.5t-85 36t-52.5 68t-16.5 105.5t18 149q22 105 57 175.5t87 110.5t114.5 56.5t149.5 16.5z" />
<glyph horiz-adv-x="770" d="M596 511l39 83q-62 20 -136 20q-126 0 -189 -55t-94 -206q-32 -155 -1.5 -211t139.5 -56q105 0 154.5 35.5t69.5 130.5q18 86 -15.5 121.5t-138.5 35.5q-57 0 -98 -8q21 79 53.5 103t101.5 24q73 0 115 -17zM479 247q-9 -43 -31 -59.5t-76 -16.5q-52 0 -66 27.5t2 123.5 q45 7 89 7q60 0 76 -17t6 -65zM486 714q57 0 100 -7t77.5 -23t55.5 -43t31.5 -67t8 -94.5t-17.5 -124.5q-23 -107 -58 -179t-87 -113.5t-115 -59t-149 -17.5q-69 0 -118 10.5t-85 36t-52.5 68t-16.5 105.5t18 149q22 105 57 175.5t87 110.5t114.5 56.5t149.5 16.5z" />
<glyph horiz-adv-x="770" d="M244 96h101q150 262 328 505h-392l-17 -83h254q-152 -206 -274 -422zM486 714q57 0 100 -7t77.5 -23t55.5 -43t31.5 -67t8 -94.5t-17.5 -124.5q-23 -107 -58 -179t-87 -113.5t-115 -59t-149 -17.5q-69 0 -118 10.5t-85 36t-52.5 68t-16.5 105.5t18 149q22 105 57 175.5 t87 110.5t114.5 56.5t149.5 16.5z" />
<glyph horiz-adv-x="770" d="M369 163q-53 0 -69 17t-6 62q9 45 33.5 63.5t75.5 18.5q50 0 66.5 -18.5t7.5 -63.5q-10 -45 -33 -62t-75 -17zM419 398q-45 0 -61 16.5t-8 55.5q8 37 29.5 51t68.5 14q46 0 61 -14t7 -51q-8 -39 -30.5 -55.5t-66.5 -16.5zM352 86h1q103 0 153 33t67 114q13 62 -5 95 t-85 36q65 6 93.5 35.5t40.5 85.5q14 69 -18.5 99t-134.5 30t-147 -30t-59 -99q-12 -56 4 -85.5t78 -35.5q-69 -3 -101 -36t-45 -95q-17 -81 19 -114t139 -33zM486 714q57 0 100 -7t77.5 -23t55.5 -43t31.5 -67t8 -94.5t-17.5 -124.5q-23 -107 -58 -179t-87 -113.5t-115 -59 t-149 -17.5q-69 0 -118 10.5t-85 36t-52.5 68t-16.5 105.5t18 149q22 105 57 175.5t87 110.5t114.5 56.5t149.5 16.5z" />
<glyph horiz-adv-x="770" d="M394 293q18 0 66 4q-62 -85 -208 -199h118q100 79 165 161t86 182q22 103 -10 139t-146 36q-104 0 -154.5 -38t-70.5 -133q-18 -85 15 -118.5t139 -33.5zM520 431q-6 -28 -18 -53q-39 -6 -81 -6q-61 0 -76.5 15t-5.5 63q9 45 31.5 63.5t77.5 18.5t70.5 -18.5t1.5 -82.5z M332 -14q-69 0 -118 10.5t-85 36t-52.5 68t-16.5 105.5t18 149q22 105 57 175.5t87 110.5t114.5 56.5t149.5 16.5q57 0 100 -7t77.5 -23t55.5 -43t31.5 -67t8 -94.5t-17.5 -124.5q-23 -107 -58 -179t-87 -113.5t-115 -59t-149 -17.5z" />
<glyph horiz-adv-x="912" d="M220 -14q-54 0 -90 13t-60 44t-26 82.5t12 129.5q20 93 63.5 150t99 82t112 41.5t116.5 48.5t99 84q14 -45 50 -75t75.5 -43t83 -33t72 -45t42.5 -78t-5 -132q-31 -148 -100 -208.5t-178 -60.5q-64 0 -116 29l-44 -207h-123l44 207q-62 -29 -127 -29zM567 474l-71 -334 q-4 -22 22 -35.5t68 -13.5q66 0 98 33.5t52 127.5q12 44 6.5 75.5t-15.5 47t-31.5 28t-41.5 19.5t-45 20.5t-42 31.5zM373 140l71 334q-33 -24 -80.5 -42t-78 -29.5t-60 -48.5t-43.5 -102q-20 -94 -2.5 -127.5t84.5 -33.5q42 0 73.5 13.5t35.5 35.5z" />
<glyph horiz-adv-x="1076" d="M466 -192l121 570q-162 45 -289 45q-51 0 -73.5 -11t-30.5 -48q-6 -26 13 -37.5t80 -17.5q92 -10 126 -44t19 -109q-20 -94 -84 -132t-170 -38t-177 27l47 98q63 -24 146 -24q55 0 80 12t33 50q6 28 -13.5 41.5t-82.5 19.5q-88 7 -122.5 38.5t-18.5 106.5q20 93 84.5 131 t169.5 38q149 0 286 -38q99 38 231 38q130 0 174.5 -58.5t12.5 -210.5q-31 -148 -100 -208.5t-178 -60.5q-64 0 -116 29l-44 -207h-124zM716 402l-56 -262q-4 -22 22 -35.5t68 -13.5q66 0 98 33.5t52 127.5q20 105 3.5 135t-85.5 30q-60 0 -102 -15z" />
<glyph horiz-adv-x="943" d="M725 438l-65 -303q-107 -40 -233 -40q-118 0 -154.5 35t-15.5 134q21 100 74.5 133t148.5 33q61 0 122 -14q15 69 -4 90.5t-100 21.5q-83 0 -131 -9t-86.5 -38t-60 -78t-39.5 -135q-15 -69 -15.5 -114t11.5 -77t44.5 -49t79.5 -24t121 -7q181 0 254 55.5t106 215.5 q24 110 16 167h109q5 -69 -16 -169q-24 -112 -61 -184t-97.5 -114t-138 -58.5t-193.5 -16.5q-75 0 -130.5 7t-100 24t-71 45t-40.5 69.5t-12.5 97.5t17.5 130q23 108 62 180t99 112.5t132 56.5t173 16q129 0 173.5 -41.5t21.5 -151.5zM557 207l27 126q-41 9 -92 9 q-52 0 -77 -14t-34 -59q-10 -45 5.5 -62t69.5 -17q50 0 101 17z" />
<glyph horiz-adv-x="757" d="M638 311l-59 -277q-130 -48 -296 -48q-135 0 -195 46.5t-37 155.5q19 86 64 131.5t139 49.5q-83 8 -104 48.5t-4 117.5q20 93 89 136t191 43q77 0 159 -24l-60 -114q-49 20 -106 20q-68 0 -97.5 -18.5t-40.5 -66.5q-10 -49 10 -69.5t79 -20.5h165l18 85l137 50l-29 -135 h134l-23 -110h-134zM471 121l41 190h-173q-64 0 -96 -23.5t-45 -81.5q-12 -57 15 -79t111 -22q85 0 147 16z" />
<glyph horiz-adv-x="563" d="M377 0q-11 47 -21 123h-213q-35 -64 -62 -123h-128q109 217 291 509h193q26 -320 70 -509h-130zM324 409h-21q-47 -78 -112 -195h153q-10 83 -20 195zM228 697h85q-7 -34 5.5 -46t47.5 -12t54 12.5t26 45.5h80q-30 -137 -179 -137t-119 137z" />
<glyph horiz-adv-x="563" d="M377 0q-11 47 -21 123h-213q-35 -64 -62 -123h-128q109 217 291 509h193q26 -320 70 -509h-130zM324 409h-21q-47 -78 -112 -195h153q-10 83 -20 195zM210 576l19 90h278l-19 -90h-278z" />
<glyph horiz-adv-x="563" d="M377 0q-11 47 -21 123h-213q-35 -64 -62 -123h-128q109 217 291 509h193q26 -320 70 -509h-56q-44 -25 -61 -45t-23 -47q-5 -22 5.5 -31t45.5 -9q52 0 89 27l22 -63q-54 -35 -139 -35q-74 0 -98 21.5t-15 67.5q17 76 119 114h-19zM324 409h-21q-47 -78 -112 -195h153 q-10 83 -20 195z" />
<glyph horiz-adv-x="378" d="M179 657h270l-23 -108h-141l-126 -593h141l-23 -107h-270z" />
<glyph horiz-adv-x="584" d="M127 509h216q129 0 176 -54.5t17 -197.5q-30 -144 -101 -200.5t-200 -56.5h-216zM313 413h-83l-67 -317h83q70 0 105.5 31.5t56.5 127.5q9 41 9.5 69.5t-5 46t-20 27t-32.5 12.5t-47 3zM192 697h117l54 -76l86 76h113l-150 -129h-122z" />
<glyph horiz-adv-x="584" d="M18 220l19 90h47l43 199h216q129 0 176 -54.5t17 -197.5q-30 -144 -101 -200.5t-200 -56.5h-216l46 220h-47zM313 413h-83l-22 -103h89l-19 -90h-89l-26 -124h83q70 0 105.5 31.5t56.5 127.5q9 41 9.5 69.5t-5 46t-20 27t-32.5 12.5t-47 3z" />
<glyph horiz-adv-x="584" d="M127 509h216q129 0 176 -54.5t17 -197.5q-30 -144 -101 -200.5t-200 -56.5h-216zM313 413h-83l-67 -317h83q70 0 105.5 31.5t56.5 127.5q9 41 9.5 69.5t-5 46t-20 27t-32.5 12.5t-47 3zM209 576l19 90h278l-19 -90h-278z" />
<glyph horiz-adv-x="505" d="M525 509l-22 -101h-274l-20 -95h210l-20 -95h-210l-25 -117h274l-21 -101h-398l108 509h398zM206 576l19 90h278l-19 -90h-278z" />
<glyph horiz-adv-x="469" d="M393 104l7 -92q-70 -26 -155 -26q-121 0 -171 61t-19 210q31 148 107 207.5t197 59.5q85 0 145 -24l-47 -92q-46 19 -110 19q-47 0 -77 -14.5t-51 -52.5h187l-15 -69h-200q-2 -8 -8 -36q-5 -19 -6 -32h200l-15 -68h-188q4 -40 28.5 -56t71.5 -16q62 0 119 21z" />
<glyph horiz-adv-x="505" d="M525 509l-22 -101h-274l-20 -95h210l-20 -95h-210l-25 -117h274l-21 -101h-61q-44 -25 -61 -45t-23 -47q-5 -22 5.5 -31t45.5 -9q52 0 89 27l22 -63q-54 -35 -139 -35q-74 0 -98 21.5t-15 67.5q17 76 119 114h-282l108 509h398z" />
<glyph horiz-adv-x="505" d="M525 509l-22 -101h-274l-20 -95h210l-20 -95h-210l-25 -117h274l-21 -101h-398l108 509h398zM201 697h117l54 -76l86 76h113l-150 -129h-122z" />
<glyph horiz-adv-x="505" d="M525 509l-22 -101h-274l-20 -95h210l-20 -95h-210l-25 -117h274l-21 -101h-398l108 509h398zM375 681q35 0 45.5 -10t3.5 -45q-9 -38 -24 -50t-50 -12t-44.5 11.5t-0.5 50.5q7 35 21 45t49 10z" />
<glyph horiz-adv-x="505" d="M525 509l-22 -101h-274l-20 -95h210l-20 -95h-210l-25 -117h274l-21 -101h-398l108 509h398zM229 697h85q-7 -34 5.5 -46t47.5 -12t54 12.5t26 45.5h80q-30 -137 -179 -137t-119 137z" />
<glyph horiz-adv-x="569" d="M518 297l-59 -276q-105 -35 -209 -35q-123 0 -174.5 61t-20.5 210q31 147 112 207t207 60q100 0 165 -24l-54 -102q-57 22 -129 22q-74 0 -113 -32.5t-60 -132.5q-21 -96 4 -130.5t94 -34.5q49 0 85 14l20 96h-108l21 97h219zM378 568h-109l149 129h133z" />
<glyph horiz-adv-x="569" d="M518 297l-59 -276q-105 -35 -209 -35q-123 0 -174.5 61t-20.5 210q31 147 112 207t207 60q100 0 165 -24l-54 -102q-57 22 -129 22q-74 0 -113 -32.5t-60 -132.5q-21 -96 4 -130.5t94 -34.5q49 0 85 14l20 96h-108l21 97h219zM259 697h85q-7 -34 5.5 -46t47.5 -12 t54 12.5t26 45.5h80q-30 -137 -179 -137t-119 137z" />
<glyph horiz-adv-x="569" d="M518 297l-59 -276q-105 -35 -209 -35q-123 0 -174.5 61t-20.5 210q31 147 112 207t207 60q100 0 165 -24l-54 -102q-57 22 -129 22q-74 0 -113 -32.5t-60 -132.5q-21 -96 4 -130.5t94 -34.5q49 0 85 14l20 96h-108l21 97h219zM564 568h-117l-55 76l-85 -76h-113l150 129 h122z" />
<glyph horiz-adv-x="569" d="M518 297l-59 -276q-105 -35 -209 -35q-123 0 -174.5 61t-20.5 210q31 147 112 207t207 60q100 0 165 -24l-54 -102q-57 22 -129 22q-74 0 -113 -32.5t-60 -132.5q-21 -96 4 -130.5t94 -34.5q49 0 85 14l20 96h-108l21 97h219zM320 -51l-144 -167h-97l107 167h134z" />
<glyph horiz-adv-x="569" d="M518 297l-59 -276q-105 -35 -209 -35q-123 0 -174.5 61t-20.5 210q31 147 112 207t207 60q100 0 165 -24l-54 -102q-57 22 -129 22q-74 0 -113 -32.5t-60 -132.5q-21 -96 4 -130.5t94 -34.5q49 0 85 14l20 96h-108l21 97h219zM400 681q35 0 45.5 -10t3.5 -45 q-9 -38 -24 -50t-50 -12t-44.5 11.5t-0.5 50.5q7 35 21 45t49 10z" />
<glyph horiz-adv-x="981" d="M979 496l-48 -97q-68 24 -143 24q-51 0 -73.5 -11t-30.5 -48q-6 -26 13 -37.5t80 -17.5q92 -10 126 -44t19 -109q-20 -94 -84 -132t-170 -38t-177 27l47 98q63 -24 146 -24q55 0 80 12t33 50q6 28 -13.5 41.5t-82.5 19.5q-88 7 -122.5 38.5t-18.5 106.5q20 93 84.5 131 t169.5 38q88 0 165 -28zM489 496l-48 -97q-68 24 -143 24q-51 0 -73.5 -11t-30.5 -48q-6 -26 13 -37.5t80 -17.5q92 -10 126 -44t19 -109q-20 -94 -84 -132t-170 -38t-177 27l47 98q63 -24 146 -24q55 0 80 12t33 50q6 28 -13.5 41.5t-82.5 19.5q-88 7 -122.5 38.5 t-18.5 106.5q20 93 84.5 131t169.5 38q88 0 165 -28z" />
<glyph horiz-adv-x="587" d="M43 381l17 79h56l11 49h124l-11 -49h200l11 49h124l-11 -49h57l-17 -79h-57l-80 -381h-124l45 216h-200l-45 -216h-124l80 381h-56zM211 322h200l12 59h-200z" />
<glyph horiz-adv-x="587" d="M388 216h-200l-45 -216h-124l108 509h124l-40 -187h200l40 187h124l-108 -509h-124zM550 568h-117l-55 76l-85 -76h-113l150 129h122z" />
<glyph horiz-adv-x="675" d="M251 509l-108 -509h-124l108 509h124zM665 509l-71 -333q-41 -190 -238 -190q-84 0 -144 23l47 106q47 -20 108 -20q86 0 105 90l69 324h124z" />
<glyph horiz-adv-x="262" d="M251 509l-108 -509h-124l108 509h124zM65 576l19 90h278l-19 -90h-278z" />
<glyph horiz-adv-x="262" d="M251 509l-108 -509h-42q-44 -25 -61 -45t-23 -47q-5 -22 5.5 -31t45.5 -9q52 0 89 27l22 -63q-54 -35 -139 -35q-74 0 -98 21.5t-15 67.5q18 77 119 114h-27l108 509h124z" />
<glyph horiz-adv-x="262" d="M251 509l-108 -509h-124l108 509h124zM354 702l51 -50q-52 -93 -137 -93q-31 0 -68.5 26.5t-60.5 26.5q-32 0 -63 -51l-45 55q64 81 127 81q37 0 73 -26.5t57 -26.5q18 0 32.5 12.5t33.5 45.5z" />
<glyph horiz-adv-x="414" d="M404 509l-71 -333q-41 -190 -238 -190q-84 0 -144 23l47 106q47 -20 108 -20q86 0 105 90l69 324h124zM536 568h-117l-55 76l-85 -76h-113l150 129h122z" />
<glyph horiz-adv-x="551" d="M502 0h-146q-121 252 -156 269l-57 -269h-124l108 509h124l-51 -240q56 39 248 240h147q-177 -186 -244 -231q18 -13 59 -86t92 -192zM316 -51l-144 -167h-97l107 167h134z" />
<glyph horiz-adv-x="432" d="M251 509l-85 -398h240l-23 -111h-364l108 509h124zM270 568h-109l149 129h133z" />
<glyph horiz-adv-x="432" d="M251 509l-85 -398h240l-23 -111h-364l108 509h124zM336 540h110l-98 -192h-73z" />
<glyph horiz-adv-x="432" d="M251 509l-85 -398h240l-23 -111h-364l108 509h124zM258 -51l-144 -167h-97l107 167h134z" />
<glyph horiz-adv-x="432" d="M251 509l-85 -398h240l-23 -111h-364l108 509h124zM339 382q35 0 45.5 -10t3.5 -45q-9 -38 -24 -50t-50 -12t-44.5 11.5t-0.5 50.5q7 35 21 45t49 10z" />
<glyph horiz-adv-x="593" d="M392 198l66 311h124l-108 -509h-124q-71 205 -139 321l-68 -321h-124l108 509h122q94 -170 143 -311zM390 568h-109l149 129h133z" />
<glyph horiz-adv-x="593" d="M392 198l66 311h124l-108 -509h-124q-71 205 -139 321l-68 -321h-124l108 509h122q94 -170 143 -311zM212 697h117l54 -76l86 76h113l-150 -129h-122z" />
<glyph horiz-adv-x="593" d="M392 198l66 311h124l-108 -509h-124q-71 205 -139 321l-68 -321h-124l108 509h122q94 -170 143 -311zM312 -51l-144 -167h-97l107 167h134z" />
<glyph d="M240 -14q-127 0 -172 59.5t-13 211.5q32 150 102.5 208.5t196.5 58.5q128 0 173.5 -58t13.5 -209q-32 -152 -102.5 -211.5t-198.5 -59.5zM332 423q-68 0 -97 -31t-52 -137q-21 -106 -5 -137t83 -31q69 0 99.5 32.5t52.5 135.5q21 109 4.5 138.5t-85.5 29.5zM242 697h85 q-7 -34 5.5 -46t48.5 -12q35 0 53.5 12.5t25.5 45.5h80q-30 -137 -178 -137q-150 0 -120 137z" />
<glyph d="M240 -14q-127 0 -172 59.5t-13 211.5q32 150 102.5 208.5t196.5 58.5q128 0 173.5 -58t13.5 -209q-32 -152 -102.5 -211.5t-198.5 -59.5zM332 423q-68 0 -97 -31t-52 -137q-21 -106 -5 -137t83 -31q69 0 99.5 32.5t52.5 135.5q21 109 4.5 138.5t-85.5 29.5zM296 568h-85 l119 129h109zM461 568h-86l119 129h109z" />
<glyph d="M240 -14q-127 0 -172 59.5t-13 211.5q32 150 102.5 208.5t196.5 58.5q128 0 173.5 -58t13.5 -209q-32 -152 -102.5 -211.5t-198.5 -59.5zM332 423q-68 0 -97 -31t-52 -137q-21 -106 -5 -137t83 -31q69 0 99.5 32.5t52.5 135.5q21 109 4.5 138.5t-85.5 29.5zM228 576 l19 90h278l-19 -90h-278z" />
<glyph horiz-adv-x="574" d="M427 509q156 0 125 -149q-28 -135 -170 -140q39 -10 65.5 -50.5t71.5 -169.5h-144q-35 109 -61.5 145t-61.5 36h-71l-38 -181h-124l108 509h300zM202 279h141q62 0 77 66q13 64 -48 64h-143zM352 568h-109l149 129h133z" />
<glyph horiz-adv-x="574" d="M427 509q156 0 125 -149q-28 -135 -170 -140q39 -10 65.5 -50.5t71.5 -169.5h-144q-35 109 -61.5 145t-61.5 36h-71l-38 -181h-124l108 509h300zM202 279h141q62 0 77 66q13 64 -48 64h-143zM204 697h117l54 -76l86 76h113l-150 -129h-122z" />
<glyph horiz-adv-x="574" d="M427 509q156 0 125 -149q-28 -135 -170 -140q39 -10 65.5 -50.5t71.5 -169.5h-144q-35 109 -61.5 145t-61.5 36h-71l-38 -181h-124l108 509h300zM202 279h141q62 0 77 66q13 64 -48 64h-143zM310 -51l-144 -167h-97l107 167h134z" />
<glyph horiz-adv-x="513" d="M25 203l19 90h50l10 50q39 181 273 181q90 0 165 -24l-48 -101q-54 19 -140 19q-64 0 -93 -20t-38 -62l-9 -43h154l-19 -90h-154l-21 -99h266l-22 -104h-386l43 203h-50z" />
<glyph horiz-adv-x="497" d="M508 401h-248q23 -55 65 -143q-97 -107 -141 -150h255l-22 -108h-449l5 25q78 79 215 232q-59 124 -102 227l6 25h439z" />
<glyph horiz-adv-x="485" d="M91 178l19 90h76l29 133h-175l23 108h475l-23 -108h-176l-29 -133h78l-19 -90h-78l-37 -178h-124l37 178h-76z" />
<glyph horiz-adv-x="485" d="M339 401l-85 -401h-124l85 401h-175l23 108h475l-23 -108h-176zM262 -51l-144 -167h-97l107 167h134z" />
<glyph horiz-adv-x="485" d="M339 401l-85 -401h-124l85 401h-175l23 108h475l-23 -108h-176zM157 697h117l54 -76l86 76h113l-150 -129h-122z" />
<glyph horiz-adv-x="578" d="M259 97q58 0 83 23t38 79l66 310h123l-65 -303q-26 -124 -85.5 -172t-182.5 -48t-163 48.5t-14 171.5l65 303h124l-66 -310q-12 -56 3.5 -79t73.5 -23zM509 702l51 -50q-52 -93 -137 -93q-31 0 -68.5 26.5t-60.5 26.5q-32 0 -63 -51l-45 55q64 81 127 81q37 0 73 -26.5 t57 -26.5q18 0 32.5 12.5t33.5 45.5z" />
<glyph horiz-adv-x="578" d="M259 97q58 0 83 23t38 79l66 310h123l-65 -303q-26 -124 -85.5 -172t-182.5 -48t-163 48.5t-14 171.5l65 303h124l-66 -310q-12 -56 3.5 -79t73.5 -23zM397 741q61 0 85 -22.5t13 -75.5t-44.5 -75.5t-95.5 -22.5t-86 22.5t-13 75.5t44 75.5t97 22.5zM385 684 q-30 0 -42 -9.5t-17 -33.5q-5 -23 3.5 -33t37.5 -10t41.5 10t17.5 33q5 24 -3 33.5t-38 9.5z" />
<glyph horiz-adv-x="578" d="M259 97q58 0 83 23t38 79l66 310h123l-65 -303q-23 -108 -69.5 -157t-135.5 -59q-33 -21 -47 -39t-19 -43q-5 -22 5.5 -31t45.5 -9q52 0 89 27l22 -63q-54 -35 -139 -35q-74 0 -98 21.5t-15 67.5q13 61 87 100q-120 2 -158.5 50t-12.5 170l65 303h124l-66 -310 q-12 -56 3.5 -79t73.5 -23z" />
<glyph horiz-adv-x="578" d="M259 97q58 0 83 23t38 79l66 310h123l-65 -303q-26 -124 -85.5 -172t-182.5 -48t-163 48.5t-14 171.5l65 303h124l-66 -310q-12 -56 3.5 -79t73.5 -23zM225 576l19 90h278l-19 -90h-278z" />
<glyph horiz-adv-x="578" d="M259 97q58 0 83 23t38 79l66 310h123l-65 -303q-26 -124 -85.5 -172t-182.5 -48t-163 48.5t-14 171.5l65 303h124l-66 -310q-12 -56 3.5 -79t73.5 -23zM241 697h85q-7 -34 5.5 -46t47.5 -12t54 12.5t26 45.5h80q-30 -137 -179 -137t-119 137z" />
<glyph horiz-adv-x="578" d="M259 97q58 0 83 23t38 79l66 310h123l-65 -303q-26 -124 -85.5 -172t-182.5 -48t-163 48.5t-14 171.5l65 303h124l-66 -310q-12 -56 3.5 -79t73.5 -23zM292 568h-85l119 129h109zM457 568h-86l119 129h109z" />
<glyph horiz-adv-x="487" d="M46 220l13 61h101q-69 138 -126 228h142q43 -69 94 -177q77 74 164 177h135q-113 -128 -213 -228h90l-13 -61h-127l-13 -62h127l-13 -62h-127l-20 -96h-124l20 96h-136l13 62h136l13 62h-136z" />
<glyph horiz-adv-x="487" d="M270 332q77 74 164 177h136q-138 -158 -261 -278l-49 -231h-124l49 231q-90 181 -152 278h144q44 -71 93 -177zM506 568h-117l-55 76l-85 -76h-113l150 129h122z" />
<glyph horiz-adv-x="561" d="M227 -14q-113 0 -155 60.5t-10 210.5q31 149 99 208t180 59q56 0 92.5 -12.5t60.5 -43t25.5 -82t-12.5 -129.5q-32 -150 -99 -210.5t-181 -60.5zM320 424q-54 0 -81.5 -32t-49.5 -137q-20 -106 -7 -137.5t66 -31.5q54 0 81.5 33.5t49.5 135.5q18 71 13.5 108.5t-20 49 t-52.5 11.5z" />
<glyph horiz-adv-x="561" d="M344 0h-124l76 362l-171 -71l-15 104l345 129z" />
<glyph horiz-adv-x="561" d="M124 386l-6 115q104 23 207 23q123 0 165 -37t24 -123q-16 -74 -79 -131t-224 -132h256l-21 -101h-438l19 91q156 84 224.5 127t91.5 67t30 56q8 39 -12 54.5t-81 15.5q-34 0 -82.5 -7.5t-73.5 -17.5z" />
<glyph horiz-adv-x="561" d="M298 121h-295l10 47q143 167 323 341h164l-62 -290h90l-21 -98h-90l-25 -121h-119zM319 219l42 196q-114 -112 -187 -196h145z" />
<glyph horiz-adv-x="561" d="M150 509h387l-22 -103h-263l-20 -92q60 3 74 3q115 0 154 -36t20 -124q-20 -96 -86.5 -133.5t-197.5 -37.5q-120 0 -184 19l45 102q54 -18 151 -18q73 0 106 14t40 51q9 41 -14.5 56.5t-93.5 15.5q-79 0 -159 -10z" />
<glyph horiz-adv-x="561" d="M504 151q-20 -94 -81.5 -129.5t-181.5 -35.5q-48 0 -81 6.5t-60 23.5t-38.5 47t-11.5 77.5t14 114.5q32 149 111.5 209t214.5 60q90 0 174 -25l-50 -102q-75 23 -143 23q-83 0 -121 -24t-55 -93q72 12 134 12q112 0 153.5 -35.5t21.5 -128.5zM377 153q10 45 -8.5 60 t-79.5 15q-56 0 -112 -9q-17 -83 4 -110.5t76 -27.5q61 0 86.5 15.5t33.5 56.5z" />
<glyph horiz-adv-x="561" d="M108 509h484l-5 -24q-189 -211 -358 -485h-144q147 221 307 401h-307z" />
<glyph horiz-adv-x="561" d="M247 83q65 0 91 15t34 54t-14 54t-82 15q-59 0 -87 -15t-36 -54t11 -54t83 -15zM227 -14q-134 0 -178.5 31.5t-26.5 117.5q14 62 52 96t112 38q-69 6 -88.5 36.5t-7.5 87.5q15 74 67.5 102.5t183.5 28.5q90 0 135 -13.5t57.5 -40.5t2.5 -77q-12 -57 -44.5 -87.5 t-102.5 -36.5q73 -4 96 -38t9 -96q-18 -86 -75.5 -117.5t-191.5 -31.5zM297 317q56 0 81 12.5t32 44.5t-11.5 44t-77.5 12q-58 0 -81.5 -12t-30.5 -44t13 -44.5t75 -12.5z" />
<glyph horiz-adv-x="561" d="M231 183q-106 0 -144.5 37t-18.5 130q20 94 84 134t184 40q133 0 178 -44.5t20 -162.5q-10 -48 -34.5 -91t-65.5 -83t-79 -71t-97 -72h-165q215 141 251 193q-82 -10 -113 -10zM405 324q13 61 -6 83t-78 22q-63 0 -89 -18t-35 -61q-10 -44 6.5 -57t80.5 -13q51 0 102 7 q17 22 19 37z" />
<glyph horiz-adv-x="561" d="M174 222l19 93h78q55 0 80 11t31 40t-13.5 40.5t-82.5 11.5q-90 0 -163 -22l-2 108q88 20 190 20q132 0 177 -29t30 -102q-12 -57 -45.5 -87.5t-103.5 -36.5q73 -4 96 -38t9 -96q-18 -85 -80.5 -117t-198.5 -32q-105 0 -184 19l49 111q62 -24 154 -24q71 0 98 14.5 t35 52.5q7 35 -14.5 49t-80.5 14h-78z" />
<glyph horiz-adv-x="427" d="M50 509h136l200 -509h-135z" />
<glyph horiz-adv-x="427" d="M358 509h136l-417 -509h-135z" />
<glyph horiz-adv-x="371" d="M210 659h131l-173 -813h-131z" />
<glyph horiz-adv-x="378" d="M107 657h270l-172 -808h-269l22 107h141l126 593h-141z" />
<glyph horiz-adv-x="470" d="M405 118l5 -106q-70 -26 -160 -26q-124 0 -175 61t-20 210q31 148 108 207.5t201 59.5q90 0 150 -24l-51 -106q-53 22 -113 22q-73 0 -109.5 -30.5t-57.5 -130.5q-21 -96 2.5 -128.5t95.5 -32.5q59 0 124 24zM388 681q35 0 45.5 -10t3.5 -45q-9 -38 -24 -50t-50 -12 t-44.5 11.5t-0.5 50.5q7 35 21 45t49 10z" />
<glyph horiz-adv-x="470" d="M405 118l5 -106q-70 -26 -160 -26q-124 0 -175 61t-20 210q31 148 108 207.5t201 59.5q90 0 150 -24l-51 -106q-53 22 -113 22q-73 0 -109.5 -30.5t-57.5 -130.5q-21 -96 2.5 -128.5t95.5 -32.5q59 0 124 24zM375 568h-109l149 129h133z" />
<glyph horiz-adv-x="470" d="M405 118l5 -106q-70 -26 -160 -26q-124 0 -175 61t-20 210q31 148 108 207.5t201 59.5q90 0 150 -24l-51 -106q-53 22 -113 22q-73 0 -109.5 -30.5t-57.5 -130.5q-21 -96 2.5 -128.5t95.5 -32.5q59 0 124 24zM204 697h117l54 -76l86 76h113l-150 -129h-122z" />
<glyph horiz-adv-x="423" d="M265 524h67l-16 -76q51 -4 84 -15l-39 -74q-21 10 -62 12l-47 -224q39 4 67 14l7 -73q-32 -13 -91 -19l-17 -83h-67l18 85q-72 9 -102 53.5t-11 136.5q36 170 193 186zM154 259q-21 -95 33 -103l44 207q-57 -8 -77 -104z" />
<glyph horiz-adv-x="446" d="M66 409l22 100h141l30 143h103l-30 -143h142l-22 -100h-142l-48 -228h-103l48 228h-141z" />
<glyph horiz-adv-x="345" d="M233 524q79 0 105.5 -33.5t6.5 -124.5q-20 -93 -61 -128.5t-120 -35.5q-78 0 -104.5 35.5t-6.5 128.5q20 91 60.5 124.5t119.5 33.5zM179 270q33 0 47.5 19t26.5 76t6 74.5t-40 17.5q-33 0 -48 -18t-27 -74t-4.5 -75.5t39.5 -19.5z" />
<glyph horiz-adv-x="474" d="M470 504l-41 -78q-54 18 -124 18q-99 0 -108 -41q-4 -20 13 -28t76 -12q86 -7 123 -33t25 -81q-7 -38 -46 -73q18 -22 10 -63q-27 -127 -239 -127q-85 0 -147 19l40 79q47 -19 124 -19q37 0 70 10t38 32q5 19 -12.5 27.5t-75.5 12.5q-86 7 -123.5 33t-25.5 81 q10 43 45 74q-16 23 -8 62q27 127 239 127q82 0 147 -20zM171 298q-13 -13 -16 -28q-4 -19 15.5 -28.5t66.5 -14.5q39 -4 76 -14q12 14 15 29q4 18 -15.5 27t-70.5 15q-45 5 -71 14z" />
<glyph horiz-adv-x="491" d="M489 496l-48 -97q-68 24 -143 24q-51 0 -73.5 -11t-30.5 -48q-6 -26 13 -37.5t80 -17.5q92 -10 126 -44t19 -109q-20 -94 -84 -132t-170 -38t-177 27l47 98q63 -24 146 -24q55 0 80 12t33 50q6 28 -13.5 41.5t-82.5 19.5q-88 7 -122.5 38.5t-18.5 106.5q20 93 84.5 131 t169.5 38q88 0 165 -28zM327 568h-109l149 129h133z" />
<glyph horiz-adv-x="491" d="M489 496l-48 -97q-68 24 -143 24q-51 0 -73.5 -11t-30.5 -48q-6 -26 13 -37.5t80 -17.5q92 -10 126 -44t19 -109q-18 -87 -75 -125.5t-149 -43.5l-6 -29q60 0 81.5 -17t11.5 -61q-10 -47 -44.5 -65t-110.5 -18q-62 0 -94 16l33 54q22 -12 69 -12q23 0 33 5.5t13 20.5 q4 19 -14.5 24t-73.5 2l48 80q-92 4 -153 26l47 98q63 -24 146 -24q55 0 80 12t33 50q6 28 -13.5 41.5t-82.5 19.5q-88 7 -122.5 38.5t-18.5 106.5q20 93 84.5 131t169.5 38q88 0 165 -28z" />
<glyph horiz-adv-x="491" d="M489 496l-48 -97q-68 24 -143 24q-51 0 -73.5 -11t-30.5 -48q-6 -26 13 -37.5t80 -17.5q92 -10 126 -44t19 -109q-20 -94 -84 -132t-170 -38t-177 27l47 98q63 -24 146 -24q55 0 80 12t33 50q6 28 -13.5 41.5t-82.5 19.5q-88 7 -122.5 38.5t-18.5 106.5q20 93 84.5 131 t169.5 38q88 0 165 -28zM513 568h-117l-55 76l-85 -76h-113l150 129h122z" />
<glyph horiz-adv-x="491" d="M489 496l-48 -97q-68 24 -143 24q-51 0 -73.5 -11t-30.5 -48q-6 -26 13 -37.5t80 -17.5q92 -10 126 -44t19 -109q-20 -94 -84 -132t-170 -38t-177 27l47 98q63 -24 146 -24q55 0 80 12t33 50q6 28 -13.5 41.5t-82.5 19.5q-88 7 -122.5 38.5t-18.5 106.5q20 93 84.5 131 t169.5 38q88 0 165 -28zM269 -51l-144 -167h-97l107 167h134z" />
<glyph horiz-adv-x="830" d="M437 341q-76 -172 -170 -341h-153q-20 292 -56 509h131q28 -172 34 -382q103 184 192 382h121q21 -173 21 -382q130 227 200 382h126q-129 -262 -282 -509h-154q2 204 -10 341zM672 568h-117l-55 76l-85 -76h-113l150 129h122z" />
<glyph horiz-adv-x="497" d="M43 509h439l-6 -25q-71 -85 -173.5 -198t-168.5 -178h255l-22 -108h-449l5 25q200 200 346 376h-249zM305 568h-109l149 129h133z" />
<glyph horiz-adv-x="497" d="M43 509h439l-6 -25q-71 -85 -173.5 -198t-168.5 -178h255l-22 -108h-449l5 25q200 200 346 376h-249zM297 681q35 0 45.5 -10t3.5 -45q-9 -38 -24 -50t-50 -12t-44.5 11.5t-0.5 50.5q7 35 21 45t49 10z" />
<glyph horiz-adv-x="563" d="M230 -14q-117 0 -162 60.5t-13 210.5q31 149 101.5 208t187.5 59t160.5 -58.5t11.5 -208.5q-32 -151 -100.5 -211t-185.5 -60zM323 424q-61 0 -89.5 -32t-50.5 -137q-20 -106 -6 -137.5t74 -31.5q61 0 88 32.5t49 136.5q21 109 8.5 139t-73.5 30z" />
<glyph horiz-adv-x="380" d="M261 0h-125l76 362l-171 -71l-14 104l345 129z" />
<glyph horiz-adv-x="565" d="M123 386l-5 115q104 23 214 23q130 0 172 -36.5t24 -123.5q-16 -75 -87.5 -137t-230.5 -126h273l-21 -101h-455l19 91q151 75 226.5 119.5t102 71t33.5 58.5q9 39 -12 55t-89 16q-35 0 -87 -7.5t-77 -17.5z" />
<glyph horiz-adv-x="582" d="M139 121l24 112h96q65 0 95 19t41 69q10 49 -16 67t-116 18q-104 0 -180 -22l-2 114q126 26 232 26q147 0 197 -41t29 -137q-17 -77 -56.5 -117.5t-127.5 -47.5q92 -4 117.5 -49t7.5 -131q-24 -112 -98 -157t-225 -45q-118 0 -223 25l48 114q68 -20 174 -20 q98 0 135.5 21.5t49.5 79.5t-11 80t-92 22h-99z" />
<glyph horiz-adv-x="590" d="M308 0h-346l8 40q239 306 397 469h175l-87 -406h93l-21 -103h-93l-41 -192h-126zM329 103l63 296q-87 -88 -249 -296h186z" />
<glyph horiz-adv-x="598" d="M141 509h432l-25 -114h-307l-32 -153q52 4 84 4q144 0 189.5 -49.5t20.5 -167.5q-28 -131 -100.5 -181.5t-223.5 -50.5q-118 0 -216 25l50 114q62 -20 167 -20q95 0 130 22t48 84q14 67 -9.5 89.5t-116.5 22.5q-98 0 -174 -14z" />
<glyph horiz-adv-x="634" d="M656 687l-54 -116q-56 23 -159 23q-88 0 -137 -35t-74 -138q64 11 134 11q145 0 191 -49t21 -168q-27 -131 -95.5 -180t-214.5 -49q-151 0 -193 77t2 291q23 107 54.5 176.5t79.5 110.5t108.5 57t148.5 16q102 0 188 -27zM293 105q74 0 104 22t42 81q13 62 -6.5 87 t-94.5 25q-64 0 -132 -10q-13 -65 -13.5 -105.5t12 -62.5t33 -29.5t55.5 -7.5z" />
<glyph horiz-adv-x="524" d="M588 509l-9 -39q-94 -113 -232 -316t-216 -346h-149q90 156 207.5 327.5t198.5 259.5h-360l25 114h535z" />
<glyph horiz-adv-x="627" d="M283 94q71 0 102.5 23t44.5 84t-9.5 87t-90.5 26q-69 0 -102.5 -26t-46.5 -87t8.5 -84t93.5 -23zM352 417q60 0 91.5 22.5t42.5 75.5q11 51 -10 70t-84 19q-64 0 -93 -19t-40 -70q-11 -53 11 -75.5t82 -22.5zM261 -14h-1q-143 0 -193 45.5t-27 156.5q19 87 63.5 132 t138.5 49q-86 8 -107.5 49t-5.5 118q20 95 82 136.5t203 41.5t185.5 -41.5t24.5 -136.5q-16 -77 -55 -118t-128 -49q92 -4 117 -49.5t6 -131.5q-23 -111 -91.5 -156.5t-211.5 -45.5z" />
<glyph horiz-adv-x="630" d="M78 -192q204 162 285 275q-40 -5 -88 -5q-146 0 -192 46t-21 164q28 132 97.5 184t214.5 52q157 0 201 -50t14 -191q-30 -137 -119.5 -250.5t-227.5 -224.5h-164zM313 190q61 0 109 7q15 32 25 72q8 37 8.5 61t-4.5 39.5t-19.5 23.5t-33 10.5t-49.5 2.5q-74 0 -104.5 -25 t-43.5 -87q-14 -65 7 -84.5t105 -19.5z" />
<glyph horiz-adv-x="609" d="M163 568l-5 114q112 32 233 32q136 0 188 -44t27 -159q-16 -76 -63.5 -128t-144.5 -93q-94 -40 -141 -76.5t-70 -99.5h332l-24 -114h-503q23 80 55 138.5t77 99.5t84.5 66t102.5 56q73 35 108 63t45 76q12 58 -12 77t-97 19q-115 0 -192 -27z" />
<glyph horiz-adv-x="470" d="M405 118l5 -106q-70 -26 -160 -26q-124 0 -175 61t-20 210q31 148 108 207.5t201 59.5q90 0 150 -24l-51 -106q-53 22 -113 22q-73 0 -109.5 -30.5t-57.5 -130.5q-21 -96 2.5 -128.5t95.5 -32.5q59 0 124 24zM547 568h-117l-55 76l-85 -76h-113l150 129h122z" />
<glyph horiz-adv-x="855" d="M520 171l49 230q-53 0 -133 8t-92 8q-71 0 -105.5 -30.5t-55.5 -131.5q-21 -97 0.5 -129.5t91.5 -32.5q62 0 117 21l6 -102q-70 -26 -153 -26q-121 0 -171 61t-19 210q31 147 107.5 207t196.5 60q21 0 102 -7.5t131 -7.5l18 86l135 51l-29 -137h169l-23 -108h-169 l-47 -219q-10 -48 3 -68.5t57 -20.5q42 0 88 14l1 -98q-65 -23 -142 -23q-91 0 -123.5 38.5t-9.5 146.5zM209 697h117l54 -76l86 76h113l-150 -129h-122z" />
<glyph horiz-adv-x="894" d="M559 171l49 230q-76 1 -184.5 11.5t-125.5 10.5q-51 0 -73.5 -11t-30.5 -48q-6 -26 13 -37.5t80 -17.5q92 -10 126 -44t19 -109q-20 -94 -84 -132t-170 -38t-177 27l47 98q63 -24 146 -24q55 0 80 12t33 50q6 28 -13.5 41.5t-82.5 19.5q-88 7 -122.5 38.5t-18.5 106.5 q20 93 84.5 131t169.5 38q19 0 131.5 -7.5t175.5 -7.5l18 86l135 51l-29 -137h169l-23 -108h-169l-47 -219q-10 -48 3 -68.5t57 -20.5q43 0 88 14l1 -98q-65 -23 -142 -23q-91 0 -123.5 38.5t-9.5 146.5zM172 697h117l54 -76l86 76h113l-150 -129h-122z" />
<glyph horiz-adv-x="671" d="M656 223h-123l-44 -206q-141 -31 -245 -31q-135 0 -185 32t-32 117q28 129 163 135q-69 6 -90 34t-9 84q16 74 74.5 105t190.5 31q100 0 182 -20l-48 -108q-66 22 -155 22q-63 0 -87 -11t-30 -40q-7 -29 13.5 -40t75.5 -11h369zM165 160q-8 -39 13 -53.5t91 -14.5 q69 0 125 13l25 118h-135q-57 0 -84.5 -14.5t-34.5 -48.5z" />
<glyph horiz-adv-x="524" d="M345 419v-611h-76v372h-13v-372h-76v611q-22 -1 -29 -10.5t-7 -37.5v-191h-94v194q0 83 41 109t171 26q129 0 170.5 -26t41.5 -109v-194h-94v191q0 28 -6.5 37.5t-28.5 10.5zM262 721q61 0 82 -16.5t21 -72.5q0 -63 -21 -82t-82 -19q-63 0 -84.5 19t-21.5 82 q0 56 21.5 72.5t84.5 16.5z" />
<glyph horiz-adv-x="524" d="M324 419v-239q104 -241 180 -372h-484q130 284 180 372v239q-36 -1 -46 -10t-10 -38v-191h-74v194q0 83 38 109t154 26q115 0 153.5 -26.5t38.5 -108.5v-194h-74v191q0 29 -10 38t-46 10zM262 721q61 0 82 -16.5t21 -72.5q0 -63 -21 -82t-82 -19q-63 0 -84.5 19t-21.5 82 q0 56 21.5 72.5t84.5 16.5z" />
<glyph horiz-adv-x="1267" d="M446 509q13 -60 73 -118t137 -58l-14 -80q-73 0 -133.5 36.5t-88.5 99.5l-49 -229q107 -2 154.5 -72t11.5 -220h-84q32 120 0 170.5t-152 50.5q-37 -128 -102 -182.5t-177 -54.5l18 77q68 0 111.5 41t66.5 149l65 308q-39 0 -74.5 -41.5t-52.5 -132.5h-82 q31 127 80.5 191.5t144.5 64.5h147zM1245 293l-273 -256l-54 57l163 159h-388l13 80h375l-163 159l54 57zM530 531h-74q-63 0 -84.5 19t-21.5 82q0 56 21.5 72.5t84.5 16.5t85 -18t11 -71z" />
<glyph horiz-adv-x="853" d="M838 0h-124l-215 215v-407h-66v372h-13v-372h-66v407l-215 -215h-124l199 202v172q0 71 28 99l-223 224h133l187 -191q37 3 87 3q54 0 86 -4l189 192h133l-224 -225q28 -27 28 -98v-171zM426 721q61 0 82 -16.5t21 -72.5q0 -63 -21 -82t-82 -19q-63 0 -84.5 19t-21.5 82 q0 56 21.5 72.5t84.5 16.5zM308 371v-73l46 47v16l-42 41q-4 -7 -4 -31zM544 371q0 22 -4 31l-41 -41v-16l45 -46v72z" />
<glyph horiz-adv-x="1267" d="M821 509q-13 -60 -73 -118t-137 -58l14 -80q73 0 133.5 36.5t88.5 99.5l49 -229q-107 -2 -154.5 -72t-11.5 -220h84q-32 120 0 170.5t152 50.5q37 -128 102 -182.5t177 -54.5l-18 77q-68 0 -111.5 41t-66.5 149l-65 308q39 0 74.5 -41.5t52.5 -132.5h82 q-31 127 -80.5 191.5t-144.5 64.5h-147zM22 293l273 -256l54 57l-163 159h388l-13 80h-375l163 159l-54 57zM737 531h74q63 0 84.5 19t21.5 82q0 56 -21.5 72.5t-84.5 16.5t-85 -18t-11 -71z" />
<glyph horiz-adv-x="684" d="M426 -192v611q22 -1 28.5 -10.5t6.5 -37.5v-191h94v194q0 83 -41.5 109t-170.5 26q-130 0 -171 -26t-41 -109v-194h94v191q0 28 7 37.5t29 10.5v-611h76v372h13v-372h76zM343 721q-63 0 -84.5 -16.5t-21.5 -72.5q0 -63 21.5 -82t84.5 -19q61 0 82 19t21 82q0 56 -21 72.5 t-82 16.5zM551 -232h-418q-61 0 -82 19t-21 82v803q0 56 21 72.5t82 16.5h418q61 0 82 -16.5t21 -72.5v-803q0 -63 -21 -82t-82 -19z" />
<glyph horiz-adv-x="684" d="M405 180v239q36 -1 46 -10t10 -38v-191h74v194q0 82 -38.5 108.5t-153.5 26.5q-116 0 -154 -26t-38 -109v-194h74v191q0 29 10 38t46 10v-239q-50 -88 -180 -372h484q-76 131 -180 372zM343 721q-63 0 -84.5 -16.5t-21.5 -72.5q0 -63 21.5 -82t84.5 -19q61 0 82 19t21 82 q0 56 -21 72.5t-82 16.5zM551 -232h-418q-61 0 -82 19t-21 82v803q0 56 21 72.5t82 16.5h418q61 0 82 -16.5t21 -72.5v-803q0 -63 -21 -82t-82 -19z" />
<glyph horiz-adv-x="1373" d="M1240 -232h-1107q-61 0 -82 19t-21 82v803q0 56 21 72.5t82 16.5h1107q61 0 82 -16.5t21 -72.5v-803q0 -63 -21 -82t-82 -19zM505 509h-147q-95 0 -144.5 -64.5t-80.5 -191.5h82q17 91 52.5 132.5t74.5 41.5l-65 -308q-23 -108 -66.5 -149t-111.5 -41l-18 -77 q112 0 177 54.5t102 182.5q120 0 152 -50.5t0 -170.5h84q36 150 -11.5 220t-154.5 72l49 229q28 -63 88.5 -99.5t133.5 -36.5l14 80q-77 0 -137 58t-73 118zM1031 37l273 256l-273 256l-54 -57l163 -159h-375l-13 -80h388l-163 -159zM515 531h74l22 101q11 53 -11 71t-85 18 t-84.5 -16.5t-21.5 -72.5q0 -63 21.5 -82t84.5 -19z" />
<glyph horiz-adv-x="1373" d="M133 -232h1107q61 0 82 19t21 82v803q0 56 -21 72.5t-82 16.5h-1107q-61 0 -82 -16.5t-21 -72.5v-803q0 -63 21 -82t82 -19zM868 509h147q95 0 144.5 -64.5t80.5 -191.5h-82q-17 91 -52.5 132.5t-74.5 41.5l65 -308q23 -108 66.5 -149t111.5 -41l18 -77q-112 0 -177 54.5 t-102 182.5q-120 0 -152 -50.5t0 -170.5h-84q-36 150 11.5 220t154.5 72l-49 229q-28 -63 -88.5 -99.5t-133.5 -36.5l-14 80q77 0 137 58t73 118zM342 37l-273 256l273 256l54 -57l-163 -159h375l13 -80h-388l163 -159zM858 531h-74l-22 101q-11 53 11 71t85 18t84.5 -16.5 t21.5 -72.5q0 -63 -21.5 -82t-84.5 -19z" />
<glyph horiz-adv-x="960" d="M827 -232h-694q-61 0 -82 19t-21 82v803q0 56 21 72.5t82 16.5h694q61 0 82 -16.5t21 -72.5v-803q0 -63 -21 -82t-82 -19zM767 0h124l-200 203v171q0 71 -28 98l224 225h-133l-189 -192q-32 4 -86 4q-49 0 -87 -3l-187 191h-133l223 -224q-28 -28 -28 -99v-172l-199 -202 h124l215 215v-407h66v372h13v-372h66v407zM479 721q-63 0 -84.5 -16.5t-21.5 -72.5q0 -63 21.5 -82t84.5 -19q61 0 82 19t21 82q0 56 -21 72.5t-82 16.5zM361 298v73q0 24 4 31l42 -41v-16zM597 371v-72l-45 46v16l41 41q4 -9 4 -31z" />
<glyph horiz-adv-x="1068" d="M171 334h46l20 -127h294l21 127h46l-85 -526h-257zM879 180l-76 329h-504l14 -80h363l58 -249l-60 -372h66l60 372h13v-372h66v372zM610 531h74q63 0 84.5 19t21.5 82q0 56 -21.5 72.5t-84.5 16.5t-85 -18t-11 -71zM343 412q42 -46 160 -46l-83 -122q-44 3 -83.5 40 t-39.5 62q0 9 7 21t15.5 21t16.5 16zM245 162l19 -122h98v122h-117zM407 162v-122h97l20 122h-117zM272 -5l23 -142h67v142h-90zM407 -5v-142h67l23 142h-90z" />
<glyph horiz-adv-x="1068" d="M904 258l130 -226q18 -31 18 -73q0 -64 -44 -107.5t-107 -43.5h-239v-122l-183 162l183 161v-122h239q29 0 50.5 21t21.5 51q0 20 -8 33l-130 227zM425 -192h-260q-56 0 -97 37.5t-48.5 87.5t17.5 102l119 207l-105 61l232 78l48 -239l-106 61l-120 -207 q-20 -33 -0.5 -70.5t59.5 -37.5h261v-80zM277 452l130 225q28 49 80 65.5t102.5 -2.5t77.5 -66l120 -206l105 60l-48 -240l-231 78l106 62l-119 207q-19 33 -60 35.5t-63 -32.5l-131 -226z" />
<glyph horiz-adv-x="1068" d="M30 256q0 208 148 356t356 148t356 -148t148 -356t-148 -356t-356 -148t-356 148t-148 356zM534 739q95 -61 165 -126.5t137 -155.5q-140 -179 -302 -282v161q-162 -103 -302 -282q67 -90 137 -155.5t165 -126.5v159q146 7 251 55t151.5 119.5t60.5 156.5t-20 169 t-90.5 153t-150.5 112t-202 43zM534 739q-131 0 -242.5 -64.5t-177 -176t-65.5 -242.5q0 -96 36 -182.5t100 -152.5q-52 56 -82 125.5t-35.5 140.5t21 139.5t80 122.5t147.5 89.5t218 41.5v159zM533 -228q-21 0 -63 4q42 -4 63 -4z" />
<glyph horiz-adv-x="1068" d="M881 -192h-694q-61 0 -82 17.5t-21 74.5v733q0 51 21 66t82 15h694q61 0 82 -15t21 -66v-733q0 -57 -21 -74.5t-82 -17.5zM195 -161h678q54 0 66.5 12t12.5 65v700q0 47 -12.5 57.5t-66.5 10.5h-678q-54 0 -67 -10.5t-13 -57.5v-700q0 -53 13 -65t67 -12zM225 -79v39h158 q-27 12 -43.5 44.5t-24.5 69t-17.5 70.5t-30 54t-54.5 15q28 13 53 14t43 -5t36.5 -22.5t29.5 -31t27 -38.5q-12 33 -23.5 122.5t-30 151t-54.5 67.5q34 5 61.5 -5t44.5 -26t32 -47.5t22.5 -54.5t17.5 -62q-3 35 8 125.5t6 152t-42 76.5q54 -4 85.5 -31t41.5 -69.5 t12.5 -85.5t5.5 -92t13 -76q55 122 64 162q12 55 -11 78q54 -27 68 -80t0 -102.5t-32 -111.5t-18 -91q0 -4 -2 -12q9 7 25 19.5t25 20t21 18.5t18 19t10.5 18t3.5 19.5t-7 18.5q42 -28 46.5 -63t-14 -63.5t-43 -68.5t-29.5 -68q-1 -17 -18 -29h143v-39h-627zM472 41 q16 -14 4.5 -41t-38.5 -40h185q-25 15 -26 44q-3 42 43 88q-23 -8 -46.5 2t-32.5 41q-6 22 12 72q-18 -12 -43 -7.5t-43 29.5q-1 1 -3 4q15 -53 33 -77q12 -17 1 -41t-35.5 -32.5t-55.5 9.5q25 -36 45 -51z" />
<glyph horiz-adv-x="1068" d="M881 -192h-694q-61 0 -82 17.5t-21 74.5v733q0 51 21 66t82 15h694q61 0 82 -15t21 -66v-733q0 -57 -21 -74.5t-82 -17.5zM195 -161h678q54 0 66.5 12t12.5 65v700q0 47 -12.5 57.5t-66.5 10.5h-678q-54 0 -67 -10.5t-13 -57.5v-700q0 -53 13 -65t67 -12zM280 -104 l-118 117l253 254l-253 255l115 113l253 -252l255 257l119 -118l-256 -256l254 -253l-116 -117l-254 255z" />
<glyph horiz-adv-x="1068" d="M532 266q0 -100 88 -154t223 -54q55 0 93 5v-92q-65 -45 -166.5 -68.5t-211.5 -23.5q-134 0 -248.5 52t-181.5 141t-67 193q0 160 146.5 274t350.5 114q111 0 212.5 -23.5t165.5 -68.5v-91q-38 5 -93 5q-135 0 -223 -54.5t-88 -154.5zM242 1v361q0 65 18.5 86.5 t77.5 21.5q44 0 63.5 -24t19.5 -82t-22.5 -82t-78.5 -24q-40 0 -63 18v-66q31 -17 70 -17q176 0 176 172q0 86 -44.5 128.5t-127.5 42.5q-75 0 -122 -37.5t-47 -121.5v-315zM936 347v-240h-100v240h-96v73h292v-73h-96z" />
<glyph horiz-adv-x="1068" d="M53 4l398 689q35 57 85 57q52 0 85 -57l394 -689q18 -29 18 -61q0 -38 -27.5 -61.5t-75.5 -23.5h-791q-48 0 -76 24t-28 61q0 30 18 61zM589 583h-112l25 -438h63zM534 66q-34 0 -46.5 -10t-12.5 -44q0 -36 12.5 -47t46.5 -11q35 0 47 11t12 47q0 34 -12 44t-47 10z" />
<glyph horiz-adv-x="1068" d="M534 15q13 17 29 4q10 12 24 5q10 10 21 6q9 9 15 6q4 5 9 8t7 5q5 11 2.5 24t-5.5 25t-1 13q19 4 44.5 -0.5t41.5 -3t26 19.5q9 17 8 30q-1 8 -8 3q5 74 -8 97q24 42 24 77q0 85 -65.5 141t-163.5 56t-163.5 -56t-65.5 -141q0 -37 23 -77q-12 -23 -7 -97q-9 6 -8 -6 q1 -15 8 -27q10 -18 26 -19.5t41.5 3t43.5 0.5q3 -1 0 -13t-6 -25t2 -24q2 -2 7 -5t9 -8q7 4 15 -6q12 3 21 -6q14 7 24 -5q17 13 30 -4zM427 281q44 0 58.5 -8.5t14.5 -37.5q0 -25 -22.5 -49.5t-54.5 -29.5q-39 -7 -55 1.5t-16 51.5q0 35 20.5 53.5t54.5 18.5zM534 90 q-6 -8 -16 -12t-17 3t-4 29q14 95 37 95q21 0 37 -95q3 -22 -4.5 -29t-17 -3t-15.5 12zM534 -98q5 0 12.5 -4.5t18.5 -3.5q16 2 59 35t50 52q6 14 7 56.5t6 66.5l-24 3q2 -42 -17 -91q-6 -8 -7 -2v2q-13 -13 -17 -12q-7 -12 -12 -9q-2 -1 -5 -4t-5.5 -4t-4.5 0q-2 -1 -5 -3 l-4.5 -3t-4.5 -1.5t-4 1.5q-15 -8 -21 -4q-13 -10 -22 1q-10 -10 -23 -1q-6 -4 -20 4q-5 -3 -18 6q-2 -1 -4.5 0t-5.5 4t-5 4q-5 -3 -12 9q-3 0 -6 1.5t-7 5.5l-5 5q1 -3 0 -4q-3 -2 -6 4q-19 49 -17 91q-1 0 -9.5 -1t-15.5 -2q5 -25 6.5 -67t7.5 -56q7 -19 50 -52t59 -35 q11 -1 18.5 3.5t12.5 4.5zM640 281q35 0 55 -18.5t20 -53.5q0 -43 -15.5 -51t-54.5 -2q-33 6 -55.5 30t-22.5 49q0 29 14.5 37.5t58.5 8.5zM53 4l398 689q35 57 85 57q52 0 85 -57l394 -689q18 -29 18 -61q0 -38 -27.5 -61.5t-75.5 -23.5h-791q-48 0 -76 24t-28 61 q0 30 18 61z" />
<glyph horiz-adv-x="1068" d="M269 189h189q0 -43 39 -67l-94 -163q-61 34 -97.5 95.5t-36.5 134.5zM534 453q73 0 132 -36l-93 -163q-16 10 -39 10q-21 0 -37 -10l-94 164q60 35 131 35zM799 189q0 -71 -36 -132t-96 -96l-94 163q37 23 37 65h189zM451 693l-398 -689q-18 -32 -18 -61q0 -37 28 -61 t76 -24h791q48 0 75.5 23.5t27.5 61.5q0 32 -18 61l-394 689q-33 57 -85 57q-50 0 -85 -57zM90 6l383 662q14 22 19.5 29.5t17 14t26.5 6.5q21 0 32.5 -10t30.5 -40l379 -662q20 -31 20 -52q0 -33 -15.5 -48.5t-54.5 -15.5h-787q-39 0 -54.5 15.5t-15.5 48.5q0 20 19 52z " />
<glyph horiz-adv-x="1068" d="M914 -67v100q-80 0 -140 49t-75 124h185v95h-185q17 75 77 124t138 49v101q-133 0 -227 -94t-94 -228q0 -133 93.5 -226.5t227.5 -93.5zM470 -67v100q-92 0 -156 64t-64 156t64 156.5t156 64.5v101q-133 0 -227 -94t-94 -228q0 -133 93.5 -226.5t227.5 -93.5z" />
<glyph horiz-adv-x="1068" d="M40 -93v569q0 63 29.5 95.5t100.5 32.5h238v-87h-233q-40 0 -40 -41v-185h234q14 140 116 233.5t245 93.5q113 0 206 -63.5t130 -162.5h-93q-32 68 -96.5 108.5t-146.5 40.5q-118 0 -197.5 -85t-79.5 -203q0 -119 79 -203t198 -84q81 0 145.5 39.5t96.5 106.5h94 q-38 -98 -131 -160t-205 -62q-144 0 -246 92t-116 233h-233v-308h-95zM575 253q0 -67 44 -112t111 -45q51 0 88.5 26.5t47.5 73.5h87q-18 -80 -78.5 -131t-144.5 -51q-102 0 -167 68t-65 171q0 104 65 172t167 68q84 0 145 -51.5t79 -132.5h-88q-10 48 -47.5 75t-88.5 27 q-66 0 -110.5 -45.5t-44.5 -112.5z" />
<glyph horiz-adv-x="1068" d="M509 253q0 -53 34 -90t86 -37q33 0 58 13l14 -31q-38 -19 -72 -19q-73 0 -116.5 47t-43.5 117q0 69 43.5 116t116.5 47q40 0 72 -19l-14 -32q-24 14 -58 14q-51 0 -85.5 -37.5t-34.5 -88.5zM456 364l-136 -223h-52v223h39v-177l103 177h46zM587 253q0 -29 11.5 -40.5 t35.5 -11.5q16 0 22 2l13 -31q-15 -7 -35 -7q-39 0 -62.5 25t-23.5 63q0 37 23.5 63t62.5 26q15 0 35 -9l-12 -30q-9 3 -23 3q-47 0 -47 -53zM786 364v-223h-37v223h37zM163 252q0 -85 7 -148t18 -71q33 -26 346 -26t345 27q25 17 25 218q0 200 -23 218q-31 26 -347 26 q-314 0 -344 -26q-27 -17 -27 -218zM125 252q0 216 31 247q18 15 119.5 25t258.5 10q159 0 262 -10.5t118 -26.5q12 -10 20.5 -81.5t8.5 -163.5q0 -218 -31 -246q-15 -15 -119 -26t-259 -11q-156 0 -259.5 10.5t-119.5 25.5q-12 11 -21 83t-9 164zM55 252q0 -117 8 -207.5 t19 -101.5q40 -33 452 -33q411 0 451 34q28 29 28 308q0 115 -7.5 205.5t-17.5 101.5q-41 34 -454 34q-408 0 -450 -32q-29 -32 -29 -309zM15 252q0 293 39 337q46 40 480 40q438 0 483 -42q15 -15 25.5 -111.5t10.5 -223.5q0 -132 -10 -224.5t-28 -111.5 q-21 -19 -149 -30.5t-332 -11.5q-436 0 -482 41q-15 15 -26 113t-11 224z" />
<glyph horiz-adv-x="1068" d="M516 419q-26 0 -57 -29.5t-31 -60.5q0 -41 9 -114.5t21 -97.5q13 -26 37 -40t48 -14q31 0 134 109t177 200q21 -60 21 -119q0 -142 -100 -241.5t-242 -99.5t-241.5 99.5t-99.5 241.5t99.5 242t241.5 100q80 0 149.5 -34t116.5 -94q-25 -43 -107.5 -130.5t-108.5 -87.5 q-6 0 -15.5 24t-15 59t-2.5 59q2 11 -7 19.5t-27 8.5z" />
</font>
</defs>
</svg>
